<svg xmlns="http://www.w3.org/2000/svg" viewBox="0 0 1977.5 1093.16" width="1977.5" height="1093.16">
  <defs>
    <marker id="arrow-point" viewBox="0 0 10 10" refX="9" refY="5" markerWidth="6" markerHeight="6" orient="auto-start-reverse">
      <path d="M0 0 L10 5 L0 10 Z" fill="#333" />
    </marker>
  </defs>
  <g transform="translate(20, 20)">
    <rect x="162.25" y="0" width="1740.5" height="546.49" rx="5" ry="5" fill="#ececec" stroke="#333333" stroke-width="1" />
    <text x="170.25" y="12" text-anchor="start" dominant-baseline="central" font-size="13px" font-family="'Intel One Mono', 'SF Mono', 'Cascadia Code', 'JetBrains Mono', 'Fira Code', 'Consolas', 'Menlo', monospace" fill="#333333" font-weight="bold">Command Side</text>
    <rect x="-35.25" y="596.49" width="510.5" height="189" rx="5" ry="5" fill="#ececec" stroke="#333333" stroke-width="1" />
    <text x="-27.25" y="608.49" text-anchor="start" dominant-baseline="central" font-size="13px" font-family="'Intel One Mono', 'SF Mono', 'Cascadia Code', 'JetBrains Mono', 'Fira Code', 'Consolas', 'Menlo', monospace" fill="#333333" font-weight="bold">Event Bus</text>
    <rect x="530.5" y="703.49" width="932" height="82" rx="5" ry="5" fill="#ececec" stroke="#333333" stroke-width="1" />
    <text x="538.5" y="715.49" text-anchor="start" dominant-baseline="central" font-size="13px" font-family="'Intel One Mono', 'SF Mono', 'Cascadia Code', 'JetBrains Mono', 'Fira Code', 'Consolas', 'Menlo', monospace" fill="#333333" font-weight="bold">Projections</text>
    <rect x="542.5" y="835.49" width="909.5" height="217.67" rx="5" ry="5" fill="#ececec" stroke="#333333" stroke-width="1" />
    <text x="550.5" y="847.49" text-anchor="start" dominant-baseline="central" font-size="13px" font-family="'Intel One Mono', 'SF Mono', 'Cascadia Code', 'JetBrains Mono', 'Fira Code', 'Consolas', 'Menlo', monospace" fill="#333333" font-weight="bold">Read Side</text>
    <rect x="1504" y="703.49" width="433.5" height="242.67" rx="5" ry="5" fill="#ececec" stroke="#333333" stroke-width="1" />
    <text x="1512" y="715.49" text-anchor="start" dominant-baseline="central" font-size="13px" font-family="'Intel One Mono', 'SF Mono', 'Cascadia Code', 'JetBrains Mono', 'Fira Code', 'Consolas', 'Menlo', monospace" fill="#333333" font-weight="bold">Sagas</text>
    <rect x="1547.5" y="25" width="80" height="32" fill="#ffffff" stroke="#333333" stroke-width="1.5" />
    <text x="1587.5" y="41" text-anchor="middle" dominant-baseline="central" font-size="14px" font-family="'Intel One Mono', 'SF Mono', 'Cascadia Code', 'JetBrains Mono', 'Fira Code', 'Consolas', 'Menlo', monospace" fill="#333333">Web UI</text>
    <rect x="1527" y="107" width="120" height="32" fill="#ffffff" stroke="#333333" stroke-width="1.5" />
    <text x="1587" y="123" text-anchor="middle" dominant-baseline="central" font-size="14px" font-family="'Intel One Mono', 'SF Mono', 'Cascadia Code', 'JetBrains Mono', 'Fira Code', 'Consolas', 'Menlo', monospace" fill="#333333">Command API</text>
    <polygon points="1765,189 1829,253 1765,317 1701,253" fill="#ffffff" stroke="#333333" stroke-width="1.5" />
    <text x="1765" y="253" text-anchor="middle" dominant-baseline="central" font-size="14px" font-family="'Intel One Mono', 'SF Mono', 'Cascadia Code', 'JetBrains Mono', 'Fira Code', 'Consolas', 'Menlo', monospace" fill="#333333">Validate</text>
    <rect x="1689" y="383" width="152" height="32" fill="#ffffff" stroke="#333333" stroke-width="1.5" />
    <text x="1765" y="399" text-anchor="middle" dominant-baseline="central" font-size="14px" font-family="'Intel One Mono', 'SF Mono', 'Cascadia Code', 'JetBrains Mono', 'Fira Code', 'Consolas', 'Menlo', monospace" fill="#333333">Command Handler</text>
    <path d="M224 471.12 A60 12.24 0 0 1 344 471.12 A60 12.24 0 0 1 224 471.12 L224 515.37 A60 12.24 0 0 0 344 515.37 L344 471.12" fill="#ffffff" stroke="#333333" stroke-width="1.5" />
    <text x="284" y="499.37" text-anchor="middle" dominant-baseline="central" font-size="14px" font-family="'Intel One Mono', 'SF Mono', 'Cascadia Code', 'JetBrains Mono', 'Fira Code', 'Consolas', 'Menlo', monospace" fill="#333333">Event Store</text>
    <rect x="216" y="621.49" width="136" height="32" fill="#ffffff" stroke="#333333" stroke-width="1.5" />
    <text x="284" y="637.49" text-anchor="middle" dominant-baseline="central" font-size="14px" font-family="'Intel One Mono', 'SF Mono', 'Cascadia Code', 'JetBrains Mono', 'Fira Code', 'Consolas', 'Menlo', monospace" fill="#333333">Kafka Cluster</text>
    <rect x="35" y="728.49" width="168" height="32" fill="#ffffff" stroke="#333333" stroke-width="1.5" />
    <text x="119" y="744.49" text-anchor="middle" dominant-baseline="central" font-size="14px" font-family="'Intel One Mono', 'SF Mono', 'Cascadia Code', 'JetBrains Mono', 'Fira Code', 'Consolas', 'Menlo', monospace" fill="#333333">Dead Letter Queue</text>
    <rect x="253" y="728.49" width="152" height="32" fill="#ffffff" stroke="#333333" stroke-width="1.5" />
    <text x="329" y="744.49" text-anchor="middle" dominant-baseline="central" font-size="14px" font-family="'Intel One Mono', 'SF Mono', 'Cascadia Code', 'JetBrains Mono', 'Fira Code', 'Consolas', 'Menlo', monospace" fill="#333333">Schema Registry</text>
    <rect x="565.5" y="728.49" width="160" height="32" fill="#ffffff" stroke="#333333" stroke-width="1.5" />
    <text x="645.5" y="744.49" text-anchor="middle" dominant-baseline="central" font-size="14px" font-family="'Intel One Mono', 'SF Mono', 'Cascadia Code', 'JetBrains Mono', 'Fira Code', 'Consolas', 'Menlo', monospace" fill="#333333">Order Projection</text>
    <rect x="775.5" y="728.49" width="192" height="32" fill="#ffffff" stroke="#333333" stroke-width="1.5" />
    <text x="871.5" y="744.49" text-anchor="middle" dominant-baseline="central" font-size="14px" font-family="'Intel One Mono', 'SF Mono', 'Cascadia Code', 'JetBrains Mono', 'Fira Code', 'Consolas', 'Menlo', monospace" fill="#333333">Inventory Projection</text>
    <rect x="1235.5" y="728.49" width="192" height="32" fill="#ffffff" stroke="#333333" stroke-width="1.5" />
    <text x="1331.5" y="744.49" text-anchor="middle" dominant-baseline="central" font-size="14px" font-family="'Intel One Mono', 'SF Mono', 'Cascadia Code', 'JetBrains Mono', 'Fira Code', 'Consolas', 'Menlo', monospace" fill="#333333">Reporting Projection</text>
    <rect x="1017.5" y="728.49" width="168" height="32" fill="#ffffff" stroke="#333333" stroke-width="1.5" />
    <text x="1101.5" y="744.49" text-anchor="middle" dominant-baseline="central" font-size="14px" font-family="'Intel One Mono', 'SF Mono', 'Cascadia Code', 'JetBrains Mono', 'Fira Code', 'Consolas', 'Menlo', monospace" fill="#333333">Search Projection</text>
    <path d="M577.5 868.31 A68 13.03 0 0 1 713.5 868.31 A68 13.03 0 0 1 577.5 868.31 L577.5 913.34 A68 13.03 0 0 0 713.5 913.34 L713.5 868.31" fill="#ffffff" stroke="#333333" stroke-width="1.5" />
    <text x="645.5" y="897.34" text-anchor="middle" dominant-baseline="central" font-size="14px" font-family="'Intel One Mono', 'SF Mono', 'Cascadia Code', 'JetBrains Mono', 'Fira Code', 'Consolas', 'Menlo', monospace" fill="#333333">Order Read DB</text>
    <path d="M787.5 867.66 A84 14.33 0 0 1 955.5 867.66 A84 14.33 0 0 1 787.5 867.66 L787.5 913.99 A84 14.33 0 0 0 955.5 913.99 L955.5 867.66" fill="#ffffff" stroke="#333333" stroke-width="1.5" />
    <text x="871.5" y="897.99" text-anchor="middle" dominant-baseline="central" font-size="14px" font-family="'Intel One Mono', 'SF Mono', 'Cascadia Code', 'JetBrains Mono', 'Fira Code', 'Consolas', 'Menlo', monospace" fill="#333333">Inventory Read DB</text>
    <path d="M1313 869.15 A52 11.35 0 0 1 1417 869.15 A52 11.35 0 0 1 1313 869.15 L1313 912.5 A52 11.35 0 0 0 1417 912.5 L1417 869.15" fill="#ffffff" stroke="#333333" stroke-width="1.5" />
    <text x="1365" y="896.5" text-anchor="middle" dominant-baseline="central" font-size="14px" font-family="'Intel One Mono', 'SF Mono', 'Cascadia Code', 'JetBrains Mono', 'Fira Code', 'Consolas', 'Menlo', monospace" fill="#333333">Report DW</text>
    <path d="M1033.5 868.31 A68 13.03 0 0 1 1169.5 868.31 A68 13.03 0 0 1 1033.5 868.31 L1033.5 913.34 A68 13.03 0 0 0 1169.5 913.34 L1169.5 868.31" fill="#ffffff" stroke="#333333" stroke-width="1.5" />
    <text x="1101.5" y="897.34" text-anchor="middle" dominant-baseline="central" font-size="14px" font-family="'Intel One Mono', 'SF Mono', 'Cascadia Code', 'JetBrains Mono', 'Fira Code', 'Consolas', 'Menlo', monospace" fill="#333333">Elasticsearch</text>
    <rect x="934.5" y="996.16" width="104" height="32" fill="#ffffff" stroke="#333333" stroke-width="1.5" />
    <text x="986.5" y="1012.16" text-anchor="middle" dominant-baseline="central" font-size="14px" font-family="'Intel One Mono', 'SF Mono', 'Cascadia Code', 'JetBrains Mono', 'Fira Code', 'Consolas', 'Menlo', monospace" fill="#333333">Query API</text>
    <rect x="1313" y="996.16" width="104" height="32" fill="#ffffff" stroke="#333333" stroke-width="1.5" />
    <text x="1365" y="1012.16" text-anchor="middle" dominant-baseline="central" font-size="14px" font-family="'Intel One Mono', 'SF Mono', 'Cascadia Code', 'JetBrains Mono', 'Fira Code', 'Consolas', 'Menlo', monospace" fill="#333333">Dashboard</text>
    <rect x="1539" y="728.49" width="112" height="32" fill="#ffffff" stroke="#333333" stroke-width="1.5" />
    <text x="1595" y="744.49" text-anchor="middle" dominant-baseline="central" font-size="14px" font-family="'Intel One Mono', 'SF Mono', 'Cascadia Code', 'JetBrains Mono', 'Fira Code', 'Consolas', 'Menlo', monospace" fill="#333333">Order Saga</text>
    <rect x="1701" y="728.49" width="128" height="32" fill="#ffffff" stroke="#333333" stroke-width="1.5" />
    <text x="1765" y="744.49" text-anchor="middle" dominant-baseline="central" font-size="14px" font-family="'Intel One Mono', 'SF Mono', 'Cascadia Code', 'JetBrains Mono', 'Fira Code', 'Consolas', 'Menlo', monospace" fill="#333333">Payment Saga</text>
    <rect x="1726.5" y="874.82" width="176" height="32" fill="#ffffff" stroke="#333333" stroke-width="1.5" />
    <text x="1814.5" y="890.82" text-anchor="middle" dominant-baseline="central" font-size="14px" font-family="'Intel One Mono', 'SF Mono', 'Cascadia Code', 'JetBrains Mono', 'Fira Code', 'Consolas', 'Menlo', monospace" fill="#333333">Compensate Handler</text>
    <path d="M1587.3 57 L1587.25 61.17 C1587.2 65.33 1587.1 73.67 1587.05 82 C1587 90.33 1587 98.67 1587 102.83 L1587 107" fill="none" stroke="#333333" stroke-width="1.5" marker-end="url(#arrow-point)" />
    <path d="M1587 139 L1587 143.17 C1587 147.33 1587 155.67 1609.56 171.11 C1632.11 186.56 1677.22 209.11 1699.78 220.39 L1722.33 231.67" fill="none" stroke="#333333" stroke-width="1.5" marker-end="url(#arrow-point)" />
    <path d="M1765 317 L1765 322.5 C1765 328 1765 339 1765 350 C1765 361 1765 372 1765 377.5 L1765 383" fill="none" stroke="#333333" stroke-width="1.5" marker-end="url(#arrow-point)" />
    <text x="1765" y="350" text-anchor="middle" dominant-baseline="central" font-size="12px" font-family="'Intel One Mono', 'SF Mono', 'Cascadia Code', 'JetBrains Mono', 'Fira Code', 'Consolas', 'Menlo', monospace" fill="#333333">valid</text>
    <path d="M1689 401.1 L1454.83 407.59 C1220.67 414.07 752.33 427.03 518.17 436.66 C284 446.29 284 452.59 284 455.73 L284 458.88" fill="none" stroke="#333333" stroke-width="1.5" marker-end="url(#arrow-point)" />
    <path d="M284 527.61 L284 530.76 C284 533.9 284 540.2 284 547.51 C284 554.82 284 563.16 284 571.49 C284 579.82 284 588.16 284 596.49 C284 604.82 284 613.16 284 617.32 L284 621.49" fill="none" stroke="#333333" stroke-width="1.5" stroke-dasharray="3 3" marker-end="url(#arrow-point)" />
    <path d="M301.56 653.49 L306.13 657.66 C310.71 661.82 319.85 670.16 324.43 678.49 C329 686.82 329 695.16 329 703.49 C329 711.82 329 720.16 329 724.32 L329 728.49" fill="none" stroke="#333333" stroke-width="1.5" marker-end="url(#arrow-point)" />
    <path d="M309.37 653.49 L315.97 657.66 C322.58 661.82 335.79 670.16 342.39 678.49 C349 686.82 349 695.16 385.08 704.31 C421.17 713.47 493.33 723.45 529.42 728.44 L565.5 733.43" fill="none" stroke="#333333" stroke-width="1.5" marker-end="url(#arrow-point)" />
    <path d="M317.17 653.49 L325.81 657.66 C334.45 661.82 351.72 670.16 360.36 678.49 C369 686.82 369 695.16 436.75 704.85 C504.5 714.55 640 725.6 707.75 731.13 L775.5 736.66" fill="none" stroke="#333333" stroke-width="1.5" marker-end="url(#arrow-point)" />
    <path d="M332.78 653.49 L345.48 657.66 C358.19 661.82 383.59 670.16 396.3 678.49 C409 686.82 409 695.16 546.75 705.45 C684.5 715.73 960 727.98 1097.75 734.1 L1235.5 740.22" fill="none" stroke="#333333" stroke-width="1.5" marker-end="url(#arrow-point)" />
    <path d="M324.98 653.49 L335.65 657.66 C346.32 661.82 367.66 670.16 378.33 678.49 C389 686.82 389 695.16 493.75 705.35 C598.5 715.55 808 727.6 912.75 733.63 L1017.5 739.66" fill="none" stroke="#333333" stroke-width="1.5" marker-end="url(#arrow-point)" />
    <path d="M219.61 653.49 L202.84 657.66 C186.07 661.82 152.54 670.16 135.77 678.49 C119 686.82 119 695.16 119 703.49 C119 711.82 119 720.16 119 724.32 L119 728.49" fill="none" stroke="#333333" stroke-width="1.5" stroke-dasharray="3 3" marker-end="url(#arrow-point)" />
    <path d="M340.59 653.49 L355.32 657.66 C370.06 661.82 399.53 670.16 414.26 678.49 C429 686.82 429 695.16 614 705.83 C799 716.5 1169 729.51 1354 736.02 L1539 742.52" fill="none" stroke="#333333" stroke-width="1.5" marker-end="url(#arrow-point)" />
    <path d="M348.39 653.49 L365.16 657.66 C381.93 661.82 415.46 670.16 432.23 678.49 C449 686.82 449 695.16 657.67 705.82 C866.33 716.49 1283.67 729.49 1492.33 735.99 L1701 742.5" fill="none" stroke="#333333" stroke-width="1.5" marker-end="url(#arrow-point)" />
    <path d="M645.5 760.49 L645.5 764.66 C645.5 768.82 645.5 777.16 645.5 785.49 C645.5 793.82 645.5 802.16 645.5 810.49 C645.5 818.82 645.5 827.16 645.5 834.62 C645.5 842.09 645.5 848.69 645.5 851.98 L645.5 855.28" fill="none" stroke="#333333" stroke-width="1.5" marker-end="url(#arrow-point)" />
    <path d="M871.5 760.49 L871.5 764.66 C871.5 768.82 871.5 777.16 871.5 785.49 C871.5 793.82 871.5 802.16 871.5 810.49 C871.5 818.82 871.5 827.16 871.5 834.3 C871.5 841.43 871.5 847.38 871.5 850.35 L871.5 853.32" fill="none" stroke="#333333" stroke-width="1.5" marker-end="url(#arrow-point)" />
    <path d="M1331.5 760.49 L1331.5 764.66 C1331.5 768.82 1331.5 777.16 1337.08 785.49 C1342.67 793.82 1353.83 802.16 1359.42 810.49 C1365 818.82 1365 827.16 1365 835.04 C1365 842.92 1365 850.36 1365 854.08 L1365 857.79" fill="none" stroke="#333333" stroke-width="1.5" marker-end="url(#arrow-point)" />
    <path d="M1101.5 760.49 L1101.5 764.66 C1101.5 768.82 1101.5 777.16 1101.5 785.49 C1101.5 793.82 1101.5 802.16 1101.5 810.49 C1101.5 818.82 1101.5 827.16 1101.5 834.62 C1101.5 842.09 1101.5 848.69 1101.5 851.98 L1101.5 855.28" fill="none" stroke="#333333" stroke-width="1.5" marker-end="url(#arrow-point)" />
    <path d="M645.5 926.36 L645.5 929.66 C645.5 932.96 645.5 939.56 645.5 947.03 C645.5 954.49 645.5 962.83 693.67 972.78 C741.83 982.74 838.17 994.32 886.33 1000.12 L934.5 1005.91" fill="none" stroke="#333333" stroke-width="1.5" marker-end="url(#arrow-point)" />
    <path d="M871.5 928.33 L871.5 931.3 C871.5 934.27 871.5 940.21 871.5 947.35 C871.5 954.49 871.5 962.83 883.19 971.16 C894.87 979.49 918.25 987.83 929.93 991.99 L941.62 996.16" fill="none" stroke="#333333" stroke-width="1.5" marker-end="url(#arrow-point)" />
    <path d="M1101.5 926.36 L1101.5 929.66 C1101.5 932.96 1101.5 939.56 1101.5 947.03 C1101.5 954.49 1101.5 962.83 1089.81 971.16 C1078.13 979.49 1054.75 987.83 1043.07 991.99 L1031.38 996.16" fill="none" stroke="#333333" stroke-width="1.5" marker-end="url(#arrow-point)" />
    <path d="M1365 923.85 L1365 927.57 C1365 931.29 1365 938.72 1365 946.61 C1365 954.49 1365 962.83 1365 971.16 C1365 979.49 1365 987.83 1365 991.99 L1365 996.16" fill="none" stroke="#333333" stroke-width="1.5" marker-end="url(#arrow-point)" />
    <path d="M1765 760.49 L1765 764.66 C1765 768.82 1765 777.16 1765 785.49 C1765 793.82 1765 802.16 1765 810.49 C1765 818.82 1765 827.16 1770.86 837.88 C1776.73 848.6 1788.46 861.71 1794.32 868.27 L1800.19 874.82" fill="none" stroke="#333333" stroke-width="1.5" stroke-dasharray="3 3" marker-end="url(#arrow-point)" />
    <path d="M1038.5 1003.9 L1072.83 998.44 C1107.17 992.98 1175.83 982.07 1210.17 972.45 C1244.5 962.83 1244.5 954.49 1244.5 941.1 C1244.5 927.71 1244.5 909.27 1244.5 890.82 C1244.5 872.38 1244.5 853.93 1244.5 840.55 C1244.5 827.16 1244.5 818.82 1284.17 810.49 C1323.83 802.16 1403.17 793.82 1442.83 782.82 C1482.5 771.82 1482.5 758.16 1482.5 744.49 C1482.5 730.82 1482.5 717.16 1482.5 706.16 C1482.5 695.16 1482.5 686.82 1482.5 675.82 C1482.5 664.82 1482.5 651.16 1482.5 637.49 C1482.5 623.82 1482.5 610.16 1482.5 599.16 C1482.5 588.16 1482.5 579.82 1482.5 571.49 C1482.5 563.16 1482.5 554.82 1482.5 541.78 C1482.5 528.74 1482.5 510.99 1482.5 493.24 C1482.5 475.5 1482.5 457.75 1482.5 442.04 C1482.5 426.33 1482.5 412.67 1482.5 397.67 C1482.5 382.67 1482.5 366.33 1482.5 342 C1482.5 317.67 1482.5 285.33 1482.5 254.33 C1482.5 223.33 1482.5 193.67 1482.5 172 C1482.5 150.33 1482.5 136.67 1482.5 123 C1482.5 109.33 1482.5 95.67 1493.33 84.6 C1504.17 73.54 1525.83 65.08 1536.67 60.85 L1547.5 56.62" fill="none" stroke="#333333" stroke-width="1.5" marker-end="url(#arrow-point)" />
    <path d="M1595 728.49 L1595 724.32 C1595 720.16 1595 711.82 1595 703.49 C1595 695.16 1595 686.82 1595 675.82 C1595 664.82 1595 651.16 1595 637.49 C1595 623.82 1595 610.16 1595 599.16 C1595 588.16 1595 579.82 1595 571.49 C1595 563.16 1595 554.82 1595 541.78 C1595 528.74 1595 510.99 1595 493.24 C1595 475.5 1595 457.75 1612.28 444.71 C1629.55 431.67 1664.11 423.33 1681.38 419.17 L1698.66 415" fill="none" stroke="#333333" stroke-width="1.5" stroke-dasharray="3 3" marker-end="url(#arrow-point)" />
    <path d="M1765 728.49 L1765 724.32 C1765 720.16 1765 711.82 1765 703.49 C1765 695.16 1765 686.82 1765 675.82 C1765 664.82 1765 651.16 1765 637.49 C1765 623.82 1765 610.16 1765 599.16 C1765 588.16 1765 579.82 1765 571.49 C1765 563.16 1765 554.82 1765 541.78 C1765 528.74 1765 510.99 1765 493.24 C1765 475.5 1765 457.75 1765 444.71 C1765 431.67 1765 423.33 1765 419.17 L1765 415" fill="none" stroke="#333333" stroke-width="1.5" stroke-dasharray="3 3" marker-end="url(#arrow-point)" />
    <path d="M1828.81 874.82 L1834.68 868.27 C1840.54 861.71 1852.27 848.6 1858.14 837.88 C1864 827.16 1864 818.82 1864 810.49 C1864 802.16 1864 793.82 1864 782.82 C1864 771.82 1864 758.16 1864 744.49 C1864 730.82 1864 717.16 1864 706.16 C1864 695.16 1864 686.82 1864 675.82 C1864 664.82 1864 651.16 1864 637.49 C1864 623.82 1864 610.16 1864 599.16 C1864 588.16 1864 579.82 1864 571.49 C1864 563.16 1864 554.82 1864 541.78 C1864 528.74 1864 510.99 1864 493.24 C1864 475.5 1864 457.75 1853.94 444.71 C1843.88 431.67 1823.76 423.33 1813.7 419.17 L1803.63 415" fill="none" stroke="#333333" stroke-width="1.5" stroke-dasharray="3 3" marker-end="url(#arrow-point)" />
    <path d="M1792.25 216.25 L1798.71 207.54 C1805.17 198.83 1818.08 181.42 1824.54 165.88 C1831 150.33 1831 136.67 1831 123 C1831 109.33 1831 95.67 1797.08 83.12 C1763.17 70.58 1695.33 59.16 1661.42 53.45 L1627.5 47.74" fill="none" stroke="#333333" stroke-width="1.5" marker-end="url(#arrow-point)" />
    <text x="1831" y="123" text-anchor="middle" dominant-baseline="central" font-size="12px" font-family="'Intel One Mono', 'SF Mono', 'Cascadia Code', 'JetBrains Mono', 'Fira Code', 'Consolas', 'Menlo', monospace" fill="#333333">invalid</text>
  </g>
</svg>
