<svg xmlns="http://www.w3.org/2000/svg" viewBox="0 0 1854.5 1687.07" width="1854.5" height="1687.07">
  <defs>
    <marker id="arrow-point" viewBox="0 0 10 10" refX="9" refY="5" markerWidth="6" markerHeight="6" orient="auto-start-reverse">
      <path d="M0 0 L10 5 L0 10 Z" fill="#333" />
    </marker>
  </defs>
  <g transform="translate(20, 20)">
    <rect x="91.5" y="0" width="522" height="82" rx="5" ry="5" fill="#ececec" stroke="#333333" stroke-width="1" />
    <text x="99.5" y="12" text-anchor="start" dominant-baseline="central" font-size="13px" font-family="'Intel One Mono', 'SF Mono', 'Cascadia Code', 'JetBrains Mono', 'Fira Code', 'Consolas', 'Menlo', monospace" fill="#333333" font-weight="bold">Frontend</text>
    <rect x="156" y="132" width="480" height="375" rx="5" ry="5" fill="#ececec" stroke="#333333" stroke-width="1" />
    <text x="164" y="144" text-anchor="start" dominant-baseline="central" font-size="13px" font-family="'Intel One Mono', 'SF Mono', 'Cascadia Code', 'JetBrains Mono', 'Fira Code', 'Consolas', 'Menlo', monospace" fill="#333333" font-weight="bold">Edge</text>
    <rect x="-21" y="557" width="785.5" height="164" rx="5" ry="5" fill="#ececec" stroke="#333333" stroke-width="1" />
    <text x="-13" y="569" text-anchor="start" dominant-baseline="central" font-size="13px" font-family="'Intel One Mono', 'SF Mono', 'Cascadia Code', 'JetBrains Mono', 'Fira Code', 'Consolas', 'Menlo', monospace" fill="#333333" font-weight="bold">API Layer</text>
    <rect x="-1" y="771" width="911" height="876.07" rx="5" ry="5" fill="#ececec" stroke="#333333" stroke-width="1" />
    <text x="7" y="783" text-anchor="start" dominant-baseline="central" font-size="13px" font-family="'Intel One Mono', 'SF Mono', 'Cascadia Code', 'JetBrains Mono', 'Fira Code', 'Consolas', 'Menlo', monospace" fill="#333333" font-weight="bold">Core Services</text>
    <rect x="20" y="796" width="416" height="190.05" rx="5" ry="5" fill="#ececec" stroke="#333333" stroke-width="1" />
    <text x="28" y="808" text-anchor="start" dominant-baseline="central" font-size="13px" font-family="'Intel One Mono', 'SF Mono', 'Cascadia Code', 'JetBrains Mono', 'Fira Code', 'Consolas', 'Menlo', monospace" fill="#333333" font-weight="bold">Catalog</text>
    <rect x="454" y="796" width="435" height="343.77" rx="5" ry="5" fill="#ececec" stroke="#333333" stroke-width="1" />
    <text x="462" y="808" text-anchor="start" dominant-baseline="central" font-size="13px" font-family="'Intel One Mono', 'SF Mono', 'Cascadia Code', 'JetBrains Mono', 'Fira Code', 'Consolas', 'Menlo', monospace" fill="#333333" font-weight="bold">Ordering</text>
    <rect x="233.5" y="1432.77" width="448" height="189.3" rx="5" ry="5" fill="#ececec" stroke="#333333" stroke-width="1" />
    <text x="241.5" y="1444.77" text-anchor="start" dominant-baseline="central" font-size="13px" font-family="'Intel One Mono', 'SF Mono', 'Cascadia Code', 'JetBrains Mono', 'Fira Code', 'Consolas', 'Menlo', monospace" fill="#333333" font-weight="bold">Fulfillment</text>
    <rect x="931.5" y="1036.05" width="309.5" height="611.02" rx="5" ry="5" fill="#ececec" stroke="#333333" stroke-width="1" />
    <text x="939.5" y="1048.05" text-anchor="start" dominant-baseline="central" font-size="13px" font-family="'Intel One Mono', 'SF Mono', 'Cascadia Code', 'JetBrains Mono', 'Fira Code', 'Consolas', 'Menlo', monospace" fill="#333333" font-weight="bold">Payments</text>
    <rect x="1267.5" y="1189.77" width="547" height="457.3" rx="5" ry="5" fill="#ececec" stroke="#333333" stroke-width="1" />
    <text x="1275.5" y="1201.77" text-anchor="start" dominant-baseline="central" font-size="13px" font-family="'Intel One Mono', 'SF Mono', 'Cascadia Code', 'JetBrains Mono', 'Fira Code', 'Consolas', 'Menlo', monospace" fill="#333333" font-weight="bold">Async</text>
    <rect x="304.5" y="25" width="104" height="32" fill="#ffffff" stroke="#333333" stroke-width="1.5" />
    <text x="356.5" y="41" text-anchor="middle" dominant-baseline="central" font-size="14px" font-family="'Intel One Mono', 'SF Mono', 'Cascadia Code', 'JetBrains Mono', 'Fira Code', 'Consolas', 'Menlo', monospace" fill="#333333">React SPA</text>
    <rect x="458.5" y="25" width="120" height="32" fill="#ffffff" stroke="#333333" stroke-width="1.5" />
    <text x="518.5" y="41" text-anchor="middle" dominant-baseline="central" font-size="14px" font-family="'Intel One Mono', 'SF Mono', 'Cascadia Code', 'JetBrains Mono', 'Fira Code', 'Consolas', 'Menlo', monospace" fill="#333333">Admin Panel</text>
    <rect x="126.5" y="25" width="128" height="32" fill="#ffffff" stroke="#333333" stroke-width="1.5" />
    <text x="190.5" y="41" text-anchor="middle" dominant-baseline="central" font-size="14px" font-family="'Intel One Mono', 'SF Mono', 'Cascadia Code', 'JetBrains Mono', 'Fira Code', 'Consolas', 'Menlo', monospace" fill="#333333">React Native</text>
    <rect x="365.5" y="157" width="144" height="32" fill="#ffffff" stroke="#333333" stroke-width="1.5" />
    <text x="437.5" y="173" text-anchor="middle" dominant-baseline="central" font-size="14px" font-family="'Intel One Mono', 'SF Mono', 'Cascadia Code', 'JetBrains Mono', 'Fira Code', 'Consolas', 'Menlo', monospace" fill="#333333">CloudFront CDN</text>
    <polygon points="437.5,239 505.5,307 437.5,375 369.5,307" fill="#ffffff" stroke="#333333" stroke-width="1.5" />
    <text x="437.5" y="307" text-anchor="middle" dominant-baseline="central" font-size="14px" font-family="'Intel One Mono', 'SF Mono', 'Cascadia Code', 'JetBrains Mono', 'Fira Code', 'Consolas', 'Menlo', monospace" fill="#333333">WAF Rules</text>
    <rect x="282.5" y="450" width="144" height="32" fill="#ffffff" stroke="#333333" stroke-width="1.5" />
    <text x="354.5" y="466" text-anchor="middle" dominant-baseline="central" font-size="14px" font-family="'Intel One Mono', 'SF Mono', 'Cascadia Code', 'JetBrains Mono', 'Fira Code', 'Consolas', 'Menlo', monospace" fill="#333333">Application LB</text>
    <rect x="294.5" y="582" width="120" height="32" fill="#ffffff" stroke="#333333" stroke-width="1.5" />
    <text x="354.5" y="598" text-anchor="middle" dominant-baseline="central" font-size="14px" font-family="'Intel One Mono', 'SF Mono', 'Cascadia Code', 'JetBrains Mono', 'Fira Code', 'Consolas', 'Menlo', monospace" fill="#333333">API Gateway</text>
    <rect x="67.5" y="664" width="136" height="32" fill="#ffffff" stroke="#333333" stroke-width="1.5" />
    <text x="135.5" y="680" text-anchor="middle" dominant-baseline="central" font-size="14px" font-family="'Intel One Mono', 'SF Mono', 'Cascadia Code', 'JetBrains Mono', 'Fira Code', 'Consolas', 'Menlo', monospace" fill="#333333">Authorization</text>
    <rect x="548" y="664" width="128" height="32" fill="#ffffff" stroke="#333333" stroke-width="1.5" />
    <text x="612" y="680" text-anchor="middle" dominant-baseline="central" font-size="14px" font-family="'Intel One Mono', 'SF Mono', 'Cascadia Code', 'JetBrains Mono', 'Fira Code', 'Consolas', 'Menlo', monospace" fill="#333333">Rate Limiter</text>
    <rect x="55" y="821" width="152" height="32" fill="#ffffff" stroke="#333333" stroke-width="1.5" />
    <text x="131" y="837" text-anchor="middle" dominant-baseline="central" font-size="14px" font-family="'Intel One Mono', 'SF Mono', 'Cascadia Code', 'JetBrains Mono', 'Fira Code', 'Consolas', 'Menlo', monospace" fill="#333333">Catalog Service</text>
    <rect x="257" y="821" width="144" height="32" fill="#ffffff" stroke="#333333" stroke-width="1.5" />
    <text x="329" y="837" text-anchor="middle" dominant-baseline="central" font-size="14px" font-family="'Intel One Mono', 'SF Mono', 'Cascadia Code', 'JetBrains Mono', 'Fira Code', 'Consolas', 'Menlo', monospace" fill="#333333">Search Service</text>
    <path d="M65 910.12 A56 11.81 0 0 1 177 910.12 A56 11.81 0 0 1 65 910.12 L65 953.93 A56 11.81 0 0 0 177 953.93 L177 910.12" fill="#ffffff" stroke="#333333" stroke-width="1.5" />
    <text x="121" y="937.93" text-anchor="middle" dominant-baseline="central" font-size="14px" font-family="'Intel One Mono', 'SF Mono', 'Cascadia Code', 'JetBrains Mono', 'Fira Code', 'Consolas', 'Menlo', monospace" fill="#333333">Catalog DB</text>
    <path d="M251 909.51 A68 13.03 0 0 1 387 909.51 A68 13.03 0 0 1 251 909.51 L251 954.54 A68 13.03 0 0 0 387 954.54 L387 909.51" fill="#ffffff" stroke="#333333" stroke-width="1.5" />
    <text x="319" y="938.54" text-anchor="middle" dominant-baseline="central" font-size="14px" font-family="'Intel One Mono', 'SF Mono', 'Cascadia Code', 'JetBrains Mono', 'Fira Code', 'Consolas', 'Menlo', monospace" fill="#333333">Elasticsearch</text>
    <rect x="554" y="916.03" width="136" height="32" fill="#ffffff" stroke="#333333" stroke-width="1.5" />
    <text x="622" y="932.03" text-anchor="middle" dominant-baseline="central" font-size="14px" font-family="'Intel One Mono', 'SF Mono', 'Cascadia Code', 'JetBrains Mono', 'Fira Code', 'Consolas', 'Menlo', monospace" fill="#333333">Order Service</text>
    <rect x="694.5" y="821" width="128" height="32" fill="#ffffff" stroke="#333333" stroke-width="1.5" />
    <text x="758.5" y="837" text-anchor="middle" dominant-baseline="central" font-size="14px" font-family="'Intel One Mono', 'SF Mono', 'Cascadia Code', 'JetBrains Mono', 'Fira Code', 'Consolas', 'Menlo', monospace" fill="#333333">Cart Service</text>
    <path d="M491 1066.48 A48 10.86 0 0 1 587 1066.48 A48 10.86 0 0 1 491 1066.48 L491 1109.34 A48 10.86 0 0 0 587 1109.34 L587 1066.48" fill="#ffffff" stroke="#333333" stroke-width="1.5" />
    <text x="539" y="1093.34" text-anchor="middle" dominant-baseline="central" font-size="14px" font-family="'Intel One Mono', 'SF Mono', 'Cascadia Code', 'JetBrains Mono', 'Fira Code', 'Consolas', 'Menlo', monospace" fill="#333333">Order DB</text>
    <path d="M740 910.12 A56 11.81 0 0 1 852 910.12 A56 11.81 0 0 1 740 910.12 L740 953.93 A56 11.81 0 0 0 852 953.93 L852 910.12" fill="#ffffff" stroke="#333333" stroke-width="1.5" />
    <text x="796" y="937.93" text-anchor="middle" dominant-baseline="central" font-size="14px" font-family="'Intel One Mono', 'SF Mono', 'Cascadia Code', 'JetBrains Mono', 'Fira Code', 'Consolas', 'Menlo', monospace" fill="#333333">Cart Cache</text>
    <rect x="268.5" y="1457.77" width="168" height="32" fill="#ffffff" stroke="#333333" stroke-width="1.5" />
    <text x="352.5" y="1473.77" text-anchor="middle" dominant-baseline="central" font-size="14px" font-family="'Intel One Mono', 'SF Mono', 'Cascadia Code', 'JetBrains Mono', 'Fira Code', 'Consolas', 'Menlo', monospace" fill="#333333">Inventory Service</text>
    <rect x="486.5" y="1457.77" width="160" height="32" fill="#ffffff" stroke="#333333" stroke-width="1.5" />
    <text x="566.5" y="1473.77" text-anchor="middle" dominant-baseline="central" font-size="14px" font-family="'Intel One Mono', 'SF Mono', 'Cascadia Code', 'JetBrains Mono', 'Fira Code', 'Consolas', 'Menlo', monospace" fill="#333333">Shipping Service</text>
    <path d="M395.5 1546.1 A64 12.65 0 0 1 523.5 1546.1 A64 12.65 0 0 1 395.5 1546.1 L395.5 1590.75 A64 12.65 0 0 0 523.5 1590.75 L523.5 1546.1" fill="#ffffff" stroke="#333333" stroke-width="1.5" />
    <text x="459.5" y="1574.75" text-anchor="middle" dominant-baseline="central" font-size="14px" font-family="'Intel One Mono', 'SF Mono', 'Cascadia Code', 'JetBrains Mono', 'Fira Code', 'Consolas', 'Menlo', monospace" fill="#333333">Warehouse DB</text>
    <rect x="997" y="1071.91" width="152" height="32" fill="#ffffff" stroke="#333333" stroke-width="1.5" />
    <text x="1073" y="1087.91" text-anchor="middle" dominant-baseline="central" font-size="14px" font-family="'Intel One Mono', 'SF Mono', 'Cascadia Code', 'JetBrains Mono', 'Fira Code', 'Consolas', 'Menlo', monospace" fill="#333333">Payment Service</text>
    <polygon points="1063,1214.77 1139,1290.77 1063,1366.77 987,1290.77" fill="#ffffff" stroke="#333333" stroke-width="1.5" />
    <text x="1063" y="1290.77" text-anchor="middle" dominant-baseline="central" font-size="14px" font-family="'Intel One Mono', 'SF Mono', 'Cascadia Code', 'JetBrains Mono', 'Fira Code', 'Consolas', 'Menlo', monospace" fill="#333333">Fraud Check</text>
    <path d="M1011 1546.74 A52 11.35 0 0 1 1115 1546.74 A52 11.35 0 0 1 1011 1546.74 L1011 1590.1 A52 11.35 0 0 0 1115 1590.1 L1115 1546.74" fill="#ffffff" stroke="#333333" stroke-width="1.5" />
    <text x="1063" y="1574.1" text-anchor="middle" dominant-baseline="central" font-size="14px" font-family="'Intel One Mono', 'SF Mono', 'Cascadia Code', 'JetBrains Mono', 'Fira Code', 'Consolas', 'Menlo', monospace" fill="#333333">Ledger DB</text>
    <rect x="1073.5" y="1457.77" width="112" height="32" fill="#ffffff" stroke="#333333" stroke-width="1.5" />
    <text x="1129.5" y="1473.77" text-anchor="middle" dominant-baseline="central" font-size="14px" font-family="'Intel One Mono', 'SF Mono', 'Cascadia Code', 'JetBrains Mono', 'Fira Code', 'Consolas', 'Menlo', monospace" fill="#333333">Stripe API</text>
    <rect x="1428" y="1274.77" width="152" height="32" fill="#ffffff" stroke="#333333" stroke-width="1.5" />
    <text x="1504" y="1290.77" text-anchor="middle" dominant-baseline="central" font-size="14px" font-family="'Intel One Mono', 'SF Mono', 'Cascadia Code', 'JetBrains Mono', 'Fira Code', 'Consolas', 'Menlo', monospace" fill="#333333">Kafka Event Bus</text>
    <rect x="1370.5" y="1457.77" width="192" height="32" fill="#ffffff" stroke="#333333" stroke-width="1.5" />
    <text x="1466.5" y="1473.77" text-anchor="middle" dominant-baseline="central" font-size="14px" font-family="'Intel One Mono', 'SF Mono', 'Cascadia Code', 'JetBrains Mono', 'Fira Code', 'Consolas', 'Menlo', monospace" fill="#333333">Notification Service</text>
    <rect x="1612.5" y="1457.77" width="160" height="32" fill="#ffffff" stroke="#333333" stroke-width="1.5" />
    <text x="1692.5" y="1473.77" text-anchor="middle" dominant-baseline="central" font-size="14px" font-family="'Intel One Mono', 'SF Mono', 'Cascadia Code', 'JetBrains Mono', 'Fira Code', 'Consolas', 'Menlo', monospace" fill="#333333">Analytics Ingest</text>
    <rect x="1309.5" y="1552.42" width="136" height="32" fill="#ffffff" stroke="#333333" stroke-width="1.5" />
    <text x="1377.5" y="1568.42" text-anchor="middle" dominant-baseline="central" font-size="14px" font-family="'Intel One Mono', 'SF Mono', 'Cascadia Code', 'JetBrains Mono', 'Fira Code', 'Consolas', 'Menlo', monospace" fill="#333333">Email Service</text>
    <rect x="1529.5" y="1552.42" width="120" height="32" fill="#ffffff" stroke="#333333" stroke-width="1.5" />
    <text x="1589.5" y="1568.42" text-anchor="middle" dominant-baseline="central" font-size="14px" font-family="'Intel One Mono', 'SF Mono', 'Cascadia Code', 'JetBrains Mono', 'Fira Code', 'Consolas', 'Menlo', monospace" fill="#333333">SMS Service</text>
    <path d="M356.5 57 L356.5 61.17 C356.5 65.33 356.5 73.67 356.5 82 C356.5 90.33 356.5 98.67 356.5 107 C356.5 115.33 356.5 123.67 364.73 132 C372.96 140.33 389.43 148.67 397.66 152.83 L405.89 157" fill="none" stroke="#333333" stroke-width="1.5" marker-end="url(#arrow-point)" />
    <path d="M518.5 57 L518.5 61.17 C518.5 65.33 518.5 73.67 518.5 82 C518.5 90.33 518.5 98.67 518.5 107 C518.5 115.33 518.5 123.67 510.27 132 C502.04 140.33 485.57 148.67 477.34 152.83 L469.11 157" fill="none" stroke="#333333" stroke-width="1.5" marker-end="url(#arrow-point)" />
    <path d="M190.5 57 L190.5 61.17 C190.5 65.33 190.5 73.67 190.5 82 C190.5 90.33 190.5 98.67 190.5 107 C190.5 115.33 190.5 123.67 190.5 134.67 C190.5 145.67 190.5 159.33 190.5 173 C190.5 186.67 190.5 200.33 190.5 222.67 C190.5 245 190.5 276 190.5 307 C190.5 338 190.5 369 190.5 388.67 C190.5 408.33 190.5 416.67 207.17 425 C223.83 433.33 257.17 441.67 273.83 445.83 L290.5 450" fill="none" stroke="#333333" stroke-width="1.5" marker-end="url(#arrow-point)" />
    <path d="M437.5 189 L437.5 193.17 C437.5 197.33 437.5 205.67 437.5 214 C437.5 222.33 437.5 230.67 437.5 234.83 L437.5 239" fill="none" stroke="#333333" stroke-width="1.5" marker-end="url(#arrow-point)" />
    <path d="M437.5 375 L437.5 379.17 C437.5 383.33 437.5 391.67 437.5 400 C437.5 408.33 437.5 416.67 429.07 425 C420.63 433.33 403.76 441.67 395.33 445.83 L386.89 450" fill="none" stroke="#333333" stroke-width="1.5" marker-end="url(#arrow-point)" />
    <path d="M354.5 482 L354.5 486.17 C354.5 490.33 354.5 498.67 354.5 507 C354.5 515.33 354.5 523.67 354.5 532 C354.5 540.33 354.5 548.67 354.5 557 C354.5 565.33 354.5 573.67 354.5 577.83 L354.5 582" fill="none" stroke="#333333" stroke-width="1.5" marker-end="url(#arrow-point)" />
    <path d="M294.5 609.23 L268 614.19 C241.5 619.16 188.5 629.08 162 638.21 C135.5 647.33 135.5 655.67 135.5 659.83 L135.5 664" fill="none" stroke="#333333" stroke-width="1.5" marker-end="url(#arrow-point)" />
    <path d="M414.5 607.55 L447.42 612.79 C480.33 618.04 546.17 628.52 579.08 637.93 C612 647.33 612 655.67 612 659.83 L612 664" fill="none" stroke="#333333" stroke-width="1.5" marker-end="url(#arrow-point)" />
    <path d="M548 685.46 L478.5 691.38 C409 697.3 270 709.15 200.5 719.24 C131 729.33 131 737.67 131 746 C131 754.33 131 762.67 131 771 C131 779.33 131 787.67 131 796 C131 804.33 131 812.67 131 816.83 L131 821" fill="none" stroke="#333333" stroke-width="1.5" marker-end="url(#arrow-point)" />
    <path d="M612 696 L612 700.17 C612 704.33 612 712.67 612 721 C612 729.33 612 737.67 612 746 C612 754.33 612 762.67 612 771 C612 779.33 612 787.67 612 798.67 C612 809.67 612 823.33 612 837 C612 850.67 612 864.33 613.17 877.5 C614.35 890.68 616.69 903.35 617.87 909.69 L619.04 916.03" fill="none" stroke="#333333" stroke-width="1.5" marker-end="url(#arrow-point)" />
    <path d="M669.17 696 L684.06 700.17 C698.95 704.33 728.72 712.67 743.61 721 C758.5 729.33 758.5 737.67 758.5 746 C758.5 754.33 758.5 762.67 758.5 771 C758.5 779.33 758.5 787.67 758.5 796 C758.5 804.33 758.5 812.67 758.5 816.83 L758.5 821" fill="none" stroke="#333333" stroke-width="1.5" marker-end="url(#arrow-point)" />
    <path d="M127.1 853 L126.08 857.17 C125.07 861.33 123.03 869.67 122.02 877.22 C121 884.77 121 891.54 121 894.92 L121 898.31" fill="none" stroke="#333333" stroke-width="1.5" marker-end="url(#arrow-point)" />
    <path d="M165.73 853 L174.78 857.17 C183.82 861.33 201.91 869.67 216.6 876.91 C231.29 884.16 242.58 890.32 248.23 893.41 L253.88 896.49" fill="none" stroke="#333333" stroke-width="1.5" marker-end="url(#arrow-point)" />
    <path d="M329 853 L329 857.17 C329 861.33 329 869.67 328.43 876.91 C327.86 884.16 326.72 890.32 326.15 893.41 L325.58 896.49" fill="none" stroke="#333333" stroke-width="1.5" marker-end="url(#arrow-point)" />
    <path d="M597.42 948.03 L587.68 954.36 C577.95 960.7 558.47 973.38 548.74 983.88 C539 994.39 539 1002.72 539 1011.05 C539 1019.39 539 1027.72 539 1035.15 C539 1042.58 539 1049.1 539 1052.36 L539 1055.62" fill="none" stroke="#333333" stroke-width="1.5" marker-end="url(#arrow-point)" />
    <path d="M661.24 948.03 L676.78 954.36 C692.33 960.7 723.41 973.38 738.96 983.88 C754.5 994.39 754.5 1002.72 754.5 1011.05 C754.5 1019.39 754.5 1027.72 794.92 1038.47 C835.33 1049.22 916.17 1062.38 956.58 1068.96 L997 1075.54" fill="none" stroke="#333333" stroke-width="1.5" marker-end="url(#arrow-point)" />
    <path d="M773.13 853 L776.95 857.17 C780.76 861.33 788.38 869.67 792.19 877.22 C796 884.77 796 891.54 796 894.92 L796 898.31" fill="none" stroke="#333333" stroke-width="1.5" marker-end="url(#arrow-point)" />
    <path d="M724.55 853 L715.71 857.17 C706.87 861.33 689.18 869.67 674.53 880.17 C659.89 890.68 648.27 903.35 642.47 909.69 L636.66 916.03" fill="none" stroke="#333333" stroke-width="1.5" stroke-dasharray="3 3" marker-end="url(#arrow-point)" />
    <path d="M1069.91 1103.91 L1068.76 1109.89 C1067.61 1115.87 1065.3 1127.82 1064.15 1137.96 C1063 1148.11 1063 1156.44 1063 1164.77 C1063 1173.11 1063 1181.44 1063 1189.77 C1063 1198.11 1063 1206.44 1063 1210.61 L1063 1214.77" fill="none" stroke="#333333" stroke-width="1.5" marker-end="url(#arrow-point)" />
    <path d="M1091.8 1337.98 L1098.08 1348.27 C1104.37 1358.57 1116.93 1379.17 1123.22 1394.97 C1129.5 1410.77 1129.5 1421.77 1129.5 1431.44 C1129.5 1441.11 1129.5 1449.44 1129.5 1453.61 L1129.5 1457.77" fill="none" stroke="#333333" stroke-width="1.5" marker-end="url(#arrow-point)" />
    <text x="1129.5" y="1432.77" text-anchor="middle" dominant-baseline="central" font-size="12px" font-family="'Intel One Mono', 'SF Mono', 'Cascadia Code', 'JetBrains Mono', 'Fira Code', 'Consolas', 'Menlo', monospace" fill="#333333">Pass</text>
    <path d="M1034.2 1337.98 L1027.92 1348.27 C1021.63 1358.57 1009.07 1379.17 1002.78 1394.97 C996.5 1410.77 996.5 1421.77 996.5 1434.11 C996.5 1446.44 996.5 1460.11 996.5 1473.77 C996.5 1487.44 996.5 1501.11 1000.76 1511.38 C1005.02 1521.65 1013.54 1528.52 1017.8 1531.95 L1022.06 1535.39" fill="none" stroke="#333333" stroke-width="1.5" marker-end="url(#arrow-point)" />
    <text x="996.5" y="1473.77" text-anchor="middle" dominant-baseline="central" font-size="12px" font-family="'Intel One Mono', 'SF Mono', 'Cascadia Code', 'JetBrains Mono', 'Fira Code', 'Consolas', 'Menlo', monospace" fill="#333333">Fail</text>
    <path d="M1129.5 1489.77 L1129.5 1493.94 C1129.5 1498.11 1129.5 1506.44 1125.24 1514.04 C1120.98 1521.65 1112.46 1528.52 1108.2 1531.95 L1103.94 1535.39" fill="none" stroke="#333333" stroke-width="1.5" marker-end="url(#arrow-point)" />
    <path d="M622 948.03 L622 954.36 C622 960.7 622 973.38 622 983.88 C622 994.39 622 1002.72 622 1011.05 C622 1019.39 622 1027.72 622 1040.53 C622 1053.34 622 1070.63 622 1087.91 C622 1105.2 622 1122.49 622 1135.3 C622 1148.11 622 1156.44 622 1164.77 C622 1173.11 622 1181.44 756.33 1200.99 C890.67 1220.54 1159.33 1251.3 1293.67 1266.69 L1428 1282.07" fill="none" stroke="#333333" stroke-width="1.5" stroke-dasharray="3 3" marker-end="url(#arrow-point)" />
    <path d="M1104.47 1103.91 L1116.22 1109.89 C1127.98 1115.87 1151.49 1127.82 1163.24 1137.96 C1175 1148.11 1175 1156.44 1175 1164.77 C1175 1173.11 1175 1181.44 1221.15 1199.77 C1267.29 1218.11 1359.59 1246.44 1405.73 1260.61 L1451.88 1274.77" fill="none" stroke="#333333" stroke-width="1.5" stroke-dasharray="3 3" marker-end="url(#arrow-point)" />
    <path d="M1476.4 1306.77 L1449.67 1322.27 C1422.94 1337.77 1369.47 1368.77 1342.73 1389.77 C1316 1410.77 1316 1421.77 1169.42 1433.51 C1022.83 1445.25 729.67 1457.72 583.08 1463.96 L436.5 1470.2" fill="none" stroke="#333333" stroke-width="1.5" stroke-dasharray="3 3" marker-end="url(#arrow-point)" />
    <path d="M1479.34 1306.77 L1455.45 1322.27 C1431.56 1337.77 1383.78 1368.77 1359.89 1389.77 C1336 1410.77 1336 1421.77 1221.08 1433.4 C1106.17 1445.02 876.33 1457.26 761.42 1463.39 L646.5 1469.51" fill="none" stroke="#333333" stroke-width="1.5" stroke-dasharray="3 3" marker-end="url(#arrow-point)" />
    <path d="M1498.5 1306.77 L1493.16 1322.27 C1487.83 1337.77 1477.17 1368.77 1471.83 1389.77 C1466.5 1410.77 1466.5 1421.77 1466.5 1431.44 C1466.5 1441.11 1466.5 1449.44 1466.5 1453.61 L1466.5 1457.77" fill="none" stroke="#333333" stroke-width="1.5" stroke-dasharray="3 3" marker-end="url(#arrow-point)" />
    <path d="M1531.67 1306.77 L1558.47 1322.27 C1585.28 1337.77 1638.89 1368.77 1665.69 1389.77 C1692.5 1410.77 1692.5 1421.77 1692.5 1431.44 C1692.5 1441.11 1692.5 1449.44 1692.5 1453.61 L1692.5 1457.77" fill="none" stroke="#333333" stroke-width="1.5" stroke-dasharray="3 3" marker-end="url(#arrow-point)" />
    <path d="M352.5 1489.77 L352.5 1493.94 C352.5 1498.11 352.5 1506.44 359.67 1514.2 C366.83 1521.96 381.17 1529.15 388.33 1532.74 L395.5 1536.33" fill="none" stroke="#333333" stroke-width="1.5" marker-end="url(#arrow-point)" />
    <path d="M566.5 1489.77 L566.5 1493.94 C566.5 1498.11 566.5 1506.44 559.33 1514.2 C552.17 1521.96 537.83 1529.15 530.67 1532.74 L523.5 1536.33" fill="none" stroke="#333333" stroke-width="1.5" marker-end="url(#arrow-point)" />
    <path d="M1431.77 1489.77 L1422.72 1493.94 C1413.68 1498.11 1395.59 1506.44 1386.54 1516.88 C1377.5 1527.32 1377.5 1539.87 1377.5 1546.15 L1377.5 1552.42" fill="none" stroke="#333333" stroke-width="1.5" marker-end="url(#arrow-point)" />
    <path d="M1514.5 1489.77 L1527 1493.94 C1539.5 1498.11 1564.5 1506.44 1577 1516.88 C1589.5 1527.32 1589.5 1539.87 1589.5 1546.15 L1589.5 1552.42" fill="none" stroke="#333333" stroke-width="1.5" marker-end="url(#arrow-point)" />
  </g>
</svg>
