<svg xmlns="http://www.w3.org/2000/svg" viewBox="0 0 2778 709.07" width="2778" height="709.07">
  <defs>
    <marker id="arrow-point" viewBox="0 0 10 10" refX="9" refY="5" markerWidth="6" markerHeight="6" orient="auto-start-reverse">
      <path d="M0 0 L10 5 L0 10 Z" fill="#333" />
    </marker>
  </defs>
  <g transform="translate(20, 20)">
    <rect x="0" y="155.5" width="194" height="285" rx="5" ry="5" fill="#ececec" stroke="#333333" stroke-width="1" />
    <text x="8" y="167.5" text-anchor="start" dominant-baseline="central" font-size="13px" font-family="'Intel One Mono', 'SF Mono', 'Cascadia Code', 'JetBrains Mono', 'Fira Code', 'Consolas', 'Menlo', monospace" fill="#333333" font-weight="bold">Content Ingestion</text>
    <rect x="244" y="96.5" width="606" height="430" rx="5" ry="5" fill="#ececec" stroke="#333333" stroke-width="1" />
    <text x="252" y="108.5" text-anchor="start" dominant-baseline="central" font-size="13px" font-family="'Intel One Mono', 'SF Mono', 'Cascadia Code', 'JetBrains Mono', 'Fira Code', 'Consolas', 'Menlo', monospace" fill="#333333" font-weight="bold">Transcoding</text>
    <rect x="932" y="0" width="420" height="601.57" rx="5" ry="5" fill="#ececec" stroke="#333333" stroke-width="1" />
    <text x="940" y="12" text-anchor="start" dominant-baseline="central" font-size="13px" font-family="'Intel One Mono', 'SF Mono', 'Cascadia Code', 'JetBrains Mono', 'Fira Code', 'Consolas', 'Menlo', monospace" fill="#333333" font-weight="bold">Storage</text>
    <rect x="1402" y="272" width="606" height="391.5" rx="5" ry="5" fill="#ececec" stroke="#333333" stroke-width="1" />
    <text x="1410" y="284" text-anchor="start" dominant-baseline="central" font-size="13px" font-family="'Intel One Mono', 'SF Mono', 'Cascadia Code', 'JetBrains Mono', 'Fira Code', 'Consolas', 'Menlo', monospace" fill="#333333" font-weight="bold">Delivery</text>
    <rect x="2058" y="128.07" width="194" height="541" rx="5" ry="5" fill="#ececec" stroke="#333333" stroke-width="1" />
    <text x="2066" y="140.07" text-anchor="start" dominant-baseline="central" font-size="13px" font-family="'Intel One Mono', 'SF Mono', 'Cascadia Code', 'JetBrains Mono', 'Fira Code', 'Consolas', 'Menlo', monospace" fill="#333333" font-weight="bold">Playback</text>
    <rect x="2302" y="0" width="436" height="612.52" rx="5" ry="5" fill="#ececec" stroke="#333333" stroke-width="1" />
    <text x="2310" y="12" text-anchor="start" dominant-baseline="central" font-size="13px" font-family="'Intel One Mono', 'SF Mono', 'Cascadia Code', 'JetBrains Mono', 'Fira Code', 'Consolas', 'Menlo', monospace" fill="#333333" font-weight="bold">Backend</text>
    <rect x="25" y="373.5" width="144" height="32" fill="#ffffff" stroke="#333333" stroke-width="1.5" />
    <text x="97" y="389.5" text-anchor="middle" dominant-baseline="central" font-size="14px" font-family="'Intel One Mono', 'SF Mono', 'Cascadia Code', 'JetBrains Mono', 'Fira Code', 'Consolas', 'Menlo', monospace" fill="#333333">Creator Upload</text>
    <rect x="33" y="291.5" width="128" height="32" fill="#ffffff" stroke="#333333" stroke-width="1.5" />
    <text x="97" y="307.5" text-anchor="middle" dominant-baseline="central" font-size="14px" font-family="'Intel One Mono', 'SF Mono', 'Cascadia Code', 'JetBrains Mono', 'Fira Code', 'Consolas', 'Menlo', monospace" fill="#333333">Live Encoder</text>
    <rect x="33" y="209.5" width="128" height="32" fill="#ffffff" stroke="#333333" stroke-width="1.5" />
    <text x="97" y="225.5" text-anchor="middle" dominant-baseline="central" font-size="14px" font-family="'Intel One Mono', 'SF Mono', 'Cascadia Code', 'JetBrains Mono', 'Fira Code', 'Consolas', 'Menlo', monospace" fill="#333333">Partner Feed</text>
    <rect x="269" y="291.5" width="152" height="32" fill="#ffffff" stroke="#333333" stroke-width="1.5" />
    <text x="345" y="307.5" text-anchor="middle" dominant-baseline="central" font-size="14px" font-family="'Intel One Mono', 'SF Mono', 'Cascadia Code', 'JetBrains Mono', 'Fira Code', 'Consolas', 'Menlo', monospace" fill="#333333">Transcode Queue</text>
    <rect x="471" y="445" width="152" height="32" fill="#ffffff" stroke="#333333" stroke-width="1.5" />
    <text x="547" y="461" text-anchor="middle" dominant-baseline="central" font-size="14px" font-family="'Intel One Mono', 'SF Mono', 'Cascadia Code', 'JetBrains Mono', 'Fira Code', 'Consolas', 'Menlo', monospace" fill="#333333">FFmpeg Worker 1</text>
    <rect x="471" y="348.5" width="152" height="32" fill="#ffffff" stroke="#333333" stroke-width="1.5" />
    <text x="547" y="364.5" text-anchor="middle" dominant-baseline="central" font-size="14px" font-family="'Intel One Mono', 'SF Mono', 'Cascadia Code', 'JetBrains Mono', 'Fira Code', 'Consolas', 'Menlo', monospace" fill="#333333">FFmpeg Worker 2</text>
    <rect x="471" y="243.5" width="152" height="32" fill="#ffffff" stroke="#333333" stroke-width="1.5" />
    <text x="547" y="259.5" text-anchor="middle" dominant-baseline="central" font-size="14px" font-family="'Intel One Mono', 'SF Mono', 'Cascadia Code', 'JetBrains Mono', 'Fira Code', 'Consolas', 'Menlo', monospace" fill="#333333">FFmpeg Worker 3</text>
    <polygon points="749,247.5 825,323.5 749,399.5 673,323.5" fill="#ffffff" stroke="#333333" stroke-width="1.5" />
    <text x="749" y="323.5" text-anchor="middle" dominant-baseline="central" font-size="14px" font-family="'Intel One Mono', 'SF Mono', 'Cascadia Code', 'JetBrains Mono', 'Fira Code', 'Consolas', 'Menlo', monospace" fill="#333333">Quality OK?</text>
    <rect x="1171" y="423.57" width="136" height="32" fill="#ffffff" stroke="#333333" stroke-width="1.5" />
    <text x="1239" y="439.57" text-anchor="middle" dominant-baseline="central" font-size="14px" font-family="'Intel One Mono', 'SF Mono', 'Cascadia Code', 'JetBrains Mono', 'Fira Code', 'Consolas', 'Menlo', monospace" fill="#333333">Origin Server</text>
    <rect x="957" y="307.5" width="144" height="32" fill="#ffffff" stroke="#333333" stroke-width="1.5" />
    <text x="1029" y="323.5" text-anchor="middle" dominant-baseline="central" font-size="14px" font-family="'Intel One Mono', 'SF Mono', 'Cascadia Code', 'JetBrains Mono', 'Fira Code', 'Consolas', 'Menlo', monospace" fill="#333333">S3 VOD Storage</text>
    <rect x="961" y="460.5" width="136" height="32" fill="#ffffff" stroke="#333333" stroke-width="1.5" />
    <text x="1029" y="476.5" text-anchor="middle" dominant-baseline="central" font-size="14px" font-family="'Intel One Mono', 'SF Mono', 'Cascadia Code', 'JetBrains Mono', 'Fira Code', 'Consolas', 'Menlo', monospace" fill="#333333">S3 Thumbnails</text>
    <rect x="1151" y="54" width="176" height="32" fill="#ffffff" stroke="#333333" stroke-width="1.5" />
    <text x="1239" y="70" text-anchor="middle" dominant-baseline="central" font-size="14px" font-family="'Intel One Mono', 'SF Mono', 'Cascadia Code', 'JetBrains Mono', 'Fira Code', 'Consolas', 'Menlo', monospace" fill="#333333">Manifest Generator</text>
    <rect x="1435" y="490" width="136" height="32" fill="#ffffff" stroke="#333333" stroke-width="1.5" />
    <text x="1503" y="506" text-anchor="middle" dominant-baseline="central" font-size="14px" font-family="'Intel One Mono', 'SF Mono', 'Cascadia Code', 'JetBrains Mono', 'Fira Code', 'Consolas', 'Menlo', monospace" fill="#333333">CDN Region US</text>
    <rect x="1435" y="408" width="136" height="32" fill="#ffffff" stroke="#333333" stroke-width="1.5" />
    <text x="1503" y="424" text-anchor="middle" dominant-baseline="central" font-size="14px" font-family="'Intel One Mono', 'SF Mono', 'Cascadia Code', 'JetBrains Mono', 'Fira Code', 'Consolas', 'Menlo', monospace" fill="#333333">CDN Region EU</text>
    <rect x="1427" y="326" width="152" height="32" fill="#ffffff" stroke="#333333" stroke-width="1.5" />
    <text x="1503" y="342" text-anchor="middle" dominant-baseline="central" font-size="14px" font-family="'Intel One Mono', 'SF Mono', 'Cascadia Code', 'JetBrains Mono', 'Fira Code', 'Consolas', 'Menlo', monospace" fill="#333333">CDN Region APAC</text>
    <rect x="1629" y="408" width="112" height="32" fill="#ffffff" stroke="#333333" stroke-width="1.5" />
    <text x="1685" y="424" text-anchor="middle" dominant-baseline="central" font-size="14px" font-family="'Intel One Mono', 'SF Mono', 'Cascadia Code', 'JetBrains Mono', 'Fira Code', 'Consolas', 'Menlo', monospace" fill="#333333">Edge Cache</text>
    <polygon points="1887,328 1983,424 1887,520 1791,424" fill="#ffffff" stroke="#333333" stroke-width="1.5" />
    <text x="1887" y="424" text-anchor="middle" dominant-baseline="central" font-size="14px" font-family="'Intel One Mono', 'SF Mono', 'Cascadia Code', 'JetBrains Mono', 'Fira Code', 'Consolas', 'Menlo', monospace" fill="#333333">Adaptive Bitrate</text>
    <rect x="2099" y="356.07" width="112" height="32" fill="#ffffff" stroke="#333333" stroke-width="1.5" />
    <text x="2155" y="372.07" text-anchor="middle" dominant-baseline="central" font-size="14px" font-family="'Intel One Mono', 'SF Mono', 'Cascadia Code', 'JetBrains Mono', 'Fira Code', 'Consolas', 'Menlo', monospace" fill="#333333">Web Player</text>
    <rect x="2099" y="438.07" width="112" height="32" fill="#ffffff" stroke="#333333" stroke-width="1.5" />
    <text x="2155" y="454.07" text-anchor="middle" dominant-baseline="central" font-size="14px" font-family="'Intel One Mono', 'SF Mono', 'Cascadia Code', 'JetBrains Mono', 'Fira Code', 'Consolas', 'Menlo', monospace" fill="#333333">iOS Player</text>
    <rect x="2083" y="520.07" width="144" height="32" fill="#ffffff" stroke="#333333" stroke-width="1.5" />
    <text x="2155" y="536.07" text-anchor="middle" dominant-baseline="central" font-size="14px" font-family="'Intel One Mono', 'SF Mono', 'Cascadia Code', 'JetBrains Mono', 'Fira Code', 'Consolas', 'Menlo', monospace" fill="#333333">Android Player</text>
    <rect x="2091" y="602.07" width="128" height="32" fill="#ffffff" stroke="#333333" stroke-width="1.5" />
    <text x="2155" y="618.07" text-anchor="middle" dominant-baseline="central" font-size="14px" font-family="'Intel One Mono', 'SF Mono', 'Cascadia Code', 'JetBrains Mono', 'Fira Code', 'Consolas', 'Menlo', monospace" fill="#333333">Smart TV App</text>
    <rect x="2363" y="274.07" width="128" height="32" fill="#ffffff" stroke="#333333" stroke-width="1.5" />
    <text x="2427" y="290.07" text-anchor="middle" dominant-baseline="central" font-size="14px" font-family="'Intel One Mono', 'SF Mono', 'Cascadia Code', 'JetBrains Mono', 'Fira Code', 'Consolas', 'Menlo', monospace" fill="#333333">Auth Service</text>
    <rect x="2351" y="99" width="152" height="32" fill="#ffffff" stroke="#333333" stroke-width="1.5" />
    <text x="2427" y="115" text-anchor="middle" dominant-baseline="central" font-size="14px" font-family="'Intel One Mono', 'SF Mono', 'Cascadia Code', 'JetBrains Mono', 'Fira Code', 'Consolas', 'Menlo', monospace" fill="#333333">Catalog Service</text>
    <rect x="2327" y="438.07" width="200" height="32" fill="#ffffff" stroke="#333333" stroke-width="1.5" />
    <text x="2427" y="454.07" text-anchor="middle" dominant-baseline="central" font-size="14px" font-family="'Intel One Mono', 'SF Mono', 'Cascadia Code', 'JetBrains Mono', 'Fira Code', 'Consolas', 'Menlo', monospace" fill="#333333">Recommendation Engine</text>
    <rect x="2331" y="192.07" width="192" height="32" fill="#ffffff" stroke="#333333" stroke-width="1.5" />
    <text x="2427" y="208.07" text-anchor="middle" dominant-baseline="central" font-size="14px" font-family="'Intel One Mono', 'SF Mono', 'Cascadia Code', 'JetBrains Mono', 'Fira Code', 'Consolas', 'Menlo', monospace" fill="#333333">Subscription Service</text>
    <rect x="2343" y="356.07" width="168" height="32" fill="#ffffff" stroke="#333333" stroke-width="1.5" />
    <text x="2427" y="372.07" text-anchor="middle" dominant-baseline="central" font-size="14px" font-family="'Intel One Mono', 'SF Mono', 'Cascadia Code', 'JetBrains Mono', 'Fira Code', 'Consolas', 'Menlo', monospace" fill="#333333">Analytics Service</text>
    <rect x="2355" y="532.49" width="144" height="32" fill="#ffffff" stroke="#333333" stroke-width="1.5" />
    <text x="2427" y="548.49" text-anchor="middle" dominant-baseline="central" font-size="14px" font-family="'Intel One Mono', 'SF Mono', 'Cascadia Code', 'JetBrains Mono', 'Fira Code', 'Consolas', 'Menlo', monospace" fill="#333333">Search Service</text>
    <path d="M2589 93.09 A56 11.81 0 0 1 2701 93.09 A56 11.81 0 0 1 2589 93.09 L2589 136.91 A56 11.81 0 0 0 2701 136.91 L2701 93.09" fill="#ffffff" stroke="#333333" stroke-width="1.5" />
    <text x="2645" y="120.91" text-anchor="middle" dominant-baseline="central" font-size="14px" font-family="'Intel One Mono', 'SF Mono', 'Cascadia Code', 'JetBrains Mono', 'Fira Code', 'Consolas', 'Menlo', monospace" fill="#333333">Catalog DB</text>
    <path d="M2601 227.91 A44 10.33 0 0 1 2689 227.91 A44 10.33 0 0 1 2601 227.91 L2601 270.24 A44 10.33 0 0 0 2689 270.24 L2689 227.91" fill="#ffffff" stroke="#333333" stroke-width="1.5" />
    <text x="2645" y="254.24" text-anchor="middle" dominant-baseline="central" font-size="14px" font-family="'Intel One Mono', 'SF Mono', 'Cascadia Code', 'JetBrains Mono', 'Fira Code', 'Consolas', 'Menlo', monospace" fill="#333333">User DB</text>
    <path d="M2589 391.16 A56 11.81 0 0 1 2701 391.16 A56 11.81 0 0 1 2589 391.16 L2589 434.98 A56 11.81 0 0 0 2701 434.98 L2701 391.16" fill="#ffffff" stroke="#333333" stroke-width="1.5" />
    <text x="2645" y="418.98" text-anchor="middle" dominant-baseline="central" font-size="14px" font-family="'Intel One Mono', 'SF Mono', 'Cascadia Code', 'JetBrains Mono', 'Fira Code', 'Consolas', 'Menlo', monospace" fill="#333333">ClickHouse</text>
    <path d="M2577 525.98 A68 13.03 0 0 1 2713 525.98 A68 13.03 0 0 1 2577 525.98 L2577 571.01 A68 13.03 0 0 0 2713 571.01 L2713 525.98" fill="#ffffff" stroke="#333333" stroke-width="1.5" />
    <text x="2645" y="555.01" text-anchor="middle" dominant-baseline="central" font-size="14px" font-family="'Intel One Mono', 'SF Mono', 'Cascadia Code', 'JetBrains Mono', 'Fira Code', 'Consolas', 'Menlo', monospace" fill="#333333">Elasticsearch</text>
    <path d="M169 389.5 L173.17 389.5 C177.33 389.5 185.67 389.5 194 389.5 C202.33 389.5 210.67 389.5 219 389.5 C227.33 389.5 235.67 389.5 253.38 378.5 C271.1 367.5 298.2 345.5 311.74 334.5 L325.29 323.5" fill="none" stroke="#333333" stroke-width="1.5" marker-end="url(#arrow-point)" />
    <path d="M161 307.5 L166.5 307.5 C172 307.5 183 307.5 192.67 307.5 C202.33 307.5 210.67 307.5 219 307.5 C227.33 307.5 235.67 307.5 244 307.5 C252.33 307.5 260.67 307.5 264.83 307.5 L269 307.5" fill="none" stroke="#333333" stroke-width="1.5" marker-end="url(#arrow-point)" />
    <path d="M161 225.5 L166.5 225.5 C172 225.5 183 225.5 192.67 225.5 C202.33 225.5 210.67 225.5 219 225.5 C227.33 225.5 235.67 225.5 253.38 236.5 C271.1 247.5 298.2 269.5 311.74 280.5 L325.29 291.5" fill="none" stroke="#333333" stroke-width="1.5" marker-end="url(#arrow-point)" />
    <path d="M355.53 323.5 L370.61 346.42 C385.69 369.33 415.84 415.17 435.09 438.08 C454.33 461 462.67 461 466.83 461 L471 461" fill="none" stroke="#333333" stroke-width="1.5" marker-end="url(#arrow-point)" />
    <path d="M373.35 323.5 L385.46 330.33 C397.57 337.17 421.78 350.83 438.06 357.67 C454.33 364.5 462.67 364.5 466.83 364.5 L471 364.5" fill="none" stroke="#333333" stroke-width="1.5" marker-end="url(#arrow-point)" />
    <path d="M378.67 291.5 L389.89 286.17 C401.11 280.83 423.56 270.17 438.94 264.83 C454.33 259.5 462.67 259.5 466.83 259.5 L471 259.5" fill="none" stroke="#333333" stroke-width="1.5" marker-end="url(#arrow-point)" />
    <path d="M582.52 445 L593.43 440.08 C604.34 435.17 626.17 425.33 647.29 411.12 C668.41 396.91 688.82 378.32 699.02 369.02 L709.23 359.73" fill="none" stroke="#333333" stroke-width="1.5" marker-end="url(#arrow-point)" />
    <path d="M623 364.5 L627.17 364.5 C631.33 364.5 639.67 364.5 651.66 361.32 C663.65 358.15 679.3 351.8 687.12 348.62 L694.94 345.44" fill="none" stroke="#333333" stroke-width="1.5" marker-end="url(#arrow-point)" />
    <path d="M623 259.5 L627.17 259.5 C631.33 259.5 639.67 259.5 652.91 265.25 C666.16 271.01 684.32 282.51 693.4 288.27 L702.48 294.02" fill="none" stroke="#333333" stroke-width="1.5" marker-end="url(#arrow-point)" />
    <path d="M825 323.5 L829.17 323.5 C833.33 323.5 841.67 323.5 852.67 323.5 C863.67 323.5 877.33 323.5 891 323.5 C904.67 323.5 918.33 323.5 929.33 323.5 C940.33 323.5 948.67 323.5 952.83 323.5 L957 323.5" fill="none" stroke="#333333" stroke-width="1.5" marker-end="url(#arrow-point)" />
    <text x="891" y="323.5" text-anchor="middle" dominant-baseline="central" font-size="12px" font-family="'Intel One Mono', 'SF Mono', 'Cascadia Code', 'JetBrains Mono', 'Fira Code', 'Consolas', 'Menlo', monospace" fill="#333333">pass</text>
    <path d="M1042.37 339.5 L1056.31 356.18 C1070.25 372.86 1098.12 406.21 1119.56 422.89 C1141 439.57 1156 439.57 1163.5 439.57 L1171 439.57" fill="none" stroke="#333333" stroke-width="1.5" marker-end="url(#arrow-point)" />
    <path d="M1035.12 307.5 L1050.27 267.92 C1065.41 228.33 1095.71 149.17 1115.02 109.58 C1134.33 70 1142.67 70 1146.83 70 L1151 70" fill="none" stroke="#333333" stroke-width="1.5" marker-end="url(#arrow-point)" />
    <path d="M623 472.66 L627.17 473.3 C631.33 473.94 639.67 475.22 660.67 475.86 C681.67 476.5 715.33 476.5 749 476.5 C782.67 476.5 816.33 476.5 840 476.5 C863.67 476.5 877.33 476.5 891 476.5 C904.67 476.5 918.33 476.5 930 476.5 C941.67 476.5 951.33 476.5 956.17 476.5 L961 476.5" fill="none" stroke="#333333" stroke-width="1.5" marker-end="url(#arrow-point)" />
    <path d="M1266.22 455.57 L1280.51 463.98 C1294.81 472.38 1323.41 489.19 1341.87 497.6 C1360.33 506 1368.67 506 1377 506 C1385.33 506 1393.67 506 1403.33 506 C1413 506 1424 506 1429.5 506 L1435 506" fill="none" stroke="#333333" stroke-width="1.5" marker-end="url(#arrow-point)" />
    <path d="M1307 430.2 L1314.5 429.17 C1322 428.13 1337 426.07 1348.67 425.03 C1360.33 424 1368.67 424 1377 424 C1385.33 424 1393.67 424 1403.33 424 C1413 424 1424 424 1429.5 424 L1435 424" fill="none" stroke="#333333" stroke-width="1.5" marker-end="url(#arrow-point)" />
    <path d="M1257.53 423.57 L1273.28 409.98 C1289.02 396.38 1320.51 369.19 1340.42 355.6 C1360.33 342 1368.67 342 1377 342 C1385.33 342 1393.67 342 1402 342 C1410.33 342 1418.67 342 1422.83 342 L1427 342" fill="none" stroke="#333333" stroke-width="1.5" marker-end="url(#arrow-point)" />
    <path d="M1571 506 L1576.5 506 C1582 506 1593 506 1609.37 495 C1625.73 484 1647.46 462 1658.33 451 L1669.2 440" fill="none" stroke="#333333" stroke-width="1.5" marker-end="url(#arrow-point)" />
    <path d="M1571 424 L1576.5 424 C1582 424 1593 424 1602.67 424 C1612.33 424 1620.67 424 1624.83 424 L1629 424" fill="none" stroke="#333333" stroke-width="1.5" marker-end="url(#arrow-point)" />
    <path d="M1579 342 L1583.17 342 C1587.33 342 1595.67 342 1610.7 353 C1625.73 364 1647.46 386 1658.33 397 L1669.2 408" fill="none" stroke="#333333" stroke-width="1.5" marker-end="url(#arrow-point)" />
    <path d="M1741 424 L1745.17 424 C1749.33 424 1757.67 424 1766 424 C1774.33 424 1782.67 424 1786.83 424 L1791 424" fill="none" stroke="#333333" stroke-width="1.5" marker-end="url(#arrow-point)" />
    <path d="M1954.17 395.17 L1963.14 391.32 C1972.11 387.47 1990.06 379.77 2003.2 375.92 C2016.33 372.07 2024.67 372.07 2033 372.07 C2041.33 372.07 2049.67 372.07 2060.67 372.07 C2071.67 372.07 2085.33 372.07 2092.17 372.07 L2099 372.07" fill="none" stroke="#333333" stroke-width="1.5" marker-end="url(#arrow-point)" />
    <path d="M1963.89 443.11 L1971.24 444.94 C1978.59 446.76 1993.3 450.42 2004.82 452.24 C2016.33 454.07 2024.67 454.07 2033 454.07 C2041.33 454.07 2049.67 454.07 2060.67 454.07 C2071.67 454.07 2085.33 454.07 2092.17 454.07 L2099 454.07" fill="none" stroke="#333333" stroke-width="1.5" marker-end="url(#arrow-point)" />
    <path d="M1936.84 470.16 L1948.7 481.15 C1960.56 492.13 1984.28 514.1 2000.31 525.09 C2016.33 536.07 2024.67 536.07 2033 536.07 C2041.33 536.07 2049.67 536.07 2058 536.07 C2066.33 536.07 2074.67 536.07 2078.83 536.07 L2083 536.07" fill="none" stroke="#333333" stroke-width="1.5" marker-end="url(#arrow-point)" />
    <path d="M1923.87 483.13 L1937.89 505.62 C1951.91 528.11 1979.96 573.09 1998.14 595.58 C2016.33 618.07 2024.67 618.07 2033 618.07 C2041.33 618.07 2049.67 618.07 2059.33 618.07 C2069 618.07 2080 618.07 2085.5 618.07 L2091 618.07" fill="none" stroke="#333333" stroke-width="1.5" marker-end="url(#arrow-point)" />
    <path d="M2173.93 356.07 L2186.94 345.07 C2199.95 334.07 2225.98 312.07 2243.15 301.07 C2260.33 290.07 2268.67 290.07 2277 290.07 C2285.33 290.07 2293.67 290.07 2308 290.07 C2322.33 290.07 2342.67 290.07 2352.83 290.07 L2363 290.07" fill="none" stroke="#333333" stroke-width="1.5" marker-end="url(#arrow-point)" />
    <path d="M2163.92 356.07 L2178.6 329.74 C2193.28 303.4 2222.64 250.74 2241.49 224.4 C2260.33 198.07 2268.67 198.07 2277 198.07 C2285.33 198.07 2293.67 198.07 2314.65 186.89 C2335.64 175.71 2369.28 153.36 2386.1 142.18 L2402.92 131" fill="none" stroke="#333333" stroke-width="1.5" marker-end="url(#arrow-point)" />
    <path d="M2173.93 388.07 L2186.94 399.07 C2199.95 410.07 2225.98 432.07 2243.15 443.07 C2260.33 454.07 2268.67 454.07 2277 454.07 C2285.33 454.07 2293.67 454.07 2302 454.07 C2310.33 454.07 2318.67 454.07 2322.83 454.07 L2327 454.07" fill="none" stroke="#333333" stroke-width="1.5" marker-end="url(#arrow-point)" />
    <path d="M2163.8 388.07 L2178.5 414.81 C2193.2 441.55 2222.6 495.02 2241.47 521.76 C2260.33 548.49 2268.67 548.49 2277 548.49 C2285.33 548.49 2293.67 548.49 2306.67 548.49 C2319.67 548.49 2337.33 548.49 2346.17 548.49 L2355 548.49" fill="none" stroke="#333333" stroke-width="1.5" marker-end="url(#arrow-point)" />
    <path d="M2491 290.07 L2501.17 290.07 C2511.33 290.07 2531.67 290.07 2550 286.47 C2568.33 282.87 2584.67 275.67 2592.83 272.07 L2601 268.47" fill="none" stroke="#333333" stroke-width="1.5" marker-end="url(#arrow-point)" />
    <path d="M2503 115 L2511.17 115 C2519.33 115 2535.67 115 2550 115 C2564.33 115 2576.67 115 2582.83 115 L2589 115" fill="none" stroke="#333333" stroke-width="1.5" marker-end="url(#arrow-point)" />
    <path d="M2527 454.07 L2531.17 454.07 C2535.33 454.07 2543.67 454.07 2554 451.35 C2564.33 448.63 2576.67 443.2 2582.83 440.48 L2589 437.76" fill="none" stroke="#333333" stroke-width="1.5" marker-end="url(#arrow-point)" />
    <path d="M2523 208.07 L2527.83 208.07 C2532.67 208.07 2542.33 208.07 2555.33 211.67 C2568.33 215.27 2584.67 222.47 2592.83 226.07 L2601 229.67" fill="none" stroke="#333333" stroke-width="1.5" marker-end="url(#arrow-point)" />
    <path d="M2499 548.49 L2507.83 548.49 C2516.67 548.49 2534.33 548.49 2547.33 548.49 C2560.33 548.49 2568.67 548.49 2572.83 548.49 L2577 548.49" fill="none" stroke="#333333" stroke-width="1.5" marker-end="url(#arrow-point)" />
    <path d="M2211 372.07 L2217.83 372.07 C2224.67 372.07 2238.33 372.07 2249.33 372.07 C2260.33 372.07 2268.67 372.07 2277 372.07 C2285.33 372.07 2293.67 372.07 2304.67 372.07 C2315.67 372.07 2329.33 372.07 2336.17 372.07 L2343 372.07" fill="none" stroke="#333333" stroke-width="1.5" stroke-dasharray="3 3" marker-end="url(#arrow-point)" />
    <path d="M2511 372.07 L2517.83 372.07 C2524.67 372.07 2538.33 372.07 2551.33 374.79 C2564.33 377.51 2576.67 382.95 2582.83 385.66 L2589 388.38" fill="none" stroke="#333333" stroke-width="1.5" marker-end="url(#arrow-point)" />
    <path d="M1327 70 L1331.17 70 C1335.33 70 1343.67 70 1352 70 C1360.33 70 1368.67 70 1377 70 C1385.33 70 1393.67 70 1414.67 70 C1435.67 70 1469.33 70 1503 70 C1536.67 70 1570.33 70 1600.67 70 C1631 70 1658 70 1685 70 C1712 70 1739 70 1772.67 70 C1806.33 70 1846.67 70 1887 70 C1927.33 70 1967.67 70 1992 70 C2016.33 70 2024.67 70 2033 70 C2041.33 70 2049.67 70 2070 70 C2090.33 70 2122.67 70 2155 70 C2187.33 70 2219.67 70 2240 70 C2260.33 70 2268.67 70 2277 70 C2285.33 70 2293.67 70 2311.26 74.83 C2328.85 79.67 2355.7 89.33 2369.13 94.17 L2382.56 99" fill="none" stroke="#333333" stroke-width="1.5" marker-end="url(#arrow-point)" />
    <path d="M717.28 279.22 L705.73 263.1 C694.19 246.98 671.09 214.74 642.71 198.62 C614.33 182.5 580.67 182.5 547 182.5 C513.33 182.5 479.67 182.5 448.15 200.67 C416.64 218.83 387.29 255.17 372.61 273.33 L357.93 291.5" fill="none" stroke="#333333" stroke-width="1.5" marker-end="url(#arrow-point)" />
    <text x="547" y="182.5" text-anchor="middle" dominant-baseline="central" font-size="12px" font-family="'Intel One Mono', 'SF Mono', 'Cascadia Code', 'JetBrains Mono', 'Fira Code', 'Consolas', 'Menlo', monospace" fill="#333333">fail</text>
  </g>
</svg>
