<svg xmlns="http://www.w3.org/2000/svg" viewBox="0 0 198 468" width="198" height="468">
  <defs>
    <marker id="arrow-point" viewBox="0 0 10 10" refX="9" refY="5" markerWidth="6" markerHeight="6" orient="auto-start-reverse">
      <path d="M0 0 L10 5 L0 10 Z" fill="#333" />
    </marker>
  </defs>
  <g transform="translate(20, 20)">
    <rect x="0" y="63" width="158" height="299" rx="5" ry="5" fill="#ffffff" stroke="#333333" stroke-width="1.5" />
    <text x="79" y="77" text-anchor="middle" dominant-baseline="central" font-size="14px" font-family="'Intel One Mono', 'SF Mono', 'Cascadia Code', 'JetBrains Mono', 'Fira Code', 'Consolas', 'Menlo', monospace" fill="#333333">Active</text>
    <path d="M0 91 L158 91" fill="none" stroke="#333333" stroke-width="1" />
    <circle cx="79" cy="8" r="8" fill="#333333" stroke="#333333" />
    <rect x="47" y="157" width="64" height="32" rx="5" ry="5" fill="#ffffff" stroke="#333333" stroke-width="1.5" />
    <text x="79" y="173" text-anchor="middle" dominant-baseline="central" font-size="14px" font-family="'Intel One Mono', 'SF Mono', 'Cascadia Code', 'JetBrains Mono', 'Fira Code', 'Consolas', 'Menlo', monospace" fill="#333333">Idle</text>
    <circle cx="79" cy="420" r="8" stroke="#333333" stroke-width="1.5" />
    <circle cx="79" cy="420" r="4" fill="#333333" />
    <circle cx="79" cy="99" r="8" fill="#333333" stroke="#333333" />
    <rect x="35" y="239" width="88" height="32" rx="5" ry="5" fill="#ffffff" stroke="#333333" stroke-width="1.5" />
    <text x="79" y="255" text-anchor="middle" dominant-baseline="central" font-size="14px" font-family="'Intel One Mono', 'SF Mono', 'Cascadia Code', 'JetBrains Mono', 'Fira Code', 'Consolas', 'Menlo', monospace" fill="#333333">Running</text>
    <path d="M79 107 L79 111.17 C79 115.33 79 123.67 79 132 C79 140.33 79 148.67 79 152.83 L79 157" fill="none" stroke="#333" stroke-width="1.5" marker-end="url(#arrow-point)" />
    <path d="M90.51 189 L93.51 193.17 C96.51 197.33 102.5 205.67 102.5 214 C102.5 222.33 96.51 230.67 93.51 234.83 L90.51 239" fill="none" stroke="#333" stroke-width="1.5" marker-end="url(#arrow-point)" />
    <path d="M79 16 L79 20.17 C79 24.33 79 32.67 79 40.5 C79 48.33 79 55.67 79 59.33 L79 63" fill="none" stroke="#333" stroke-width="1.5" marker-end="url(#arrow-point)" />
    <path d="M79 362 L79 366.17 C79 370.33 79 378.67 79 387 C79 395.33 79 403.67 79 407.83 L79 412" fill="none" stroke="#333" stroke-width="1.5" marker-end="url(#arrow-point)" />
    <path d="M67.49 239 L64.49 234.83 C61.49 230.67 55.5 222.33 55.5 214 C55.5 205.67 61.49 197.33 64.49 193.17 L67.49 189" fill="none" stroke="#333" stroke-width="1.5" marker-end="url(#arrow-point)" />
  </g>
</svg>
