<svg xmlns="http://www.w3.org/2000/svg" viewBox="0 0 840 266" width="840" height="266">
  <g transform="translate(20, 20)">
    <text x="400" y="26.4" text-anchor="middle" dominant-baseline="central" font-size="16px" font-family="'Intel One Mono', 'SF Mono', 'Cascadia Code', 'JetBrains Mono', 'Fira Code', 'Consolas', 'Menlo', monospace" fill="#333333" font-weight="bold">Weekly Tasks</text>
    <rect x="20" y="76" width="780" height="125" fill="#4e79a712" />
    <path d="M180 76 L780 76" fill="none" stroke="#333333" stroke-width="1" />
    <path d="M780 76 L780 206" fill="none" stroke="#c8c8c864" stroke-width="0.5" />
    <path d="M180 76 L180 206" fill="none" stroke="#c8c8c864" stroke-width="0.5" />
    <path d="M180 72 L180 80" fill="none" stroke="#333333" stroke-width="1" />
    <text x="180" y="58" text-anchor="middle" dominant-baseline="central" font-size="11px" font-family="'Intel One Mono', 'SF Mono', 'Cascadia Code', 'JetBrains Mono', 'Fira Code', 'Consolas', 'Menlo', monospace" fill="#333333">Jun 1</text>
    <path d="M600 72 L600 80" fill="none" stroke="#333333" stroke-width="1" />
    <text x="600" y="58" text-anchor="middle" dominant-baseline="central" font-size="11px" font-family="'Intel One Mono', 'SF Mono', 'Cascadia Code', 'JetBrains Mono', 'Fira Code', 'Consolas', 'Menlo', monospace" fill="#333333">Jun 8</text>
    <path d="M180 76 L180 206" fill="none" stroke="#c8c8c83c" stroke-width="0.5" stroke-dasharray="4 3" />
    <path d="M600 76 L600 206" fill="none" stroke="#c8c8c83c" stroke-width="0.5" stroke-dasharray="4 3" />
    <rect x="180" y="76" width="180" height="24" rx="3" ry="3" fill="#4e79a7c8" />
    <text x="172" y="88" text-anchor="end" dominant-baseline="central" font-size="12px" font-family="'Intel One Mono', 'SF Mono', 'Cascadia Code', 'JetBrains Mono', 'Fira Code', 'Consolas', 'Menlo', monospace" fill="#333333">Research</text>
    <rect x="360" y="106" width="240" height="24" rx="3" ry="3" fill="#4e79a7c8" />
    <text x="172" y="118" text-anchor="end" dominant-baseline="central" font-size="12px" font-family="'Intel One Mono', 'SF Mono', 'Cascadia Code', 'JetBrains Mono', 'Fira Code', 'Consolas', 'Menlo', monospace" fill="#333333">Writing</text>
    <rect x="600" y="136" width="120" height="24" rx="3" ry="3" fill="#4e79a7c8" />
    <text x="172" y="148" text-anchor="end" dominant-baseline="central" font-size="12px" font-family="'Intel One Mono', 'SF Mono', 'Cascadia Code', 'JetBrains Mono', 'Fira Code', 'Consolas', 'Menlo', monospace" fill="#333333">Review</text>
    <rect x="720" y="166" width="60" height="24" rx="3" ry="3" fill="#4e79a7c8" />
    <text x="172" y="178" text-anchor="end" dominant-baseline="central" font-size="12px" font-family="'Intel One Mono', 'SF Mono', 'Cascadia Code', 'JetBrains Mono', 'Fira Code', 'Consolas', 'Menlo', monospace" fill="#333333">Publish</text>
  </g>
</svg>
