<svg xmlns="http://www.w3.org/2000/svg" viewBox="0 0 1757.4 711.35" width="1757.4" height="711.35">
  <defs>
    <marker id="arrow-point" viewBox="0 0 10 10" refX="9" refY="5" markerWidth="6" markerHeight="6" orient="auto-start-reverse">
      <path d="M0 0 L10 5 L0 10 Z" fill="#333333" />
    </marker>
  </defs>
  <g transform="translate(20, 20)">
    <rect x="0" y="133.29" width="166" height="268.4" rx="5" ry="5" fill="#ecf2dc99" stroke="#a8ae8e" stroke-width="1" />
    <text x="8" y="145.29" text-anchor="start" dominant-baseline="central" font-size="13px" font-family="'Intel One Mono', 'SF Mono', 'Cascadia Code', 'JetBrains Mono', 'Fira Code', 'Consolas', 'Menlo', monospace" fill="#333333" font-weight="bold">Clients</text>
    <rect x="213.9" y="52.12" width="581.8" height="333.86" rx="5" ry="5" fill="#ecf2dc99" stroke="#a8ae8e" stroke-width="1" />
    <text x="221.9" y="64.12" text-anchor="start" dominant-baseline="central" font-size="13px" font-family="'Intel One Mono', 'SF Mono', 'Cascadia Code', 'JetBrains Mono', 'Fira Code', 'Consolas', 'Menlo', monospace" fill="#333333" font-weight="bold">Gateway</text>
    <rect x="606.6" y="431.45" width="907.2" height="239.9" rx="5" ry="5" fill="#ecf2dc99" stroke="#a8ae8e" stroke-width="1" />
    <text x="614.6" y="443.45" text-anchor="start" dominant-baseline="central" font-size="13px" font-family="'Intel One Mono', 'SF Mono', 'Cascadia Code', 'JetBrains Mono', 'Fira Code', 'Consolas', 'Menlo', monospace" fill="#333333" font-weight="bold">Services</text>
    <rect x="852" y="0" width="865.4" height="411.45" rx="5" ry="5" fill="#ecf2dc99" stroke="#a8ae8e" stroke-width="1" />
    <text x="860" y="12" text-anchor="start" dominant-baseline="central" font-size="13px" font-family="'Intel One Mono', 'SF Mono', 'Cascadia Code', 'JetBrains Mono', 'Fira Code', 'Consolas', 'Menlo', monospace" fill="#333333" font-weight="bold">Data</text>
    <path d="M128.4 184.69 L134.67 184.69 C140.93 184.69 153.47 184.69 163.9 184.69 C174.33 184.69 182.67 184.69 191 184.69 C199.33 184.69 207.67 184.69 223.61 192.42 C239.54 200.15 263.09 215.62 274.86 223.35 L286.63 231.09" fill="none" stroke="#333333" stroke-width="1.5" marker-end="url(#arrow-point)" />
    <path d="M141 267.49 L145.17 267.49 C149.33 267.49 157.67 267.49 166 267.49 C174.33 267.49 182.67 267.49 191 267.49 C199.33 267.49 207.67 267.49 216 266.61 C224.33 265.74 232.67 264 236.83 263.13 L241 262.26" fill="none" stroke="#333333" stroke-width="1.5" marker-end="url(#arrow-point)" />
    <path d="M132.6 350.29 L138.17 350.29 C143.73 350.29 154.87 350.29 164.6 350.29 C174.33 350.29 182.67 350.29 191 350.29 C199.33 350.29 207.67 350.29 225.22 335.89 C242.78 321.49 269.57 292.69 282.96 278.29 L296.35 263.89" fill="none" stroke="#333333" stroke-width="1.5" marker-end="url(#arrow-point)" />
    <path d="M382.2 247.49 L386.37 247.49 C390.53 247.49 398.87 247.49 407.2 247.49 C415.53 247.49 423.87 247.49 428.03 247.49 L432.2 247.49" fill="none" stroke="#333333" stroke-width="1.5" marker-end="url(#arrow-point)" />
    <path d="M506.07 231.09 L518.66 213.39 C531.25 195.7 556.42 160.31 573.18 142.62 C589.93 124.92 598.27 124.92 607.3 124.92 C616.33 124.92 626.07 124.92 630.93 124.92 L635.8 124.92" fill="none" stroke="#333333" stroke-width="1.5" marker-end="url(#arrow-point)" />
    <path d="M768.6 124.92 L773.47 124.92 C778.33 124.92 788.07 124.92 797.1 124.92 C806.13 124.92 814.47 124.92 822.8 124.92 C831.13 124.92 839.47 124.92 860.97 124.92 C882.47 124.92 917.13 124.92 951.8 124.92 C986.47 124.92 1021.13 124.92 1059.3 124.92 C1097.47 124.92 1139.13 124.92 1180.8 124.92 C1222.47 124.92 1264.13 124.92 1302.3 124.92 C1340.47 124.92 1375.13 124.92 1409.8 124.92 C1444.47 124.92 1479.13 124.92 1500.63 124.92 C1522.13 124.92 1530.47 124.92 1541.6 125.72 C1552.73 126.52 1566.67 128.12 1573.63 128.92 L1580.6 129.72" fill="none" stroke="#333333" stroke-width="1.5" stroke-dasharray="3 3" marker-end="url(#arrow-point)" />
    <path d="M514.5 231.09 L525.68 221.96 C536.86 212.83 559.23 194.58 574.58 185.45 C589.93 176.32 598.27 176.32 618.37 176.32 C638.47 176.32 670.33 176.32 702.2 176.32 C734.07 176.32 765.93 176.32 786.03 229.79 C806.13 283.26 814.47 390.21 822.8 443.68 C831.13 497.15 839.47 497.15 860.97 497.15 C882.47 497.15 917.13 497.15 951.8 497.15 C986.47 497.15 1021.13 497.15 1059.3 497.15 C1097.47 497.15 1139.13 497.15 1180.8 497.15 C1222.47 497.15 1264.13 497.15 1295.19 501.08 C1326.25 505.02 1346.71 512.88 1356.93 516.82 L1367.16 520.75" fill="none" stroke="#333333" stroke-width="1.5" marker-end="url(#arrow-point)" />
    <path d="M511.67 263.89 L523.33 274.95 C534.98 286.02 558.29 308.15 574.11 319.22 C589.93 330.29 598.27 330.29 616.76 354.7 C635.26 379.12 663.92 427.95 678.25 452.37 L692.58 476.79" fill="none" stroke="#333333" stroke-width="1.5" marker-end="url(#arrow-point)" />
    <path d="M539.12 263.89 L546.2 266.48 C553.28 269.08 567.44 274.27 578.69 276.87 C589.93 279.46 598.27 279.46 618.37 279.46 C638.47 279.46 670.33 279.46 702.2 279.46 C734.07 279.46 765.93 279.46 786.03 336.21 C806.13 392.96 814.47 506.45 822.8 563.2 C831.13 619.95 839.47 619.95 860.97 619.95 C882.47 619.95 917.13 619.95 951.8 619.95 C986.47 619.95 1021.13 619.95 1059.3 619.95 C1097.47 619.95 1139.13 619.95 1180.8 619.95 C1222.47 619.95 1264.13 619.95 1289.13 619.95 C1314.13 619.95 1322.47 619.95 1326.63 619.95 L1330.8 619.95" fill="none" stroke="#333333" stroke-width="1.5" marker-end="url(#arrow-point)" />
    <path d="M1443.91 520.75 L1455.56 515.15 C1467.21 509.55 1490.5 498.35 1506.32 441.16 C1522.13 383.97 1530.47 280.78 1541.6 225.78 C1552.73 170.78 1566.67 163.96 1573.63 160.55 L1580.6 157.14" fill="none" stroke="#333333" stroke-width="1.5" marker-end="url(#arrow-point)" />
    <path d="M1446.01 553.55 L1457.31 558.67 C1468.61 563.78 1491.2 574.02 1506.67 532.41 C1522.13 490.81 1530.47 397.37 1538.8 352.73 C1547.13 308.1 1555.47 312.27 1559.63 314.36 L1563.8 316.44" fill="none" stroke="#333333" stroke-width="1.5" marker-end="url(#arrow-point)" />
    <path d="M745.7 476.79 L754.39 473.51 C763.07 470.24 780.43 463.69 793.28 460.42 C806.13 457.15 814.47 457.15 822.8 457.15 C831.13 457.15 839.47 457.15 859.52 396.87 C879.57 336.58 911.34 216.02 927.22 155.74 L943.11 95.45" fill="none" stroke="#333333" stroke-width="1.5" marker-end="url(#arrow-point)" />
    <path d="M730.52 509.59 L741.73 516.08 C752.95 522.57 775.37 535.56 790.75 542.05 C806.13 548.55 814.47 548.55 822.8 548.55 C831.13 548.55 839.47 548.55 847.8 548.55 C856.13 548.55 864.47 548.55 868.63 548.55 L872.8 548.55" fill="none" stroke="#333333" stroke-width="1.5" marker-end="url(#arrow-point)" />
    <path d="M772.8 481.34 L776.97 480.64 C781.13 479.94 789.47 478.55 797.8 477.85 C806.13 477.15 814.47 477.15 822.8 477.15 C831.13 477.15 839.47 477.15 859.64 444.22 C879.81 411.29 911.82 345.44 927.82 312.51 L943.83 279.59" fill="none" stroke="#333333" stroke-width="1.5" stroke-dasharray="3 3" marker-end="url(#arrow-point)" />
    <path d="M1433.69 603.55 L1447.04 594.38 C1460.39 585.22 1487.1 566.88 1504.61 506.34 C1522.13 445.79 1530.47 343.03 1539.5 291.65 C1548.53 240.28 1558.27 240.28 1563.13 240.28 L1568 240.28" fill="none" stroke="#333333" stroke-width="1.5" marker-end="url(#arrow-point)" />
    <path d="M1488.8 631.87 L1492.97 632.5 C1497.13 633.13 1505.47 634.39 1513.8 590.66 C1522.13 546.94 1530.47 458.23 1538.8 412.82 C1547.13 367.42 1555.47 365.32 1559.63 364.27 L1563.8 363.22" fill="none" stroke="#333333" stroke-width="1.5" marker-end="url(#arrow-point)" />
    <path d="M1030.8 548.55 L1034.97 548.55 C1039.13 548.55 1047.47 548.55 1055.8 548.55 C1064.13 548.55 1072.47 548.55 1076.63 548.55 L1080.8 548.55" fill="none" stroke="#333333" stroke-width="1.5" stroke-dasharray="3 3" marker-end="url(#arrow-point)" />
    <path d="M1022.4 263.19 L1027.97 263.19 C1033.53 263.19 1044.67 263.19 1069.87 308.01 C1095.07 352.84 1134.34 442.49 1153.98 487.32 L1173.62 532.15" fill="none" stroke="#333333" stroke-width="1.5" stroke-dasharray="3 3" marker-end="url(#arrow-point)" />
    <path d="M1280.8 548.55 L1284.97 548.55 C1289.13 548.55 1297.47 548.55 1307.9 547.86 C1318.33 547.17 1330.87 545.8 1337.13 545.11 L1343.4 544.43" fill="none" stroke="#333333" stroke-width="1.5" stroke-dasharray="3 3" marker-end="url(#arrow-point)" />
    <rect x="37.6" y="168.29" width="90.8" height="32.8" fill="#ececffb2" stroke="#9370db" stroke-width="1.5" />
    <text x="83" y="184.69" text-anchor="middle" dominant-baseline="central" font-size="14px" font-family="'Intel One Mono', 'SF Mono', 'Cascadia Code', 'JetBrains Mono', 'Fira Code', 'Consolas', 'Menlo', monospace" fill="#333333">Web App</text>
    <rect x="25" y="251.09" width="116" height="32.8" fill="#ececffb2" stroke="#9370db" stroke-width="1.5" />
    <text x="83" y="267.49" text-anchor="middle" dominant-baseline="central" font-size="14px" font-family="'Intel One Mono', 'SF Mono', 'Cascadia Code', 'JetBrains Mono', 'Fira Code', 'Consolas', 'Menlo', monospace" fill="#333333">Mobile App</text>
    <rect x="33.4" y="333.89" width="99.2" height="32.8" fill="#ececffb2" stroke="#9370db" stroke-width="1.5" />
    <text x="83" y="350.29" text-anchor="middle" dominant-baseline="central" font-size="14px" font-family="'Intel One Mono', 'SF Mono', 'Cascadia Code', 'JetBrains Mono', 'Fira Code', 'Consolas', 'Menlo', monospace" fill="#333333">CLI Tool</text>
    <rect x="241" y="231.09" width="141.2" height="32.8" fill="#ececffb2" stroke="#9370db" stroke-width="1.5" />
    <text x="311.6" y="247.49" text-anchor="middle" dominant-baseline="central" font-size="14px" font-family="'Intel One Mono', 'SF Mono', 'Cascadia Code', 'JetBrains Mono', 'Fira Code', 'Consolas', 'Menlo', monospace" fill="#333333">Load Balancer</text>
    <rect x="432.2" y="231.09" width="124.4" height="32.8" fill="#ececffb2" stroke="#9370db" stroke-width="1.5" />
    <text x="494.4" y="247.49" text-anchor="middle" dominant-baseline="central" font-size="14px" font-family="'Intel One Mono', 'SF Mono', 'Cascadia Code', 'JetBrains Mono', 'Fira Code', 'Consolas', 'Menlo', monospace" fill="#333333">API Gateway</text>
    <rect x="635.8" y="108.52" width="132.8" height="32.8" fill="#ececffb2" stroke="#9370db" stroke-width="1.5" />
    <text x="702.2" y="124.92" text-anchor="middle" dominant-baseline="central" font-size="14px" font-family="'Intel One Mono', 'SF Mono', 'Cascadia Code', 'JetBrains Mono', 'Fira Code', 'Consolas', 'Menlo', monospace" fill="#333333">Auth Service</text>
    <rect x="1343.4" y="520.75" width="132.8" height="32.8" fill="#ececffb2" stroke="#9370db" stroke-width="1.5" />
    <text x="1409.8" y="537.15" text-anchor="middle" dominant-baseline="central" font-size="14px" font-family="'Intel One Mono', 'SF Mono', 'Cascadia Code', 'JetBrains Mono', 'Fira Code', 'Consolas', 'Menlo', monospace" fill="#333333">User Service</text>
    <rect x="631.6" y="476.79" width="141.2" height="32.8" fill="#ececffb2" stroke="#9370db" stroke-width="1.5" />
    <text x="702.2" y="493.19" text-anchor="middle" dominant-baseline="central" font-size="14px" font-family="'Intel One Mono', 'SF Mono', 'Cascadia Code', 'JetBrains Mono', 'Fira Code', 'Consolas', 'Menlo', monospace" fill="#333333">Order Service</text>
    <rect x="1330.8" y="603.55" width="158" height="32.8" fill="#ececffb2" stroke="#9370db" stroke-width="1.5" />
    <text x="1409.8" y="619.95" text-anchor="middle" dominant-baseline="central" font-size="14px" font-family="'Intel One Mono', 'SF Mono', 'Cascadia Code', 'JetBrains Mono', 'Fira Code', 'Consolas', 'Menlo', monospace" fill="#333333">Product Service</text>
    <rect x="872.8" y="532.15" width="158" height="32.8" fill="#ececffb2" stroke="#9370db" stroke-width="1.5" />
    <text x="951.8" y="548.55" text-anchor="middle" dominant-baseline="central" font-size="14px" font-family="'Intel One Mono', 'SF Mono', 'Cascadia Code', 'JetBrains Mono', 'Fira Code', 'Consolas', 'Menlo', monospace" fill="#333333">Payment Service</text>
    <rect x="1080.8" y="532.15" width="200" height="32.8" fill="#ececffb2" stroke="#9370db" stroke-width="1.5" />
    <text x="1180.8" y="548.55" text-anchor="middle" dominant-baseline="central" font-size="14px" font-family="'Intel One Mono', 'SF Mono', 'Cascadia Code', 'JetBrains Mono', 'Fira Code', 'Consolas', 'Menlo', monospace" fill="#333333">Notification Service</text>
    <path d="M1580.6 113.26 L1580.6 156.58 A45.4 10.52 0 0 0 1671.4 156.58 L1671.4 113.26 A45.4 10.52 0 0 1 1580.6 113.26" fill="#ececffb2" stroke="#9370db" stroke-width="1.5" />
    <path d="M1580.6 113.26 A45.4 10.52 0 0 1 1671.4 113.26 A45.4 10.52 0 0 1 1580.6 113.26" fill="#ececffb2" stroke="#9370db" stroke-width="1.5" />
    <text x="1626" y="140.18" text-anchor="middle" dominant-baseline="central" font-size="14px" font-family="'Intel One Mono', 'SF Mono', 'Cascadia Code', 'JetBrains Mono', 'Fira Code', 'Consolas', 'Menlo', monospace" fill="#333333">User DB</text>
    <path d="M902.2 40.53 L902.2 84.39 A49.6 11.06 0 0 0 1001.4 84.39 L1001.4 40.53 A49.6 11.06 0 0 1 902.2 40.53" fill="#ececffb2" stroke="#9370db" stroke-width="1.5" />
    <path d="M902.2 40.53 A49.6 11.06 0 0 1 1001.4 40.53 A49.6 11.06 0 0 1 902.2 40.53" fill="#ececffb2" stroke="#9370db" stroke-width="1.5" />
    <text x="951.8" y="67.99" text-anchor="middle" dominant-baseline="central" font-size="14px" font-family="'Intel One Mono', 'SF Mono', 'Cascadia Code', 'JetBrains Mono', 'Fira Code', 'Consolas', 'Menlo', monospace" fill="#333333">Order DB</text>
    <path d="M1568 217.86 L1568 262.69 A58 12.03 0 0 0 1684 262.69 L1684 217.86 A58 12.03 0 0 1 1568 217.86" fill="#ececffb2" stroke="#9370db" stroke-width="1.5" />
    <path d="M1568 217.86 A58 12.03 0 0 1 1684 217.86 A58 12.03 0 0 1 1568 217.86" fill="#ececffb2" stroke="#9370db" stroke-width="1.5" />
    <text x="1626" y="246.29" text-anchor="middle" dominant-baseline="central" font-size="14px" font-family="'Intel One Mono', 'SF Mono', 'Cascadia Code', 'JetBrains Mono', 'Fira Code', 'Consolas', 'Menlo', monospace" fill="#333333">Product DB</text>
    <path d="M1563.8 324.94 L1563.8 370.21 A62.2 12.47 0 0 0 1688.2 370.21 L1688.2 324.94 A62.2 12.47 0 0 1 1563.8 324.94" fill="#ececffb2" stroke="#9370db" stroke-width="1.5" />
    <path d="M1563.8 324.94 A62.2 12.47 0 0 1 1688.2 324.94 A62.2 12.47 0 0 1 1563.8 324.94" fill="#ececffb2" stroke="#9370db" stroke-width="1.5" />
    <text x="1626" y="353.81" text-anchor="middle" dominant-baseline="central" font-size="14px" font-family="'Intel One Mono', 'SF Mono', 'Cascadia Code', 'JetBrains Mono', 'Fira Code', 'Consolas', 'Menlo', monospace" fill="#333333">Redis Cache</text>
    <rect x="881.2" y="246.79" width="141.2" height="32.8" fill="#ececffb2" stroke="#9370db" stroke-width="1.5" />
    <text x="951.8" y="263.19" text-anchor="middle" dominant-baseline="central" font-size="14px" font-family="'Intel One Mono', 'SF Mono', 'Cascadia Code', 'JetBrains Mono', 'Fira Code', 'Consolas', 'Menlo', monospace" fill="#333333">Message Queue</text>
  </g>
</svg>
