<svg xmlns="http://www.w3.org/2000/svg" viewBox="0 0 2632.8 818.58" width="2632.8" height="818.58">
  <defs>
    <marker id="arrow-point-333333" viewBox="0 0 10 10" refX="8" refY="5" markerWidth="8" markerHeight="8" orient="auto-start-reverse">
      <path d="M10 5 L0 10 L4 5 L0 0 Z" fill="#333333" />
    </marker>
  </defs>
  <g transform="translate(20, 20)">
    <rect x="1716.8" y="125.63" width="606.4" height="456.6" rx="5" ry="5" fill="#ecf2dc99" stroke="#a8ae8e" stroke-width="1" />
    <text x="1724.8" y="137.63" text-anchor="start" dominant-baseline="central" font-size="13px" font-family="'Intel One Mono', 'SF Mono', 'Cascadia Code', 'JetBrains Mono', 'Fira Code', 'Consolas', 'Menlo', monospace" fill="#333333" font-weight="bold">Storage</text>
    <rect x="522" y="46.35" width="454.8" height="521.01" rx="5" ry="5" fill="#ecf2dc99" stroke="#a8ae8e" stroke-width="1" />
    <text x="530" y="58.35" text-anchor="start" dominant-baseline="central" font-size="13px" font-family="'Intel One Mono', 'SF Mono', 'Cascadia Code', 'JetBrains Mono', 'Fira Code', 'Consolas', 'Menlo', monospace" fill="#333333" font-weight="bold">Landing</text>
    <rect x="-10.75" y="675.78" width="2130.2" height="102.8" rx="5" ry="5" fill="#ecf2dc99" stroke="#a8ae8e" stroke-width="1" />
    <text x="-2.75" y="687.78" text-anchor="start" dominant-baseline="central" font-size="13px" font-family="'Intel One Mono', 'SF Mono', 'Cascadia Code', 'JetBrains Mono', 'Fira Code', 'Consolas', 'Menlo', monospace" fill="#333333" font-weight="bold">Orchestration</text>
    <rect x="1026.8" y="296.96" width="597" height="253.2" rx="5" ry="5" fill="#ecf2dc99" stroke="#a8ae8e" stroke-width="1" />
    <text x="1034.8" y="308.96" text-anchor="start" dominant-baseline="central" font-size="13px" font-family="'Intel One Mono', 'SF Mono', 'Cascadia Code', 'JetBrains Mono', 'Fira Code', 'Consolas', 'Menlo', monospace" fill="#333333" font-weight="bold">Transform</text>
    <rect x="252.4" y="17.84" width="219.6" height="547.52" rx="5" ry="5" fill="#ecf2dc99" stroke="#a8ae8e" stroke-width="1" />
    <text x="260.4" y="29.84" text-anchor="start" dominant-baseline="central" font-size="13px" font-family="'Intel One Mono', 'SF Mono', 'Cascadia Code', 'JetBrains Mono', 'Fira Code', 'Consolas', 'Menlo', monospace" fill="#333333" font-weight="bold">Ingestion</text>
    <rect x="0" y="0" width="202.4" height="565.36" rx="5" ry="5" fill="#ecf2dc99" stroke="#a8ae8e" stroke-width="1" />
    <text x="8" y="12" text-anchor="start" dominant-baseline="central" font-size="13px" font-family="'Intel One Mono', 'SF Mono', 'Cascadia Code', 'JetBrains Mono', 'Fira Code', 'Consolas', 'Menlo', monospace" fill="#333333" font-weight="bold">Sources</text>
    <rect x="2364.6" y="125.63" width="228.2" height="465.43" rx="5" ry="5" fill="#ecf2dc99" stroke="#a8ae8e" stroke-width="1" />
    <text x="2372.6" y="137.63" text-anchor="start" dominant-baseline="central" font-size="13px" font-family="'Intel One Mono', 'SF Mono', 'Cascadia Code', 'JetBrains Mono', 'Fira Code', 'Consolas', 'Menlo', monospace" fill="#333333" font-weight="bold">Serving</text>
    <path d="M160.2 63.54 L167.23 63.54 C174.27 63.54 188.33 63.54 199.53 63.54 C210.73 63.54 219.07 63.54 227.4 63.54 C235.73 63.54 244.07 63.54 262.17 72.27 C280.27 80.99 308.14 98.45 322.08 107.18 L333.98 114.63" fill="none" stroke="#333333" stroke-width="1.5" marker-end="url(#arrow-point-333333)" />
    <path d="M160.2 170.62 L167.23 170.62 C174.27 170.62 188.33 170.62 199.53 170.62 C210.73 170.62 219.07 170.62 227.4 170.62 C235.73 170.62 244.07 170.62 258.7 166.97 C273.33 163.31 294.27 156.01 304.74 152.36 L312.94 149.49" fill="none" stroke="#333333" stroke-width="1.5" marker-end="url(#arrow-point-333333)" />
    <path d="M164.5 265.56 L170.82 265.56 C177.13 265.56 189.77 265.56 200.25 265.56 C210.73 265.56 219.07 265.56 227.4 265.56 C235.73 265.56 244.07 265.56 259.97 270.44 C275.87 275.33 299.33 285.09 311.06 289.98 L320.58 293.94" fill="none" stroke="#333333" stroke-width="1.5" marker-end="url(#arrow-point-333333)" />
    <path d="M168.8 348.36 L174.4 348.36 C180 348.36 191.2 348.36 200.97 348.36 C210.73 348.36 219.07 348.36 227.4 348.36 C235.73 348.36 244.07 348.36 258.44 344.91 C272.82 341.46 293.24 334.56 303.45 331.11 L311.39 328.43" fill="none" stroke="#333333" stroke-width="1.5" marker-end="url(#arrow-point-333333)" />
    <path d="M155.9 431.16 L163.65 431.16 C171.4 431.16 186.9 431.16 198.82 431.16 C210.73 431.16 219.07 431.16 227.4 431.16 C235.73 431.16 244.07 431.16 255.27 431.16 C266.47 431.16 280.53 431.16 287.57 431.16 L292.2 431.16" fill="none" stroke="#333333" stroke-width="1.5" marker-end="url(#arrow-point-333333)" />
    <path d="M160.2 513.96 L167.23 513.96 C174.27 513.96 188.33 513.96 199.53 513.96 C210.73 513.96 219.07 513.96 227.4 513.96 C235.73 513.96 244.07 513.96 253.12 513.96 C262.17 513.96 271.93 513.96 276.82 513.96 L279.3 513.96" fill="none" stroke="#333333" stroke-width="1.5" marker-end="url(#arrow-point-333333)" />
    <path d="M429.8 132.3 L436.83 132.3 C443.87 132.3 457.93 132.3 469.13 132.3 C480.33 132.3 488.67 132.3 497 132.3 C505.33 132.3 513.67 132.3 534.08 165.58 C554.5 198.86 586.99 265.41 603.24 298.68 L618.44 329.8" fill="none" stroke="#333333" stroke-width="1.5" marker-end="url(#arrow-point-333333)" />
    <path d="M447 311.26 L451.17 311.26 C455.33 311.26 463.67 311.26 472 311.26 C480.33 311.26 488.67 311.26 497 311.26 C505.33 311.26 513.67 311.26 527.64 314.71 C541.62 318.16 561.24 325.06 571.05 328.51 L578.6 331.16" fill="none" stroke="#333333" stroke-width="1.5" marker-end="url(#arrow-point-333333)" />
    <path d="M429.8 431.16 L436.83 431.16 C443.87 431.16 457.93 431.16 469.13 431.16 C480.33 431.16 488.67 431.16 497 431.16 C505.33 431.16 513.67 431.16 531.93 420.09 C550.2 409.03 578.4 386.89 592.5 375.83 L604.72 366.24" fill="none" stroke="#333333" stroke-width="1.5" marker-end="url(#arrow-point-333333)" />
    <path d="M442.7 513.96 L447.58 513.96 C452.47 513.96 462.23 513.96 471.28 513.96 C480.33 513.96 488.67 513.96 497 513.96 C505.33 513.96 513.67 513.96 533.68 489.09 C553.68 464.23 585.37 414.49 601.21 389.63 L615.76 366.78" fill="none" stroke="#333333" stroke-width="1.5" marker-end="url(#arrow-point-333333)" />
    <path d="M708 348.36 L712.17 348.36 C716.33 348.36 724.67 348.36 733 348.36 C741.33 348.36 749.67 348.36 753.83 348.36 L755.6 348.36" fill="none" stroke="#333333" stroke-width="1.5" marker-end="url(#arrow-point-333333)" />
    <path d="M951.8 348.36 L955.97 348.36 C960.13 348.36 968.47 348.36 976.8 348.36 C985.13 348.36 993.47 348.36 1001.8 348.36 C1010.13 348.36 1018.47 348.36 1030.38 348.36 C1042.3 348.36 1057.8 348.36 1065.55 348.36 L1070.9 348.36" fill="none" stroke="#333333" stroke-width="1.5" marker-end="url(#arrow-point-333333)" />
    <path d="M1191.3 348.36 L1199.05 348.36 C1206.8 348.36 1222.3 348.36 1241.28 359.43 C1260.25 370.49 1282.71 392.63 1293.94 403.69 L1303.45 413.07" fill="none" stroke="#333333" stroke-width="1.5" marker-end="url(#arrow-point-333333)" />
    <path d="M1380.8 431.16 L1384.97 431.16 C1389.13 431.16 1397.47 431.16 1405.8 431.16 C1414.13 431.16 1422.47 431.16 1426.63 431.16 L1428.4 431.16" fill="none" stroke="#333333" stroke-width="1.5" marker-end="url(#arrow-point-333333)" />
    <path d="M1591.74 424.1 L1597.08 423.61 C1602.43 423.12 1613.11 422.14 1625.49 421.65 C1637.87 421.16 1651.93 421.16 1666 421.16 C1680.07 421.16 1694.13 421.16 1708.2 421.16 C1722.27 421.16 1736.33 421.16 1743.37 421.16 L1748 421.16" fill="none" stroke="#333333" stroke-width="1.5" marker-end="url(#arrow-point-333333)" />
    <rect x="1647.26" y="409.96" width="37.49" height="22.4" rx="2" ry="2" fill="#f5f3ffbf" stroke="#f5f3ffbf" stroke-width="0.5" />
    <text x="1666" y="421.16" text-anchor="middle" dominant-baseline="central" font-size="12px" font-family="'Intel One Mono', 'SF Mono', 'Cascadia Code', 'JetBrains Mono', 'Fira Code', 'Consolas', 'Menlo', monospace" fill="#333333">pass</text>
    <path d="M1572.57 457.39 L1581.11 461.27 C1589.64 465.15 1606.72 472.9 1622.29 517.87 C1637.87 562.83 1651.93 645.01 1666 686.1 C1680.07 727.18 1694.13 727.18 1705.33 727.18 C1716.53 727.18 1724.87 727.18 1729.03 727.18 L1730.8 727.18" fill="none" stroke="#333333" stroke-width="1.5" marker-end="url(#arrow-point-333333)" />
    <rect x="1647.26" y="715.98" width="37.49" height="22.4" rx="2" ry="2" fill="#f5f3ffbf" stroke="#f5f3ffbf" stroke-width="0.5" />
    <text x="1666" y="727.18" text-anchor="middle" dominant-baseline="central" font-size="12px" font-family="'Intel One Mono', 'SF Mono', 'Cascadia Code', 'JetBrains Mono', 'Fira Code', 'Consolas', 'Menlo', monospace" fill="#333333">fail</text>
    <path d="M1885.6 421.16 L1892.63 421.16 C1899.67 421.16 1913.73 421.16 1924.93 421.16 C1936.13 421.16 1944.47 421.16 1948.63 421.16 L1950.4 421.16" fill="none" stroke="#333333" stroke-width="1.5" marker-end="url(#arrow-point-333333)" />
    <path d="M2053.05 384.86 L2065.91 365.46 C2078.77 346.05 2104.48 307.24 2121.51 287.84 C2138.53 268.43 2146.87 268.43 2155.92 268.43 C2164.97 268.43 2174.73 268.43 2179.62 268.43 L2182.1 268.43" fill="none" stroke="#333333" stroke-width="1.5" marker-end="url(#arrow-point-333333)" />
    <path d="M2094.24 390.8 L2100.23 388.01 C2106.23 385.22 2118.21 379.64 2128.37 376.85 C2138.53 374.06 2146.87 374.06 2155.2 374.06 C2163.53 374.06 2171.87 374.06 2176.03 374.06 L2177.8 374.06" fill="none" stroke="#333333" stroke-width="1.5" marker-end="url(#arrow-point-333333)" />
    <path d="M2259.49 236.71 L2268.68 224.86 C2277.86 213.02 2296.23 189.32 2309.58 177.48 C2322.93 165.63 2331.27 165.63 2339.6 165.63 C2347.93 165.63 2356.27 165.63 2372.48 167.74 C2388.7 169.86 2412.8 174.08 2424.85 176.19 L2434.54 177.89" fill="none" stroke="#333333" stroke-width="1.5" marker-end="url(#arrow-point-333333)" />
    <path d="M2285.3 268.43 L2290.18 268.43 C2295.07 268.43 2304.83 268.43 2313.88 268.43 C2322.93 268.43 2331.27 268.43 2339.6 268.43 C2347.93 268.43 2356.27 268.43 2371.05 268.43 C2385.83 268.43 2407.07 268.43 2417.68 268.43 L2425.9 268.43" fill="none" stroke="#333333" stroke-width="1.5" marker-end="url(#arrow-point-333333)" />
    <path d="M2250.19 340.62 L2260.92 317.15 C2271.66 293.67 2293.13 246.71 2308.03 223.24 C2322.93 199.76 2331.27 199.76 2339.6 199.76 C2347.93 199.76 2356.27 199.76 2372.48 198.27 C2388.7 196.78 2412.8 193.79 2424.85 192.3 L2434.52 191.1" fill="none" stroke="#333333" stroke-width="1.5" marker-end="url(#arrow-point-333333)" />
    <path d="M2289.6 374.06 L2293.77 374.06 C2297.93 374.06 2306.27 374.06 2314.6 374.06 C2322.93 374.06 2331.27 374.06 2339.6 374.06 C2347.93 374.06 2356.27 374.06 2364.6 374.06 C2372.93 374.06 2381.27 374.06 2385.43 374.06 L2387.2 374.06" fill="none" stroke="#333333" stroke-width="1.5" marker-end="url(#arrow-point-333333)" />
    <path d="M2103.39 447.4 L2107.86 448.98 C2112.33 450.55 2121.26 453.71 2129.9 455.28 C2138.53 456.86 2146.87 456.86 2164.32 456.86 C2181.77 456.86 2208.33 456.86 2234.9 456.86 C2261.47 456.86 2288.03 456.86 2305.48 456.86 C2322.93 456.86 2331.27 456.86 2339.6 456.86 C2347.93 456.86 2356.27 456.86 2365.32 456.86 C2374.37 456.86 2384.13 456.86 2389.02 456.86 L2391.5 456.86" fill="none" stroke="#333333" stroke-width="1.5" marker-end="url(#arrow-point-333333)" />
    <path d="M2059.61 457 L2071.38 470.78 C2083.14 484.56 2106.67 512.11 2122.6 525.88 C2138.53 539.66 2146.87 539.66 2164.32 539.66 C2181.77 539.66 2208.33 539.66 2234.9 539.66 C2261.47 539.66 2288.03 539.66 2305.48 539.66 C2322.93 539.66 2331.27 539.66 2339.6 539.66 C2347.93 539.66 2356.27 539.66 2371.05 539.66 C2385.83 539.66 2407.07 539.66 2417.68 539.66 L2425.9 539.66" fill="none" stroke="#333333" stroke-width="1.5" marker-end="url(#arrow-point-333333)" />
    <path d="M177.4 727.18 L181.57 727.18 C185.73 727.18 194.07 727.18 202.4 727.18 C210.73 727.18 219.07 727.18 227.4 727.18 C235.73 727.18 244.07 727.18 266.53 727.18 C289 727.18 325.6 727.18 362.2 727.18 C398.8 727.18 435.4 727.18 457.87 727.18 C480.33 727.18 488.67 727.18 497 727.18 C505.33 727.18 513.67 727.18 535.42 727.18 C557.17 727.18 592.33 727.18 627.5 727.18 C662.67 727.18 697.83 727.18 735.73 727.18 C773.63 727.18 814.27 727.18 854.9 727.18 C895.53 727.18 936.17 727.18 960.65 727.18 C985.13 727.18 993.47 727.18 1001.8 727.18 C1010.13 727.18 1018.47 727.18 1039.46 666.78 C1060.44 606.38 1094.09 485.57 1110.91 425.16 L1127.09 367.07" fill="none" stroke="#333333" stroke-width="1.5" stroke-dasharray="3 3" marker-end="url(#arrow-point-333333)" />
    <path d="M165.78 743.58 L171.88 745.13 C177.99 746.68 190.19 749.78 200.46 751.33 C210.73 752.88 219.07 752.88 227.4 752.88 C235.73 752.88 244.07 752.88 266.53 752.88 C289 752.88 325.6 752.88 362.2 752.88 C398.8 752.88 435.4 752.88 457.87 752.88 C480.33 752.88 488.67 752.88 497 752.88 C505.33 752.88 513.67 752.88 535.42 752.88 C557.17 752.88 592.33 752.88 627.5 752.88 C662.67 752.88 697.83 752.88 735.73 752.88 C773.63 752.88 814.27 752.88 854.9 752.88 C895.53 752.88 936.17 752.88 960.65 752.88 C985.13 752.88 993.47 752.88 1001.8 752.88 C1010.13 752.88 1018.47 752.88 1040.22 752.88 C1061.97 752.88 1097.13 752.88 1132.3 752.88 C1167.47 752.88 1202.63 752.88 1233.5 702 C1264.37 651.11 1290.95 549.33 1304.23 498.45 L1316.91 449.88" fill="none" stroke="#333333" stroke-width="1.5" stroke-dasharray="3 3" marker-end="url(#arrow-point-333333)" />
    <path d="M165.78 710.78 L171.88 709.23 C177.99 707.68 190.19 704.58 200.46 703.03 C210.73 701.48 219.07 701.48 227.4 701.48 C235.73 701.48 244.07 701.48 264.93 672.96 C285.8 644.44 319.2 587.4 335.9 558.88 L351.38 532.43" fill="none" stroke="#333333" stroke-width="1.5" stroke-dasharray="3 3" marker-end="url(#arrow-point-333333)" />
    <path d="M1212.8 431.16 L1216.97 431.16 C1221.13 431.16 1229.47 431.16 1237.8 431.16 C1246.13 431.16 1254.47 431.16 1258.63 431.16 L1260.4 431.16" fill="none" stroke="#333333" stroke-width="1.5" stroke-dasharray="3 3" marker-end="url(#arrow-point-333333)" />
    <path d="M1902.8 727.18 L1906.97 727.18 C1911.13 727.18 1919.47 727.18 1931.38 727.18 C1943.3 727.18 1958.8 727.18 1966.55 727.18 L1971.9 727.18" fill="none" stroke="#333333" stroke-width="1.5" stroke-dasharray="3 3" marker-end="url(#arrow-point-333333)" />
    <path d="M42.2 41.07 L42.2 86.01 A59 12.14 0 0 0 160.2 86.01 L160.2 41.07 A59 12.14 0 0 1 42.2 41.07" fill="#ececffb2" stroke="#9370db" stroke-width="1.5" />
    <path d="M42.2 41.07 A59 12.14 0 0 1 160.2 41.07 A59 12.14 0 0 1 42.2 41.07" fill="#ececffb2" stroke="#9370db" stroke-width="1.5" />
    <text x="101.2" y="69.61" text-anchor="middle" dominant-baseline="central" font-size="14px" font-family="'Intel One Mono', 'SF Mono', 'Cascadia Code', 'JetBrains Mono', 'Fira Code', 'Consolas', 'Menlo', monospace" fill="#333333">MySQL OLTP</text>
    <path d="M42.2 148.15 L42.2 193.09 A59 12.14 0 0 0 160.2 193.09 L160.2 148.15 A59 12.14 0 0 1 42.2 148.15" fill="#ececffb2" stroke="#9370db" stroke-width="1.5" />
    <path d="M42.2 148.15 A59 12.14 0 0 1 160.2 148.15 A59 12.14 0 0 1 42.2 148.15" fill="#ececffb2" stroke="#9370db" stroke-width="1.5" />
    <text x="101.2" y="176.69" text-anchor="middle" dominant-baseline="central" font-size="14px" font-family="'Intel One Mono', 'SF Mono', 'Cascadia Code', 'JetBrains Mono', 'Fira Code', 'Consolas', 'Menlo', monospace" fill="#333333">PostgreSQL</text>
    <rect x="37.9" y="249.16" width="126.6" height="32.8" fill="#ececffb2" stroke="#9370db" stroke-width="1.5" />
    <text x="101.2" y="265.56" text-anchor="middle" dominant-baseline="central" font-size="14px" font-family="'Intel One Mono', 'SF Mono', 'Cascadia Code', 'JetBrains Mono', 'Fira Code', 'Consolas', 'Menlo', monospace" fill="#333333">S3 Raw Logs</text>
    <rect x="33.6" y="331.96" width="135.2" height="32.8" fill="#ececffb2" stroke="#9370db" stroke-width="1.5" />
    <text x="101.2" y="348.36" text-anchor="middle" dominant-baseline="central" font-size="14px" font-family="'Intel One Mono', 'SF Mono', 'Cascadia Code', 'JetBrains Mono', 'Fira Code', 'Consolas', 'Menlo', monospace" fill="#333333">Kafka Topics</text>
    <rect x="46.5" y="414.76" width="109.4" height="32.8" fill="#ececffb2" stroke="#9370db" stroke-width="1.5" />
    <text x="101.2" y="431.16" text-anchor="middle" dominant-baseline="central" font-size="14px" font-family="'Intel One Mono', 'SF Mono', 'Cascadia Code', 'JetBrains Mono', 'Fira Code', 'Consolas', 'Menlo', monospace" fill="#333333">REST APIs</text>
    <rect x="42.2" y="497.56" width="118" height="32.8" fill="#ececffb2" stroke="#9370db" stroke-width="1.5" />
    <text x="101.2" y="513.96" text-anchor="middle" dominant-baseline="central" font-size="14px" font-family="'Intel One Mono', 'SF Mono', 'Cascadia Code', 'JetBrains Mono', 'Fira Code', 'Consolas', 'Menlo', monospace" fill="#333333">SFTP Drops</text>
    <rect x="294.6" y="115.9" width="135.2" height="32.8" fill="#ececffb2" stroke="#9370db" stroke-width="1.5" />
    <text x="362.2" y="132.3" text-anchor="middle" dominant-baseline="central" font-size="14px" font-family="'Intel One Mono', 'SF Mono', 'Cascadia Code', 'JetBrains Mono', 'Fira Code', 'Consolas', 'Menlo', monospace" fill="#333333">Debezium CDC</text>
    <rect x="277.4" y="294.86" width="169.6" height="32.8" fill="#ececffb2" stroke="#9370db" stroke-width="1.5" />
    <text x="362.2" y="311.26" text-anchor="middle" dominant-baseline="central" font-size="14px" font-family="'Intel One Mono', 'SF Mono', 'Cascadia Code', 'JetBrains Mono', 'Fira Code', 'Consolas', 'Menlo', monospace" fill="#333333">Kinesis Firehose</text>
    <rect x="294.6" y="414.76" width="135.2" height="32.8" fill="#ececffb2" stroke="#9370db" stroke-width="1.5" />
    <text x="362.2" y="431.16" text-anchor="middle" dominant-baseline="central" font-size="14px" font-family="'Intel One Mono', 'SF Mono', 'Cascadia Code', 'JetBrains Mono', 'Fira Code', 'Consolas', 'Menlo', monospace" fill="#333333">Airbyte Sync</text>
    <rect x="281.7" y="497.56" width="161" height="32.8" fill="#ececffb2" stroke="#9370db" stroke-width="1.5" />
    <text x="362.2" y="513.96" text-anchor="middle" dominant-baseline="central" font-size="14px" font-family="'Intel One Mono', 'SF Mono', 'Cascadia Code', 'JetBrains Mono', 'Fira Code', 'Consolas', 'Menlo', monospace" fill="#333333">Custom Ingester</text>
    <rect x="547" y="331.96" width="161" height="32.8" fill="#ececffb2" stroke="#9370db" stroke-width="1.5" />
    <text x="627.5" y="348.36" text-anchor="middle" dominant-baseline="central" font-size="14px" font-family="'Intel One Mono', 'SF Mono', 'Cascadia Code', 'JetBrains Mono', 'Fira Code', 'Consolas', 'Menlo', monospace" fill="#333333">S3 Landing Zone</text>
    <polygon points="854.9,251.46 951.8,348.36 854.9,445.26 758,348.36" fill="#ececffb2" stroke="#9370db" stroke-width="1.5" />
    <text x="854.9" y="348.36" text-anchor="middle" dominant-baseline="central" font-size="14px" font-family="'Intel One Mono', 'SF Mono', 'Cascadia Code', 'JetBrains Mono', 'Fira Code', 'Consolas', 'Menlo', monospace" fill="#333333">Schema Registry</text>
    <rect x="1073.3" y="331.96" width="118" height="32.8" fill="#ececffb2" stroke="#9370db" stroke-width="1.5" />
    <text x="1132.3" y="348.36" text-anchor="middle" dominant-baseline="central" font-size="14px" font-family="'Intel One Mono', 'SF Mono', 'Cascadia Code', 'JetBrains Mono', 'Fira Code', 'Consolas', 'Menlo', monospace" fill="#333333">Spark Jobs</text>
    <rect x="1262.8" y="414.76" width="118" height="32.8" fill="#ececffb2" stroke="#9370db" stroke-width="1.5" />
    <text x="1321.8" y="431.16" text-anchor="middle" dominant-baseline="central" font-size="14px" font-family="'Intel One Mono', 'SF Mono', 'Cascadia Code', 'JetBrains Mono', 'Fira Code', 'Consolas', 'Menlo', monospace" fill="#333333">dbt Models</text>
    <polygon points="1514.8,347.16 1598.8,431.16 1514.8,515.16 1430.8,431.16" fill="#ececffb2" stroke="#9370db" stroke-width="1.5" />
    <text x="1514.8" y="431.16" text-anchor="middle" dominant-baseline="central" font-size="14px" font-family="'Intel One Mono', 'SF Mono', 'Cascadia Code', 'JetBrains Mono', 'Fira Code', 'Consolas', 'Menlo', monospace" fill="#333333">Data Quality</text>
    <rect x="1051.8" y="414.76" width="161" height="32.8" fill="#ececffb2" stroke="#9370db" stroke-width="1.5" />
    <text x="1132.3" y="431.16" text-anchor="middle" dominant-baseline="central" font-size="14px" font-family="'Intel One Mono', 'SF Mono', 'Cascadia Code', 'JetBrains Mono', 'Fira Code', 'Consolas', 'Menlo', monospace" fill="#333333">Lineage Tracker</text>
    <rect x="1750.4" y="404.76" width="135.2" height="32.8" fill="#ececffb2" stroke="#9370db" stroke-width="1.5" />
    <text x="1818" y="421.16" text-anchor="middle" dominant-baseline="central" font-size="14px" font-family="'Intel One Mono', 'SF Mono', 'Cascadia Code', 'JetBrains Mono', 'Fira Code', 'Consolas', 'Menlo', monospace" fill="#333333">S3 Data Lake</text>
    <path d="M1952.8 397.89 L1952.8 444.43 A76.2 13.73 0 0 0 2105.2 444.43 L2105.2 397.89 A76.2 13.73 0 0 1 1952.8 397.89" fill="#ececffb2" stroke="#9370db" stroke-width="1.5" />
    <path d="M1952.8 397.89 A76.2 13.73 0 0 1 2105.2 397.89 A76.2 13.73 0 0 1 1952.8 397.89" fill="#ececffb2" stroke="#9370db" stroke-width="1.5" />
    <text x="2029" y="428.03" text-anchor="middle" dominant-baseline="central" font-size="14px" font-family="'Intel One Mono', 'SF Mono', 'Cascadia Code', 'JetBrains Mono', 'Fira Code', 'Consolas', 'Menlo', monospace" fill="#333333">Apache Iceberg</text>
    <path d="M2184.5 246.45 L2184.5 290.41 A50.4 11.16 0 0 0 2285.3 290.41 L2285.3 246.45 A50.4 11.16 0 0 1 2184.5 246.45" fill="#ececffb2" stroke="#9370db" stroke-width="1.5" />
    <path d="M2184.5 246.45 A50.4 11.16 0 0 1 2285.3 246.45 A50.4 11.16 0 0 1 2184.5 246.45" fill="#ececffb2" stroke="#9370db" stroke-width="1.5" />
    <text x="2234.9" y="274.01" text-anchor="middle" dominant-baseline="central" font-size="14px" font-family="'Intel One Mono', 'SF Mono', 'Cascadia Code', 'JetBrains Mono', 'Fira Code', 'Consolas', 'Menlo', monospace" fill="#333333">Redshift</text>
    <path d="M2180.2 351.83 L2180.2 396.29 A54.7 11.67 0 0 0 2289.6 396.29 L2289.6 351.83 A54.7 11.67 0 0 1 2180.2 351.83" fill="#ececffb2" stroke="#9370db" stroke-width="1.5" />
    <path d="M2180.2 351.83 A54.7 11.67 0 0 1 2289.6 351.83 A54.7 11.67 0 0 1 2180.2 351.83" fill="#ececffb2" stroke="#9370db" stroke-width="1.5" />
    <text x="2234.9" y="379.89" text-anchor="middle" dominant-baseline="central" font-size="14px" font-family="'Intel One Mono', 'SF Mono', 'Cascadia Code', 'JetBrains Mono', 'Fira Code', 'Consolas', 'Menlo', monospace" fill="#333333">Snowflake</text>
    <rect x="2436.9" y="169.23" width="83.6" height="32.8" fill="#ececffb2" stroke="#9370db" stroke-width="1.5" />
    <text x="2478.7" y="185.63" text-anchor="middle" dominant-baseline="central" font-size="14px" font-family="'Intel One Mono', 'SF Mono', 'Cascadia Code', 'JetBrains Mono', 'Fira Code', 'Consolas', 'Menlo', monospace" fill="#333333">Looker</text>
    <rect x="2428.3" y="252.03" width="100.8" height="32.8" fill="#ececffb2" stroke="#9370db" stroke-width="1.5" />
    <text x="2478.7" y="268.43" text-anchor="middle" dominant-baseline="central" font-size="14px" font-family="'Intel One Mono', 'SF Mono', 'Cascadia Code', 'JetBrains Mono', 'Fira Code', 'Consolas', 'Menlo', monospace" fill="#333333">Metabase</text>
    <rect x="2389.6" y="357.66" width="178.2" height="32.8" fill="#ececffb2" stroke="#9370db" stroke-width="1.5" />
    <text x="2478.7" y="374.06" text-anchor="middle" dominant-baseline="central" font-size="14px" font-family="'Intel One Mono', 'SF Mono', 'Cascadia Code', 'JetBrains Mono', 'Fira Code', 'Consolas', 'Menlo', monospace" fill="#333333">Jupyter Notebooks</text>
    <rect x="2393.9" y="440.46" width="169.6" height="32.8" fill="#ececffb2" stroke="#9370db" stroke-width="1.5" />
    <text x="2478.7" y="456.86" text-anchor="middle" dominant-baseline="central" font-size="14px" font-family="'Intel One Mono', 'SF Mono', 'Cascadia Code', 'JetBrains Mono', 'Fira Code', 'Consolas', 'Menlo', monospace" fill="#333333">ML Feature Store</text>
    <rect x="2428.3" y="523.26" width="100.8" height="32.8" fill="#ececffb2" stroke="#9370db" stroke-width="1.5" />
    <text x="2478.7" y="539.66" text-anchor="middle" dominant-baseline="central" font-size="14px" font-family="'Intel One Mono', 'SF Mono', 'Cascadia Code', 'JetBrains Mono', 'Fira Code', 'Consolas', 'Menlo', monospace" fill="#333333">Data API</text>
    <rect x="25" y="710.78" width="152.4" height="32.8" fill="#ececffb2" stroke="#9370db" stroke-width="1.5" />
    <text x="101.2" y="727.18" text-anchor="middle" dominant-baseline="central" font-size="14px" font-family="'Intel One Mono', 'SF Mono', 'Cascadia Code', 'JetBrains Mono', 'Fira Code', 'Consolas', 'Menlo', monospace" fill="#333333">Apache Airflow</text>
    <rect x="1733.2" y="710.78" width="169.6" height="32.8" fill="#ececffb2" stroke="#9370db" stroke-width="1.5" />
    <text x="1818" y="727.18" text-anchor="middle" dominant-baseline="central" font-size="14px" font-family="'Intel One Mono', 'SF Mono', 'Cascadia Code', 'JetBrains Mono', 'Fira Code', 'Consolas', 'Menlo', monospace" fill="#333333">Pipeline Monitor</text>
    <rect x="1974.3" y="710.78" width="109.4" height="32.8" fill="#ececffb2" stroke="#9370db" stroke-width="1.5" />
    <text x="2029" y="727.18" text-anchor="middle" dominant-baseline="central" font-size="14px" font-family="'Intel One Mono', 'SF Mono', 'Cascadia Code', 'JetBrains Mono', 'Fira Code', 'Consolas', 'Menlo', monospace" fill="#333333">PagerDuty</text>
  </g>
</svg>
