<svg xmlns="http://www.w3.org/2000/svg" viewBox="0 0 2030.8 1105.29" width="2030.8" height="1105.29">
  <defs>
    <marker id="arrow-point" viewBox="0 0 10 10" refX="8" refY="5" markerWidth="8" markerHeight="8" orient="auto-start-reverse">
      <path d="M10 5 L0 10 L4 5 L0 0 Z" fill="#333333" />
    </marker>
  </defs>
  <g transform="translate(20, 20)">
    <rect x="165.35" y="0" width="1788.5" height="554.94" rx="5" ry="5" fill="#ecf2dc99" stroke="#a8ae8e" stroke-width="1" />
    <text x="173.35" y="12" text-anchor="start" dominant-baseline="central" font-size="13px" font-family="'Intel One Mono', 'SF Mono', 'Cascadia Code', 'JetBrains Mono', 'Fira Code', 'Consolas', 'Menlo', monospace" fill="#333333" font-weight="bold">Command Side</text>
    <rect x="554.2" y="845.54" width="938.3" height="219.75" rx="5" ry="5" fill="#ecf2dc99" stroke="#a8ae8e" stroke-width="1" />
    <text x="562.2" y="857.54" text-anchor="start" dominant-baseline="central" font-size="13px" font-family="'Intel One Mono', 'SF Mono', 'Cascadia Code', 'JetBrains Mono', 'Fira Code', 'Consolas', 'Menlo', monospace" fill="#333333" font-weight="bold">Read Side</text>
    <rect x="1546.1" y="712.74" width="444.7" height="244.75" rx="5" ry="5" fill="#ecf2dc99" stroke="#a8ae8e" stroke-width="1" />
    <text x="1554.1" y="724.74" text-anchor="start" dominant-baseline="central" font-size="13px" font-family="'Intel One Mono', 'SF Mono', 'Cascadia Code', 'JetBrains Mono', 'Fira Code', 'Consolas', 'Menlo', monospace" fill="#333333" font-weight="bold">Sagas</text>
    <rect x="-34.4" y="604.94" width="521.6" height="190.6" rx="5" ry="5" fill="#ecf2dc99" stroke="#a8ae8e" stroke-width="1" />
    <text x="-26.4" y="616.94" text-anchor="start" dominant-baseline="central" font-size="13px" font-family="'Intel One Mono', 'SF Mono', 'Cascadia Code', 'JetBrains Mono', 'Fira Code', 'Consolas', 'Menlo', monospace" fill="#333333" font-weight="bold">Event Bus</text>
    <rect x="541.6" y="712.74" width="961.2" height="82.8" rx="5" ry="5" fill="#ecf2dc99" stroke="#a8ae8e" stroke-width="1" />
    <text x="549.6" y="724.74" text-anchor="start" dominant-baseline="central" font-size="13px" font-family="'Intel One Mono', 'SF Mono', 'Cascadia Code', 'JetBrains Mono', 'Fira Code', 'Consolas', 'Menlo', monospace" fill="#333333" font-weight="bold">Projections</text>
    <path d="M1630.48 57.8 L1630.6 61.97 C1630.72 66.13 1630.96 74.47 1631.08 82.8 C1631.2 91.13 1631.2 99.47 1631.2 103.63 L1631.2 104.65" fill="none" stroke="#333333" stroke-width="1.5" marker-end="url(#arrow-point)" />
    <path d="M1631.2 140.6 L1631.2 144.77 C1631.2 148.93 1631.2 157.27 1653.99 172.91 C1676.77 188.56 1722.34 211.52 1745.13 223.01 L1765.1 233.07" fill="none" stroke="#333333" stroke-width="1.5" marker-end="url(#arrow-point)" />
    <path d="M1811.8 322.6 L1811.8 328.17 C1811.8 333.73 1811.8 344.87 1811.8 356 C1811.8 367.13 1811.8 378.27 1811.8 383.83 L1811.8 386.25" fill="none" stroke="#333333" stroke-width="1.5" marker-end="url(#arrow-point)" />
    <rect x="1789.8" y="344.8" width="44" height="22.4" rx="2" ry="2" fill="#f5f3ffbf" stroke="#f5f3ffbf" stroke-width="0.5" />
    <text x="1811.8" y="356" text-anchor="middle" dominant-baseline="central" font-size="12px" font-family="'Intel One Mono', 'SF Mono', 'Cascadia Code', 'JetBrains Mono', 'Fira Code', 'Consolas', 'Menlo', monospace" fill="#333333">valid</text>
    <path d="M1732.8 407.95 L1492.43 414.49 C1252.07 421.03 771.33 434.12 530.97 443.79 C290.6 453.46 290.6 459.71 290.6 462.82" fill="none" stroke="#333333" stroke-width="1.5" marker-end="url(#arrow-point)" />
    <path d="M290.6 536.17 L290.6 539.3 C290.6 542.43 290.6 548.68 290.6 555.98 C290.6 563.27 290.6 571.61 290.6 579.94 C290.6 588.27 290.6 596.61 290.6 604.94 C290.6 613.27 290.6 621.61 290.6 625.77 L290.6 626.79" fill="none" stroke="#333333" stroke-width="1.5" stroke-dasharray="3 3" marker-end="url(#arrow-point)" />
    <path d="M309.69 662.74 L314.54 666.91 C319.4 671.07 329.1 679.41 333.95 687.74 C338.8 696.07 338.8 704.41 338.8 712.74 C338.8 721.07 338.8 729.41 338.8 733.57 L338.8 734.59" fill="none" stroke="#333333" stroke-width="1.5" marker-end="url(#arrow-point)" />
    <path d="M317.62 662.74 L324.48 666.91 C331.34 671.07 345.07 679.41 351.94 687.74 C358.8 696.07 358.8 704.41 395.1 713.57 C431.4 722.73 504 732.71 540.3 737.7 L573.48 742.27" fill="none" stroke="#333333" stroke-width="1.5" marker-end="url(#arrow-point)" />
    <path d="M325.54 662.74 L334.42 666.91 C343.29 671.07 361.05 679.41 369.92 687.74 C378.8 696.07 378.8 704.41 447.83 714.13 C516.87 723.86 654.93 734.97 723.97 740.53 L789.86 745.84" fill="none" stroke="#333333" stroke-width="1.5" marker-end="url(#arrow-point)" />
    <path d="M341.38 662.74 L354.29 666.91 C367.19 671.07 392.99 679.41 405.9 687.74 C418.8 696.07 418.8 704.41 560.3 714.75 C701.8 725.09 984.8 737.43 1126.3 743.6 L1264.65 749.64" fill="none" stroke="#333333" stroke-width="1.5" marker-end="url(#arrow-point)" />
    <path d="M333.46 662.74 L344.35 666.91 C355.24 671.07 377.02 679.41 387.91 687.74 C398.8 696.07 398.8 704.41 506.17 714.65 C613.53 724.89 828.27 737.04 935.63 743.12 L1039.86 749.02" fill="none" stroke="#333333" stroke-width="1.5" marker-end="url(#arrow-point)" />
    <path d="M223.97 662.74 L207.04 666.91 C190.11 671.07 156.26 679.41 139.33 687.74 C122.4 696.07 122.4 704.41 122.4 712.74 C122.4 721.07 122.4 729.41 122.4 733.57 L122.4 734.59" fill="none" stroke="#333333" stroke-width="1.5" stroke-dasharray="3 3" marker-end="url(#arrow-point)" />
    <path d="M349.31 662.74 L364.22 666.91 C379.14 671.07 408.97 679.41 423.88 687.74 C438.8 696.07 438.8 704.41 629.18 715.14 C819.57 725.87 1200.33 739.01 1390.72 745.57 L1577.95 752.03" fill="none" stroke="#333333" stroke-width="1.5" marker-end="url(#arrow-point)" />
    <path d="M357.23 662.74 L374.16 666.91 C391.09 671.07 424.94 679.41 441.87 687.74 C458.8 696.07 458.8 704.41 673.52 715.13 C888.23 725.86 1317.67 738.99 1532.38 745.55 L1743.95 752.01" fill="none" stroke="#333333" stroke-width="1.5" marker-end="url(#arrow-point)" />
    <path d="M659.8 770.54 L659.8 774.71 C659.8 778.87 659.8 787.21 659.8 795.54 C659.8 803.87 659.8 812.21 659.8 820.54 C659.8 828.87 659.8 837.21 659.8 844.65 C659.8 852.1 659.8 858.66 659.8 861.94 L659.8 862.08" fill="none" stroke="#333333" stroke-width="1.5" marker-end="url(#arrow-point)" />
    <path d="M893 770.54 L893 774.71 C893 778.87 893 787.21 893 795.54 C893 803.87 893 812.21 893 820.54 C893 828.87 893 837.21 893 844.33 C893 851.44 893 857.35 893 860.1" fill="none" stroke="#333333" stroke-width="1.5" marker-end="url(#arrow-point)" />
    <path d="M1367.8 770.54 L1367.8 774.71 C1367.8 778.87 1367.8 787.21 1373.78 795.54 C1379.77 803.87 1391.73 812.21 1397.72 820.54 C1403.7 828.87 1403.7 837.21 1403.7 845.08 C1403.7 852.95 1403.7 860.36 1403.7 864.06 L1403.7 864.62" fill="none" stroke="#333333" stroke-width="1.5" marker-end="url(#arrow-point)" />
    <path d="M1130.4 770.54 L1130.4 774.71 C1130.4 778.87 1130.4 787.21 1130.4 795.54 C1130.4 803.87 1130.4 812.21 1130.4 820.54 C1130.4 828.87 1130.4 837.21 1130.4 844.65 C1130.4 852.1 1130.4 858.66 1130.4 861.94 L1130.4 862.08" fill="none" stroke="#333333" stroke-width="1.5" marker-end="url(#arrow-point)" />
    <path d="M659.8 937.81 L659.8 941.09 C659.8 944.37 659.8 950.93 659.8 958.38 C659.8 965.83 659.8 974.16 709.48 984.17 C759.17 994.18 858.53 1005.87 908.22 1011.72 L954.77 1017.2" fill="none" stroke="#333333" stroke-width="1.5" marker-end="url(#arrow-point)" />
    <path d="M893 939.78 L893 942.73 C893 945.68 893 951.59 893 958.71 C893 965.83 893 974.16 904.95 982.49 C916.89 990.83 940.79 999.16 952.73 1003.33 L961.7 1006.46" fill="none" stroke="#333333" stroke-width="1.5" marker-end="url(#arrow-point)" />
    <path d="M1130.4 937.81 L1130.4 941.09 C1130.4 944.37 1130.4 950.93 1130.4 958.38 C1130.4 965.83 1130.4 974.16 1118.45 982.49 C1106.51 990.83 1082.61 999.16 1070.67 1003.33 L1061.7 1006.46" fill="none" stroke="#333333" stroke-width="1.5" marker-end="url(#arrow-point)" />
    <path d="M1403.7 935.26 L1403.7 938.97 C1403.7 942.67 1403.7 950.08 1403.7 957.95 C1403.7 965.83 1403.7 974.16 1403.7 982.49 C1403.7 990.83 1403.7 999.16 1403.7 1003.33 L1403.7 1004.34" fill="none" stroke="#333333" stroke-width="1.5" marker-end="url(#arrow-point)" />
    <path d="M1813.5 770.54 L1813.5 774.71 C1813.5 778.87 1813.5 787.21 1813.5 795.54 C1813.5 803.87 1813.5 812.21 1813.5 820.54 C1813.5 828.87 1813.5 837.21 1819.47 847.97 C1825.45 858.73 1837.4 871.92 1843.37 878.52 L1847.23 882.78" fill="none" stroke="#333333" stroke-width="1.5" stroke-dasharray="3 3" marker-end="url(#arrow-point)" />
    <path d="M1065.5 1015.61 L1101.33 1010.09 C1137.17 1004.57 1208.83 993.53 1244.67 983.84 C1280.5 974.16 1280.5 965.83 1280.5 952.33 C1280.5 938.83 1280.5 920.18 1280.5 901.52 C1280.5 882.86 1280.5 864.2 1280.5 850.7 C1280.5 837.21 1280.5 828.87 1320.88 820.54 C1361.27 812.21 1442.03 803.87 1482.42 792.81 C1522.8 781.74 1522.8 767.94 1522.8 754.14 C1522.8 740.34 1522.8 726.54 1522.8 715.47 C1522.8 704.41 1522.8 696.07 1522.8 685.01 C1522.8 673.94 1522.8 660.14 1522.8 646.34 C1522.8 632.54 1522.8 618.74 1522.8 607.67 C1522.8 596.61 1522.8 588.27 1522.8 579.94 C1522.8 571.61 1522.8 563.27 1522.8 550.13 C1522.8 536.98 1522.8 519.03 1522.8 501.07 C1522.8 483.11 1522.8 465.16 1522.8 449.28 C1522.8 433.4 1522.8 419.6 1522.8 404.4 C1522.8 389.2 1522.8 372.6 1522.8 347.73 C1522.8 322.87 1522.8 289.73 1522.8 258 C1522.8 226.27 1522.8 195.93 1522.8 173.87 C1522.8 151.8 1522.8 138 1522.8 124.2 C1522.8 110.4 1522.8 96.6 1533.8 85.45 C1544.8 74.3 1566.8 65.81 1577.8 61.56 L1585.86 58.45" fill="none" stroke="#333333" stroke-width="1.5" marker-end="url(#arrow-point)" />
    <path d="M1639.1 737.74 L1639.1 733.57 C1639.1 729.41 1639.1 721.07 1639.1 712.74 C1639.1 704.41 1639.1 696.07 1639.1 685.01 C1639.1 673.94 1639.1 660.14 1639.1 646.34 C1639.1 632.54 1639.1 618.74 1639.1 607.67 C1639.1 596.61 1639.1 588.27 1639.1 579.94 C1639.1 571.61 1639.1 563.27 1639.1 550.13 C1639.1 536.98 1639.1 519.03 1639.1 501.07 C1639.1 483.11 1639.1 465.16 1656.48 452.01 C1673.86 438.87 1708.62 430.53 1726.01 426.37 L1740.32 422.93" fill="none" stroke="#333333" stroke-width="1.5" stroke-dasharray="3 3" marker-end="url(#arrow-point)" />
    <path d="M1813.5 737.74 L1813.5 733.57 C1813.5 729.41 1813.5 721.07 1813.5 712.74 C1813.5 704.41 1813.5 696.07 1813.5 685.01 C1813.5 673.94 1813.5 660.14 1813.5 646.34 C1813.5 632.54 1813.5 618.74 1813.5 607.67 C1813.5 596.61 1813.5 588.27 1813.5 579.94 C1813.5 571.61 1813.5 563.27 1813.5 550.13 C1813.5 536.98 1813.5 519.03 1813.5 501.07 C1813.5 483.11 1813.5 465.16 1813.33 452.01 C1813.16 438.87 1812.82 430.53 1812.64 426.37 L1812.6 425.35" fill="none" stroke="#333333" stroke-width="1.5" stroke-dasharray="3 3" marker-end="url(#arrow-point)" />
    <path d="M1879.05 885.12 L1885.03 878.52 C1891 871.92 1902.95 858.73 1908.93 847.97 C1914.9 837.21 1914.9 828.87 1914.9 820.54 C1914.9 812.21 1914.9 803.87 1914.9 792.81 C1914.9 781.74 1914.9 767.94 1914.9 754.14 C1914.9 740.34 1914.9 726.54 1914.9 715.47 C1914.9 704.41 1914.9 696.07 1914.9 685.01 C1914.9 673.94 1914.9 660.14 1914.9 646.34 C1914.9 632.54 1914.9 618.74 1914.9 607.67 C1914.9 596.61 1914.9 588.27 1914.9 579.94 C1914.9 571.61 1914.9 563.27 1914.9 550.13 C1914.9 536.98 1914.9 519.03 1914.9 501.07 C1914.9 483.11 1914.9 465.16 1904.52 452.01 C1894.15 438.87 1873.39 430.53 1863.02 426.37 L1855.56 423.37" fill="none" stroke="#333333" stroke-width="1.5" stroke-dasharray="3 3" marker-end="url(#arrow-point)" />
    <path d="M1840.19 218.99 L1846.91 210.09 C1853.63 201.19 1867.06 183.4 1873.78 167.6 C1880.5 151.8 1880.5 138 1880.5 124.2 C1880.5 110.4 1880.5 96.6 1845.62 83.93 C1810.73 71.27 1740.97 59.74 1706.08 53.97 L1674.31 48.72" fill="none" stroke="#333333" stroke-width="1.5" marker-end="url(#arrow-point)" />
    <rect x="1851.3" y="113" width="58.4" height="22.4" rx="2" ry="2" fill="#f5f3ffbf" stroke="#f5f3ffbf" stroke-width="0.5" />
    <text x="1880.5" y="124.2" text-anchor="middle" dominant-baseline="central" font-size="12px" font-family="'Intel One Mono', 'SF Mono', 'Cascadia Code', 'JetBrains Mono', 'Fira Code', 'Consolas', 'Menlo', monospace" fill="#333333">invalid</text>
    <rect x="1588.8" y="25" width="82.4" height="32.8" fill="#ececffb2" stroke="#9370db" stroke-width="1.5" />
    <text x="1630" y="41.4" text-anchor="middle" dominant-baseline="central" font-size="14px" font-family="'Intel One Mono', 'SF Mono', 'Cascadia Code', 'JetBrains Mono', 'Fira Code', 'Consolas', 'Menlo', monospace" fill="#333333">Web UI</text>
    <rect x="1569" y="107.8" width="124.4" height="32.8" fill="#ececffb2" stroke="#9370db" stroke-width="1.5" />
    <text x="1631.2" y="124.2" text-anchor="middle" dominant-baseline="central" font-size="14px" font-family="'Intel One Mono', 'SF Mono', 'Cascadia Code', 'JetBrains Mono', 'Fira Code', 'Consolas', 'Menlo', monospace" fill="#333333">Command API</text>
    <polygon points="1811.8,190.6 1877.8,256.6 1811.8,322.6 1745.8,256.6" fill="#ececffb2" stroke="#9370db" stroke-width="1.5" />
    <text x="1811.8" y="256.6" text-anchor="middle" dominant-baseline="central" font-size="14px" font-family="'Intel One Mono', 'SF Mono', 'Cascadia Code', 'JetBrains Mono', 'Fira Code', 'Consolas', 'Menlo', monospace" fill="#333333">Validate</text>
    <rect x="1732.8" y="389.4" width="158" height="32.8" fill="#ececffb2" stroke="#9370db" stroke-width="1.5" />
    <text x="1811.8" y="405.8" text-anchor="middle" dominant-baseline="central" font-size="14px" font-family="'Intel One Mono', 'SF Mono', 'Cascadia Code', 'JetBrains Mono', 'Fira Code', 'Consolas', 'Menlo', monospace" fill="#333333">Command Handler</text>
    <path d="M228.4 478.43 L228.4 523.7 A62.2 12.47 0 0 0 352.8 523.7 L352.8 478.43 A62.2 12.47 0 0 1 228.4 478.43" fill="#ececffb2" stroke="#9370db" stroke-width="1.5" />
    <path d="M228.4 478.43 A62.2 12.47 0 0 1 352.8 478.43 A62.2 12.47 0 0 1 228.4 478.43" fill="#ececffb2" stroke="#9370db" stroke-width="1.5" />
    <text x="290.6" y="507.3" text-anchor="middle" dominant-baseline="central" font-size="14px" font-family="'Intel One Mono', 'SF Mono', 'Cascadia Code', 'JetBrains Mono', 'Fira Code', 'Consolas', 'Menlo', monospace" fill="#333333">Event Store</text>
    <rect x="220" y="629.94" width="141.2" height="32.8" fill="#ececffb2" stroke="#9370db" stroke-width="1.5" />
    <text x="290.6" y="646.34" text-anchor="middle" dominant-baseline="central" font-size="14px" font-family="'Intel One Mono', 'SF Mono', 'Cascadia Code', 'JetBrains Mono', 'Fira Code', 'Consolas', 'Menlo', monospace" fill="#333333">Kafka Cluster</text>
    <rect x="35" y="737.74" width="174.8" height="32.8" fill="#ececffb2" stroke="#9370db" stroke-width="1.5" />
    <text x="122.4" y="754.14" text-anchor="middle" dominant-baseline="central" font-size="14px" font-family="'Intel One Mono', 'SF Mono', 'Cascadia Code', 'JetBrains Mono', 'Fira Code', 'Consolas', 'Menlo', monospace" fill="#333333">Dead Letter Queue</text>
    <rect x="259.8" y="737.74" width="158" height="32.8" fill="#ececffb2" stroke="#9370db" stroke-width="1.5" />
    <text x="338.8" y="754.14" text-anchor="middle" dominant-baseline="central" font-size="14px" font-family="'Intel One Mono', 'SF Mono', 'Cascadia Code', 'JetBrains Mono', 'Fira Code', 'Consolas', 'Menlo', monospace" fill="#333333">Schema Registry</text>
    <rect x="576.6" y="737.74" width="166.4" height="32.8" fill="#ececffb2" stroke="#9370db" stroke-width="1.5" />
    <text x="659.8" y="754.14" text-anchor="middle" dominant-baseline="central" font-size="14px" font-family="'Intel One Mono', 'SF Mono', 'Cascadia Code', 'JetBrains Mono', 'Fira Code', 'Consolas', 'Menlo', monospace" fill="#333333">Order Projection</text>
    <rect x="793" y="737.74" width="200" height="32.8" fill="#ececffb2" stroke="#9370db" stroke-width="1.5" />
    <text x="893" y="754.14" text-anchor="middle" dominant-baseline="central" font-size="14px" font-family="'Intel One Mono', 'SF Mono', 'Cascadia Code', 'JetBrains Mono', 'Fira Code', 'Consolas', 'Menlo', monospace" fill="#333333">Inventory Projection</text>
    <rect x="1267.8" y="737.74" width="200" height="32.8" fill="#ececffb2" stroke="#9370db" stroke-width="1.5" />
    <text x="1367.8" y="754.14" text-anchor="middle" dominant-baseline="central" font-size="14px" font-family="'Intel One Mono', 'SF Mono', 'Cascadia Code', 'JetBrains Mono', 'Fira Code', 'Consolas', 'Menlo', monospace" fill="#333333">Reporting Projection</text>
    <rect x="1043" y="737.74" width="174.8" height="32.8" fill="#ececffb2" stroke="#9370db" stroke-width="1.5" />
    <text x="1130.4" y="754.14" text-anchor="middle" dominant-baseline="central" font-size="14px" font-family="'Intel One Mono', 'SF Mono', 'Cascadia Code', 'JetBrains Mono', 'Fira Code', 'Consolas', 'Menlo', monospace" fill="#333333">Search Projection</text>
    <path d="M589.2 878.49 L589.2 924.55 A70.6 13.26 0 0 0 730.4 924.55 L730.4 878.49 A70.6 13.26 0 0 1 589.2 878.49" fill="#ececffb2" stroke="#9370db" stroke-width="1.5" />
    <path d="M589.2 878.49 A70.6 13.26 0 0 1 730.4 878.49 A70.6 13.26 0 0 1 589.2 878.49" fill="#ececffb2" stroke="#9370db" stroke-width="1.5" />
    <text x="659.8" y="908.15" text-anchor="middle" dominant-baseline="central" font-size="14px" font-family="'Intel One Mono', 'SF Mono', 'Cascadia Code', 'JetBrains Mono', 'Fira Code', 'Consolas', 'Menlo', monospace" fill="#333333">Order Read DB</text>
    <path d="M805.6 877.83 L805.6 925.2 A87.4 14.58 0 0 0 980.4 925.2 L980.4 877.83 A87.4 14.58 0 0 1 805.6 877.83" fill="#ececffb2" stroke="#9370db" stroke-width="1.5" />
    <path d="M805.6 877.83 A87.4 14.58 0 0 1 980.4 877.83 A87.4 14.58 0 0 1 805.6 877.83" fill="#ececffb2" stroke="#9370db" stroke-width="1.5" />
    <text x="893" y="908.8" text-anchor="middle" dominant-baseline="central" font-size="14px" font-family="'Intel One Mono', 'SF Mono', 'Cascadia Code', 'JetBrains Mono', 'Fira Code', 'Consolas', 'Menlo', monospace" fill="#333333">Inventory Read DB</text>
    <path d="M1349.9 879.33 L1349.9 923.7 A53.8 11.56 0 0 0 1457.5 923.7 L1457.5 879.33 A53.8 11.56 0 0 1 1349.9 879.33" fill="#ececffb2" stroke="#9370db" stroke-width="1.5" />
    <path d="M1349.9 879.33 A53.8 11.56 0 0 1 1457.5 879.33 A53.8 11.56 0 0 1 1349.9 879.33" fill="#ececffb2" stroke="#9370db" stroke-width="1.5" />
    <text x="1403.7" y="907.3" text-anchor="middle" dominant-baseline="central" font-size="14px" font-family="'Intel One Mono', 'SF Mono', 'Cascadia Code', 'JetBrains Mono', 'Fira Code', 'Consolas', 'Menlo', monospace" fill="#333333">Report DW</text>
    <path d="M1059.8 878.49 L1059.8 924.55 A70.6 13.26 0 0 0 1201 924.55 L1201 878.49 A70.6 13.26 0 0 1 1059.8 878.49" fill="#ececffb2" stroke="#9370db" stroke-width="1.5" />
    <path d="M1059.8 878.49 A70.6 13.26 0 0 1 1201 878.49 A70.6 13.26 0 0 1 1059.8 878.49" fill="#ececffb2" stroke="#9370db" stroke-width="1.5" />
    <text x="1130.4" y="908.15" text-anchor="middle" dominant-baseline="central" font-size="14px" font-family="'Intel One Mono', 'SF Mono', 'Cascadia Code', 'JetBrains Mono', 'Fira Code', 'Consolas', 'Menlo', monospace" fill="#333333">Elasticsearch</text>
    <rect x="957.9" y="1007.49" width="107.6" height="32.8" fill="#ececffb2" stroke="#9370db" stroke-width="1.5" />
    <text x="1011.7" y="1023.89" text-anchor="middle" dominant-baseline="central" font-size="14px" font-family="'Intel One Mono', 'SF Mono', 'Cascadia Code', 'JetBrains Mono', 'Fira Code', 'Consolas', 'Menlo', monospace" fill="#333333">Query API</text>
    <rect x="1349.9" y="1007.49" width="107.6" height="32.8" fill="#ececffb2" stroke="#9370db" stroke-width="1.5" />
    <text x="1403.7" y="1023.89" text-anchor="middle" dominant-baseline="central" font-size="14px" font-family="'Intel One Mono', 'SF Mono', 'Cascadia Code', 'JetBrains Mono', 'Fira Code', 'Consolas', 'Menlo', monospace" fill="#333333">Dashboard</text>
    <rect x="1581.1" y="737.74" width="116" height="32.8" fill="#ececffb2" stroke="#9370db" stroke-width="1.5" />
    <text x="1639.1" y="754.14" text-anchor="middle" dominant-baseline="central" font-size="14px" font-family="'Intel One Mono', 'SF Mono', 'Cascadia Code', 'JetBrains Mono', 'Fira Code', 'Consolas', 'Menlo', monospace" fill="#333333">Order Saga</text>
    <rect x="1747.1" y="737.74" width="132.8" height="32.8" fill="#ececffb2" stroke="#9370db" stroke-width="1.5" />
    <text x="1813.5" y="754.14" text-anchor="middle" dominant-baseline="central" font-size="14px" font-family="'Intel One Mono', 'SF Mono', 'Cascadia Code', 'JetBrains Mono', 'Fira Code', 'Consolas', 'Menlo', monospace" fill="#333333">Payment Saga</text>
    <rect x="1772.6" y="885.12" width="183.2" height="32.8" fill="#ececffb2" stroke="#9370db" stroke-width="1.5" />
    <text x="1864.2" y="901.52" text-anchor="middle" dominant-baseline="central" font-size="14px" font-family="'Intel One Mono', 'SF Mono', 'Cascadia Code', 'JetBrains Mono', 'Fira Code', 'Consolas', 'Menlo', monospace" fill="#333333">Compensate Handler</text>
  </g>
</svg>
