<svg xmlns="http://www.w3.org/2000/svg" viewBox="0 0 3873.2 543.2" width="3873.2" height="543.2">
  <defs>
    <marker id="arrow-point" viewBox="0 0 10 10" refX="10" refY="5" markerWidth="8" markerHeight="8" orient="auto-start-reverse">
      <path d="M10 5 L0 10 L4 5 L0 0 Z" fill="#333333" />
    </marker>
  </defs>
  <g transform="translate(20, 20)">
    <rect x="0" y="8.3" width="640" height="305.2" rx="5" ry="5" fill="#ecf2dc99" stroke="#a8ae8e" stroke-width="1" />
    <text x="8" y="20.3" text-anchor="start" dominant-baseline="central" font-size="13px" font-family="'Intel One Mono', 'SF Mono', 'Cascadia Code', 'JetBrains Mono', 'Fira Code', 'Consolas', 'Menlo', monospace" fill="#333333" font-weight="bold">Source</text>
    <rect x="690" y="7.8" width="1081.2" height="328.4" rx="5" ry="5" fill="#ecf2dc99" stroke="#a8ae8e" stroke-width="1" />
    <text x="698" y="19.8" text-anchor="start" dominant-baseline="central" font-size="13px" font-family="'Intel One Mono', 'SF Mono', 'Cascadia Code', 'JetBrains Mono', 'Fira Code', 'Consolas', 'Menlo', monospace" fill="#333333" font-weight="bold">CI</text>
    <rect x="715" y="27.8" width="582" height="288.4" rx="5" ry="5" fill="#ecf2dc99" stroke="#a8ae8e" stroke-width="1" />
    <text x="723" y="39.8" text-anchor="start" dominant-baseline="central" font-size="13px" font-family="'Intel One Mono', 'SF Mono', 'Cascadia Code', 'JetBrains Mono', 'Fira Code', 'Consolas', 'Menlo', monospace" fill="#333333" font-weight="bold">Checks</text>
    <rect x="1347" y="90.4" width="399.2" height="205.6" rx="5" ry="5" fill="#ecf2dc99" stroke="#a8ae8e" stroke-width="1" />
    <text x="1355" y="102.4" text-anchor="start" dominant-baseline="central" font-size="13px" font-family="'Intel One Mono', 'SF Mono', 'Cascadia Code', 'JetBrains Mono', 'Fira Code', 'Consolas', 'Menlo', monospace" fill="#333333" font-weight="bold">Build</text>
    <rect x="1821.2" y="0" width="1554.4" height="503.2" rx="5" ry="5" fill="#ecf2dc99" stroke="#a8ae8e" stroke-width="1" />
    <text x="1829.2" y="12" text-anchor="start" dominant-baseline="central" font-size="13px" font-family="'Intel One Mono', 'SF Mono', 'Cascadia Code', 'JetBrains Mono', 'Fira Code', 'Consolas', 'Menlo', monospace" fill="#333333" font-weight="bold">CD</text>
    <rect x="1846.2" y="20" width="772.4" height="375.2" rx="5" ry="5" fill="#ecf2dc99" stroke="#a8ae8e" stroke-width="1" />
    <text x="1854.2" y="32" text-anchor="start" dominant-baseline="central" font-size="13px" font-family="'Intel One Mono', 'SF Mono', 'Cascadia Code', 'JetBrains Mono', 'Fira Code', 'Consolas', 'Menlo', monospace" fill="#333333" font-weight="bold">Staging</text>
    <rect x="2735.8" y="152" width="614.8" height="320.7" rx="5" ry="5" fill="#ecf2dc99" stroke="#a8ae8e" stroke-width="1" />
    <text x="2743.8" y="164" text-anchor="start" dominant-baseline="central" font-size="13px" font-family="'Intel One Mono', 'SF Mono', 'Cascadia Code', 'JetBrains Mono', 'Fira Code', 'Consolas', 'Menlo', monospace" fill="#333333" font-weight="bold">Production</text>
    <rect x="3425.6" y="59.5" width="407.6" height="441.3" rx="5" ry="5" fill="#ecf2dc99" stroke="#a8ae8e" stroke-width="1" />
    <text x="3433.6" y="71.5" text-anchor="start" dominant-baseline="central" font-size="13px" font-family="'Intel One Mono', 'SF Mono', 'Cascadia Code', 'JetBrains Mono', 'Fira Code', 'Consolas', 'Menlo', monospace" fill="#333333" font-weight="bold">Observe</text>
    <path d="M132.6 138.6 L139.57 138.6 C146.53 138.6 160.47 138.6 174.4 138.6 C188.33 138.6 202.27 138.6 209.23 138.6 L216.2 138.6" fill="none" stroke="#333333" stroke-width="1.5" marker-end="url(#arrow-point)" />
    <rect x="156" y="127.4" width="36.8" height="22.4" rx="2" ry="2" fill="#f5f3ffbf" stroke="#f5f3ffbf" stroke-width="0.5" />
    <text x="174.4" y="138.6" text-anchor="middle" dominant-baseline="central" font-size="12px" font-family="'Intel One Mono', 'SF Mono', 'Cascadia Code', 'JetBrains Mono', 'Fira Code', 'Consolas', 'Menlo', monospace" fill="#333333">push</text>
    <path d="M340.6 138.6 L349.67 138.6 C358.73 138.6 376.87 138.6 395 138.6 C413.13 138.6 431.27 138.6 440.33 138.6 L449.4 138.6" fill="none" stroke="#333333" stroke-width="1.5" marker-end="url(#arrow-point)" />
    <rect x="365.8" y="127.4" width="58.4" height="22.4" rx="2" ry="2" fill="#f5f3ffbf" stroke="#f5f3ffbf" stroke-width="0.5" />
    <text x="395" y="138.6" text-anchor="middle" dominant-baseline="central" font-size="12px" font-family="'Intel One Mono', 'SF Mono', 'Cascadia Code', 'JetBrains Mono', 'Fira Code', 'Consolas', 'Menlo', monospace" fill="#333333">webhook</text>
    <path d="M570.34 183.26 L581.95 196.85 C593.56 210.44 616.78 237.62 632.56 251.21 C648.33 264.8 656.67 264.8 665 264.8 C673.33 264.8 681.67 264.8 690 264.8 C698.33 264.8 706.67 264.8 715 264.8 C723.33 264.8 731.67 264.8 735.83 264.8 L740 264.8" fill="none" stroke="#333333" stroke-width="1.5" marker-end="url(#arrow-point)" />
    <path d="M591.23 162.37 L599.36 165.64 C607.49 168.91 623.74 175.46 636.04 178.73 C648.33 182 656.67 182 665 182 C673.33 182 681.67 182 690 182 C698.33 182 706.67 182 717.1 182 C727.53 182 740.07 182 746.33 182 L752.6 182" fill="none" stroke="#333333" stroke-width="1.5" marker-end="url(#arrow-point)" />
    <path d="M609.28 132.88 L614.4 132.5 C619.52 132.12 629.76 131.36 639.05 130.98 C648.33 130.6 656.67 130.6 665 130.6 C673.33 130.6 681.67 130.6 690 130.6 C698.33 130.6 706.67 130.6 726.77 130.6 C746.87 130.6 778.73 130.6 810.6 130.6 C842.47 130.6 874.33 130.6 904.1 130.6 C933.87 130.6 961.53 130.6 989.2 130.6 C1016.87 130.6 1044.53 130.6 1065.33 130.6 C1086.13 130.6 1100.07 130.6 1107.03 130.6 L1114 130.6" fill="none" stroke="#333333" stroke-width="1.5" marker-end="url(#arrow-point)" />
    <path d="M585.58 109.18 L594.65 104.19 C603.72 99.19 621.86 89.19 635.1 84.2 C648.33 79.2 656.67 79.2 665 79.2 C673.33 79.2 681.67 79.2 690 79.2 C698.33 79.2 706.67 79.2 715 79.2 C723.33 79.2 731.67 79.2 735.83 79.2 L740 79.2" fill="none" stroke="#333333" stroke-width="1.5" marker-end="url(#arrow-point)" />
    <path d="M881.2 264.8 L885.37 264.8 C889.53 264.8 897.87 264.8 906.2 263.79 C914.53 262.77 922.87 260.74 927.03 259.73 L931.2 258.72" fill="none" stroke="#333333" stroke-width="1.5" marker-end="url(#arrow-point)" />
    <path d="M868.6 182 L874.87 182 C881.13 182 893.67 182 910.14 189.7 C926.62 197.4 947.04 212.8 957.25 220.5 L967.46 228.2" fill="none" stroke="#333333" stroke-width="1.5" marker-end="url(#arrow-point)" />
    <path d="M1047.2 244.6 L1051.37 244.6 C1055.53 244.6 1063.87 244.6 1072.2 244.6 C1080.53 244.6 1088.87 244.6 1093.03 244.6 L1097.2 244.6" fill="none" stroke="#333333" stroke-width="1.5" marker-end="url(#arrow-point)" />
    <path d="M1272 244.6 L1276.17 244.6 C1280.33 244.6 1288.67 244.6 1297 244.6 C1305.33 244.6 1313.67 244.6 1322 244.6 C1330.33 244.6 1338.67 244.6 1352.03 240.43 C1365.4 236.27 1383.8 227.93 1392.99 223.77 L1402.19 219.6" fill="none" stroke="#333333" stroke-width="1.5" marker-end="url(#arrow-point)" />
    <path d="M1255.2 130.6 L1262.17 130.6 C1269.13 130.6 1283.07 130.6 1294.2 130.6 C1305.33 130.6 1313.67 130.6 1322 130.6 C1330.33 130.6 1338.67 130.6 1354.63 139.97 C1370.58 149.33 1394.17 168.07 1405.96 177.43 L1417.75 186.8" fill="none" stroke="#333333" stroke-width="1.5" marker-end="url(#arrow-point)" />
    <path d="M1474.61 219.6 L1483.81 223.77 C1493 227.93 1511.4 236.27 1528.27 240.43 C1545.13 244.6 1560.47 244.6 1568.13 244.6 L1575.8 244.6" fill="none" stroke="#333333" stroke-width="1.5" marker-end="url(#arrow-point)" />
    <path d="M1462.81 186.8 L1473.98 179.3 C1485.14 171.8 1507.47 156.8 1522.8 149.3 C1538.13 141.8 1546.47 141.8 1550.63 141.8 L1554.8 141.8" fill="none" stroke="#333333" stroke-width="1.5" marker-end="url(#arrow-point)" />
    <path d="M1700.2 244.6 L1707.87 244.6 C1715.53 244.6 1730.87 244.6 1742.7 244.6 C1754.53 244.6 1762.87 244.6 1771.2 244.6 C1779.53 244.6 1787.87 244.6 1796.2 244.6 C1804.53 244.6 1812.87 244.6 1821.2 244.6 C1829.53 244.6 1837.87 244.6 1846.2 244.6 C1854.53 244.6 1862.87 244.6 1867.03 244.6 L1871.2 244.6" fill="none" stroke="#333333" stroke-width="1.5" marker-end="url(#arrow-point)" />
    <path d="M2020.8 244.6 L2024.97 244.6 C2029.13 244.6 2037.47 244.6 2045.8 244.6 C2054.13 244.6 2062.47 244.6 2066.63 244.6 L2070.8 244.6" fill="none" stroke="#333333" stroke-width="1.5" marker-end="url(#arrow-point)" />
    <path d="M2195.2 244.6 L2199.37 244.6 C2203.53 244.6 2211.87 244.6 2220.2 244.6 C2228.53 244.6 2236.87 244.6 2241.03 244.6 L2245.2 244.6" fill="none" stroke="#333333" stroke-width="1.5" marker-end="url(#arrow-point)" />
    <path d="M2352.8 244.6 L2356.97 244.6 C2361.13 244.6 2369.47 244.6 2377.8 244.6 C2386.13 244.6 2394.47 244.6 2398.63 244.6 L2402.8 244.6" fill="none" stroke="#333333" stroke-width="1.5" marker-end="url(#arrow-point)" />
    <path d="M2563.72 274.48 L2572.87 278.65 C2582.02 282.82 2600.31 291.16 2619.22 295.33 C2638.13 299.5 2657.67 299.5 2677.2 299.5 C2696.73 299.5 2716.27 299.5 2730.2 299.5 C2744.13 299.5 2752.47 299.5 2756.63 299.5 L2760.8 299.5" fill="none" stroke="#333333" stroke-width="1.5" marker-end="url(#arrow-point)" />
    <rect x="2644.4" y="288.3" width="65.6" height="22.4" rx="2" ry="2" fill="#f5f3ffbf" stroke="#f5f3ffbf" stroke-width="0.5" />
    <text x="2677.2" y="299.5" text-anchor="middle" dominant-baseline="central" font-size="12px" font-family="'Intel One Mono', 'SF Mono', 'Cascadia Code', 'JetBrains Mono', 'Fira Code', 'Consolas', 'Menlo', monospace" fill="#333333">approved</text>
    <path d="M2542.41 193.41 L2555.11 178.71 C2567.81 164.01 2593.2 134.6 2615.67 119.9 C2638.13 105.2 2657.67 105.2 2677.2 105.2 C2696.73 105.2 2716.27 105.2 2739.87 105.2 C2763.47 105.2 2791.13 105.2 2818.8 105.2 C2846.47 105.2 2874.13 105.2 2904.53 105.2 C2934.93 105.2 2968.07 105.2 3006.8 105.2 C3045.53 105.2 3089.87 105.2 3132.87 105.2 C3175.87 105.2 3217.53 105.2 3253.6 105.2 C3289.67 105.2 3320.13 105.2 3339.53 105.2 C3358.93 105.2 3367.27 105.2 3375.6 105.2 C3383.93 105.2 3392.27 105.2 3400.6 105.2 C3408.93 105.2 3417.27 105.2 3440.17 105.2 C3463.07 105.2 3500.53 105.2 3538 105.2 C3575.47 105.2 3612.93 105.2 3644.75 121.83 C3676.57 138.47 3702.73 171.73 3715.82 188.37 L3728.9 205" fill="none" stroke="#333333" stroke-width="1.5" marker-end="url(#arrow-point)" />
    <rect x="3226.4" y="94" width="65.6" height="22.4" rx="2" ry="2" fill="#f5f3ffbf" stroke="#f5f3ffbf" stroke-width="0.5" />
    <text x="3259.2" y="105.2" text-anchor="middle" dominant-baseline="central" font-size="12px" font-family="'Intel One Mono', 'SF Mono', 'Cascadia Code', 'JetBrains Mono', 'Fira Code', 'Consolas', 'Menlo', monospace" fill="#333333">rejected</text>
    <path d="M2876.8 299.5 L2880.97 299.5 C2885.13 299.5 2893.47 299.5 2901.8 299.5 C2910.13 299.5 2918.47 299.5 2922.63 299.5 L2926.8 299.5" fill="none" stroke="#333333" stroke-width="1.5" marker-end="url(#arrow-point)" />
    <path d="M3051.28 323.82 L3065.1 330.54 C3078.92 337.25 3106.56 350.67 3130.15 357.39 C3153.73 364.1 3173.27 364.1 3183.03 364.1 L3192.8 364.1" fill="none" stroke="#333333" stroke-width="1.5" marker-end="url(#arrow-point)" />
    <rect x="3119.4" y="352.9" width="29.6" height="22.4" rx="2" ry="2" fill="#f5f3ffbf" stroke="#f5f3ffbf" stroke-width="0.5" />
    <text x="3134.2" y="364.1" text-anchor="middle" dominant-baseline="central" font-size="12px" font-family="'Intel One Mono', 'SF Mono', 'Cascadia Code', 'JetBrains Mono', 'Fira Code', 'Consolas', 'Menlo', monospace" fill="#333333">yes</text>
    <path d="M3050.65 274.55 L3064.58 267.53 C3078.5 260.5 3106.35 246.45 3132.84 239.43 C3159.33 232.4 3184.47 232.4 3197.03 232.4 L3209.6 232.4" fill="none" stroke="#333333" stroke-width="1.5" marker-end="url(#arrow-point)" />
    <rect x="3123" y="221.2" width="22.4" height="22.4" rx="2" ry="2" fill="#f5f3ffbf" stroke="#f5f3ffbf" stroke-width="0.5" />
    <text x="3134.2" y="232.4" text-anchor="middle" dominant-baseline="central" font-size="12px" font-family="'Intel One Mono', 'SF Mono', 'Cascadia Code', 'JetBrains Mono', 'Fira Code', 'Consolas', 'Menlo', monospace" fill="#333333">no</text>
    <path d="M3276.77 380.5 L3289.08 391.98 C3301.38 403.47 3325.99 426.43 3342.46 437.92 C3358.93 449.4 3367.27 449.4 3375.6 449.4 C3383.93 449.4 3392.27 449.4 3400.6 449.4 C3408.93 449.4 3417.27 449.4 3425.6 449.4 C3433.93 449.4 3442.27 449.4 3446.43 449.4 L3450.6 449.4" fill="none" stroke="#333333" stroke-width="1.5" stroke-dasharray="3 3" marker-end="url(#arrow-point)" />
    <path d="M3325.6 365.92 L3329.77 366.03 C3333.93 366.14 3342.27 366.37 3350.6 366.49 C3358.93 366.6 3367.27 366.6 3375.6 366.6 C3383.93 366.6 3392.27 366.6 3400.6 366.6 C3408.93 366.6 3417.27 366.6 3429.8 366.6 C3442.33 366.6 3459.07 366.6 3467.43 366.6 L3475.8 366.6" fill="none" stroke="#333333" stroke-width="1.5" stroke-dasharray="3 3" marker-end="url(#arrow-point)" />
    <path d="M3277.87 347.7 L3289.99 337.05 C3302.11 326.4 3326.36 305.1 3342.64 294.45 C3358.93 283.8 3367.27 283.8 3375.6 283.8 C3383.93 283.8 3392.27 283.8 3400.6 283.8 C3408.93 283.8 3417.27 283.8 3427 283.8 C3436.73 283.8 3447.87 283.8 3453.43 283.8 L3459 283.8" fill="none" stroke="#333333" stroke-width="1.5" stroke-dasharray="3 3" marker-end="url(#arrow-point)" />
    <path d="M3308.8 232.4 L3315.77 232.4 C3322.73 232.4 3336.67 232.4 3347.8 232.4 C3358.93 232.4 3367.27 232.4 3375.6 232.4 C3383.93 232.4 3392.27 232.4 3400.6 232.4 C3408.93 232.4 3417.27 232.4 3440.17 232.4 C3463.07 232.4 3500.53 232.4 3538 232.4 C3575.47 232.4 3612.93 232.4 3635.83 231.9 C3658.73 231.4 3667.07 230.39 3671.23 229.89 L3675.4 229.39" fill="none" stroke="#333333" stroke-width="1.5" stroke-dasharray="3 3" marker-end="url(#arrow-point)" />
    <path d="M3600.2 366.6 L3608.57 366.6 C3616.93 366.6 3633.67 366.6 3655.55 345.13 C3677.43 323.67 3704.45 280.73 3717.96 259.27 L3731.48 237.8" fill="none" stroke="#333333" stroke-width="1.5" stroke-dasharray="3 3" marker-end="url(#arrow-point)" />
    <rect x="25" y="122.2" width="107.6" height="32.8" fill="#ececffb2" stroke="#9370db" stroke-width="1.5" />
    <text x="78.8" y="138.6" text-anchor="middle" dominant-baseline="central" font-size="14px" font-family="'Intel One Mono', 'SF Mono', 'Cascadia Code', 'JetBrains Mono', 'Fira Code', 'Consolas', 'Menlo', monospace" fill="#333333">Developer</text>
    <rect x="216.2" y="122.2" width="124.4" height="32.8" fill="#ececffb2" stroke="#9370db" stroke-width="1.5" />
    <text x="278.4" y="138.6" text-anchor="middle" dominant-baseline="central" font-size="14px" font-family="'Intel One Mono', 'SF Mono', 'Cascadia Code', 'JetBrains Mono', 'Fira Code', 'Consolas', 'Menlo', monospace" fill="#333333">GitHub Repo</text>
    <polygon points="532.2,55.8 615,138.6 532.2,221.4 449.4,138.6" fill="#ececffb2" stroke="#9370db" stroke-width="1.5" />
    <text x="532.2" y="138.6" text-anchor="middle" dominant-baseline="central" font-size="14px" font-family="'Intel One Mono', 'SF Mono', 'Cascadia Code', 'JetBrains Mono', 'Fira Code', 'Consolas', 'Menlo', monospace" fill="#333333">Pull Request</text>
    <rect x="740" y="248.4" width="141.2" height="32.8" fill="#ececffb2" stroke="#9370db" stroke-width="1.5" />
    <text x="810.6" y="264.8" text-anchor="middle" dominant-baseline="central" font-size="14px" font-family="'Intel One Mono', 'SF Mono', 'Cascadia Code', 'JetBrains Mono', 'Fira Code', 'Consolas', 'Menlo', monospace" fill="#333333">Lint + Format</text>
    <rect x="752.6" y="165.6" width="116" height="32.8" fill="#ececffb2" stroke="#9370db" stroke-width="1.5" />
    <text x="810.6" y="182" text-anchor="middle" dominant-baseline="central" font-size="14px" font-family="'Intel One Mono', 'SF Mono', 'Cascadia Code', 'JetBrains Mono', 'Fira Code', 'Consolas', 'Menlo', monospace" fill="#333333">Type Check</text>
    <rect x="931.2" y="228.2" width="116" height="32.8" fill="#ececffb2" stroke="#9370db" stroke-width="1.5" />
    <text x="989.2" y="244.6" text-anchor="middle" dominant-baseline="central" font-size="14px" font-family="'Intel One Mono', 'SF Mono', 'Cascadia Code', 'JetBrains Mono', 'Fira Code', 'Consolas', 'Menlo', monospace" fill="#333333">Unit Tests</text>
    <rect x="1097.2" y="228.2" width="174.8" height="32.8" fill="#ececffb2" stroke="#9370db" stroke-width="1.5" />
    <text x="1184.6" y="244.6" text-anchor="middle" dominant-baseline="central" font-size="14px" font-family="'Intel One Mono', 'SF Mono', 'Cascadia Code', 'JetBrains Mono', 'Fira Code', 'Consolas', 'Menlo', monospace" fill="#333333">Integration Tests</text>
    <rect x="1114" y="114.2" width="141.2" height="32.8" fill="#ececffb2" stroke="#9370db" stroke-width="1.5" />
    <text x="1184.6" y="130.6" text-anchor="middle" dominant-baseline="central" font-size="14px" font-family="'Intel One Mono', 'SF Mono', 'Cascadia Code', 'JetBrains Mono', 'Fira Code', 'Consolas', 'Menlo', monospace" fill="#333333">Security Scan</text>
    <rect x="740" y="62.8" width="141.2" height="32.8" fill="#ececffb2" stroke="#9370db" stroke-width="1.5" />
    <text x="810.6" y="79.2" text-anchor="middle" dominant-baseline="central" font-size="14px" font-family="'Intel One Mono', 'SF Mono', 'Cascadia Code', 'JetBrains Mono', 'Fira Code', 'Consolas', 'Menlo', monospace" fill="#333333">License Audit</text>
    <rect x="1372" y="186.8" width="132.8" height="32.8" fill="#ececffb2" stroke="#9370db" stroke-width="1.5" />
    <text x="1438.4" y="203.2" text-anchor="middle" dominant-baseline="central" font-size="14px" font-family="'Intel One Mono', 'SF Mono', 'Cascadia Code', 'JetBrains Mono', 'Fira Code', 'Consolas', 'Menlo', monospace" fill="#333333">Docker Build</text>
    <rect x="1575.8" y="228.2" width="124.4" height="32.8" fill="#ececffb2" stroke="#9370db" stroke-width="1.5" />
    <text x="1638" y="244.6" text-anchor="middle" dominant-baseline="central" font-size="14px" font-family="'Intel One Mono', 'SF Mono', 'Cascadia Code', 'JetBrains Mono', 'Fira Code', 'Consolas', 'Menlo', monospace" fill="#333333">Push to ECR</text>
    <rect x="1554.8" y="125.4" width="166.4" height="32.8" fill="#ececffb2" stroke="#9370db" stroke-width="1.5" />
    <text x="1638" y="141.8" text-anchor="middle" dominant-baseline="central" font-size="14px" font-family="'Intel One Mono', 'SF Mono', 'Cascadia Code', 'JetBrains Mono', 'Fira Code', 'Consolas', 'Menlo', monospace" fill="#333333">Artifact Archive</text>
    <rect x="1871.2" y="228.2" width="149.6" height="32.8" fill="#ececffb2" stroke="#9370db" stroke-width="1.5" />
    <text x="1946" y="244.6" text-anchor="middle" dominant-baseline="central" font-size="14px" font-family="'Intel One Mono', 'SF Mono', 'Cascadia Code', 'JetBrains Mono', 'Fira Code', 'Consolas', 'Menlo', monospace" fill="#333333">Deploy Staging</text>
    <rect x="2070.8" y="228.2" width="124.4" height="32.8" fill="#ececffb2" stroke="#9370db" stroke-width="1.5" />
    <text x="2133" y="244.6" text-anchor="middle" dominant-baseline="central" font-size="14px" font-family="'Intel One Mono', 'SF Mono', 'Cascadia Code', 'JetBrains Mono', 'Fira Code', 'Consolas', 'Menlo', monospace" fill="#333333">Smoke Tests</text>
    <rect x="2245.2" y="228.2" width="107.6" height="32.8" fill="#ececffb2" stroke="#9370db" stroke-width="1.5" />
    <text x="2299" y="244.6" text-anchor="middle" dominant-baseline="central" font-size="14px" font-family="'Intel One Mono', 'SF Mono', 'Cascadia Code', 'JetBrains Mono', 'Fira Code', 'Consolas', 'Menlo', monospace" fill="#333333">Load Test</text>
    <polygon points="2498.2,149.2 2593.6,244.6 2498.2,340 2402.8,244.6" fill="#ececffb2" stroke="#9370db" stroke-width="1.5" />
    <text x="2498.2" y="244.6" text-anchor="middle" dominant-baseline="central" font-size="14px" font-family="'Intel One Mono', 'SF Mono', 'Cascadia Code', 'JetBrains Mono', 'Fira Code', 'Consolas', 'Menlo', monospace" fill="#333333">Manual Approval</text>
    <rect x="2760.8" y="283.1" width="116" height="32.8" fill="#ececffb2" stroke="#9370db" stroke-width="1.5" />
    <text x="2818.8" y="299.5" text-anchor="middle" dominant-baseline="central" font-size="14px" font-family="'Intel One Mono', 'SF Mono', 'Cascadia Code', 'JetBrains Mono', 'Fira Code', 'Consolas', 'Menlo', monospace" fill="#333333">Canary 10%</text>
    <polygon points="3001.2,225.1 3075.6,299.5 3001.2,373.9 2926.8,299.5" fill="#ececffb2" stroke="#9370db" stroke-width="1.5" />
    <text x="3001.2" y="299.5" text-anchor="middle" dominant-baseline="central" font-size="14px" font-family="'Intel One Mono', 'SF Mono', 'Cascadia Code', 'JetBrains Mono', 'Fira Code', 'Consolas', 'Menlo', monospace" fill="#333333">Health OK?</text>
    <rect x="3192.8" y="347.7" width="132.8" height="32.8" fill="#ececffb2" stroke="#9370db" stroke-width="1.5" />
    <text x="3259.2" y="364.1" text-anchor="middle" dominant-baseline="central" font-size="14px" font-family="'Intel One Mono', 'SF Mono', 'Cascadia Code', 'JetBrains Mono', 'Fira Code', 'Consolas', 'Menlo', monospace" fill="#333333">Full Rollout</text>
    <rect x="3209.6" y="216" width="99.2" height="32.8" fill="#ececffb2" stroke="#9370db" stroke-width="1.5" />
    <text x="3259.2" y="232.4" text-anchor="middle" dominant-baseline="central" font-size="14px" font-family="'Intel One Mono', 'SF Mono', 'Cascadia Code', 'JetBrains Mono', 'Fira Code', 'Consolas', 'Menlo', monospace" fill="#333333">Rollback</text>
    <rect x="3450.6" y="433" width="174.8" height="32.8" fill="#ececffb2" stroke="#9370db" stroke-width="1.5" />
    <text x="3538" y="449.4" text-anchor="middle" dominant-baseline="central" font-size="14px" font-family="'Intel One Mono', 'SF Mono', 'Cascadia Code', 'JetBrains Mono', 'Fira Code', 'Consolas', 'Menlo', monospace" fill="#333333">Metrics Dashboard</text>
    <rect x="3475.8" y="350.2" width="124.4" height="32.8" fill="#ececffb2" stroke="#9370db" stroke-width="1.5" />
    <text x="3538" y="366.6" text-anchor="middle" dominant-baseline="central" font-size="14px" font-family="'Intel One Mono', 'SF Mono', 'Cascadia Code', 'JetBrains Mono', 'Fira Code', 'Consolas', 'Menlo', monospace" fill="#333333">Alert Rules</text>
    <rect x="3459" y="267.4" width="158" height="32.8" fill="#ececffb2" stroke="#9370db" stroke-width="1.5" />
    <text x="3538" y="283.8" text-anchor="middle" dominant-baseline="central" font-size="14px" font-family="'Intel One Mono', 'SF Mono', 'Cascadia Code', 'JetBrains Mono', 'Fira Code', 'Consolas', 'Menlo', monospace" fill="#333333">Log Aggregation</text>
    <rect x="3675.4" y="205" width="132.8" height="32.8" fill="#ececffb2" stroke="#9370db" stroke-width="1.5" />
    <text x="3741.8" y="221.4" text-anchor="middle" dominant-baseline="central" font-size="14px" font-family="'Intel One Mono', 'SF Mono', 'Cascadia Code', 'JetBrains Mono', 'Fira Code', 'Consolas', 'Menlo', monospace" fill="#333333">Slack Notify</text>
  </g>
</svg>
