<svg xmlns="http://www.w3.org/2000/svg" viewBox="0 0 997.84 371.6" width="997.84" height="371.6">
  <defs>
    <marker id="arrow-point-333333" viewBox="0 0 10 10" refX="8" refY="5" markerWidth="8" markerHeight="8" orient="auto-start-reverse">
      <path d="M10 5 L0 10 L4 5 L0 0 Z" fill="#333333" />
    </marker>
    <marker id="marker-circle-333333" viewBox="0 0 10 10" refX="7" refY="5" markerWidth="8" markerHeight="8" orient="auto-start-reverse">
      <circle cx="5" cy="5" r="4" fill="#333333" />
    </marker>
    <marker id="marker-cross-333333" viewBox="0 0 10 10" refX="6" refY="5" markerWidth="8" markerHeight="8" orient="auto-start-reverse">
      <path d="M2 2 Q5 4.5 8 8 M8 2 Q5 5.5 2 8" fill="none" stroke="#333333" stroke-width="1.5" stroke-linecap="round" />
    </marker>
  </defs>
  <g transform="translate(20, 20)">
    <path d="M484.17 20.89 L554.46 28.44 C624.75 35.99 765.34 51.1 835.63 64.22 C905.92 77.33 905.92 88.47 905.92 94.03 L905.92 97.2" fill="none" stroke="#333333" stroke-width="1.5" marker-end="url(#arrow-point-333333)" />
    <rect x="857.69" y="55" width="96.46" height="22.4" rx="2" ry="2" fill="#f5f3ffbf" stroke="#f5f3ffbf" stroke-width="0.5" />
    <text x="905.92" y="66.2" text-anchor="middle" dominant-baseline="central" font-size="12px" font-family="'Intel One Mono', 'SF Mono', 'Cascadia Code', 'JetBrains Mono', 'Fira Code', 'Consolas', 'Menlo', monospace" fill="#333333">normal arrow</text>
    <path d="M484.17 23.78 L524.23 30.85 C564.29 37.92 644.4 52.06 684.46 67.43 C724.52 82.8 724.52 99.4 724.52 116 C724.52 132.6 724.52 149.2 735.11 163.07 C745.7 176.93 766.89 188.07 777.48 193.63 L783.11 196.59" fill="none" stroke="#333333" stroke-width="3.5" marker-end="url(#arrow-point-333333)" />
    <rect x="679.98" y="104.8" width="89.09" height="22.4" rx="2" ry="2" fill="#f5f3ffbf" stroke="#f5f3ffbf" stroke-width="0.5" />
    <text x="724.52" y="116" text-anchor="middle" dominant-baseline="central" font-size="12px" font-family="'Intel One Mono', 'SF Mono', 'Cascadia Code', 'JetBrains Mono', 'Fira Code', 'Consolas', 'Menlo', monospace" fill="#333333">thick arrow</text>
    <path d="M469.41 32.8 L478.59 38.37 C487.76 43.93 506.12 55.07 515.29 66.2 C524.47 77.33 524.47 88.47 524.47 94.03 L524.47 97.2" fill="none" stroke="#333333" stroke-width="1.5" stroke-dasharray="3 3" marker-end="url(#arrow-point-333333)" />
    <rect x="476.24" y="55" width="96.46" height="22.4" rx="2" ry="2" fill="#f5f3ffbf" stroke="#f5f3ffbf" stroke-width="0.5" />
    <text x="524.47" y="66.2" text-anchor="middle" dominant-baseline="central" font-size="12px" font-family="'Intel One Mono', 'SF Mono', 'Cascadia Code', 'JetBrains Mono', 'Fira Code', 'Consolas', 'Menlo', monospace" fill="#333333">dotted arrow</text>
    <path d="M404.04 32.8 L391.03 38.37 C378.02 43.93 351.99 55.07 338.98 68.93 C325.97 82.8 325.97 99.4 325.97 116 C325.97 132.6 325.97 149.2 353.52 164.41 C381.07 179.62 436.17 193.45 463.72 200.36 L491.27 207.27" fill="none" stroke="#333333" stroke-width="1.5" />
    <rect x="285.11" y="104.8" width="81.71" height="22.4" rx="2" ry="2" fill="#f5f3ffbf" stroke="#f5f3ffbf" stroke-width="0.5" />
    <text x="325.97" y="116" text-anchor="middle" dominant-baseline="central" font-size="12px" font-family="'Intel One Mono', 'SF Mono', 'Cascadia Code', 'JetBrains Mono', 'Fira Code', 'Consolas', 'Menlo', monospace" fill="#333333">open solid</text>
    <path d="M400.57 25.04 L367.37 31.9 C334.17 38.76 267.77 52.48 234.57 64.91 C201.37 77.33 201.37 88.47 201.37 94.03 L201.37 97.2" fill="none" stroke="#333333" stroke-width="1.5" marker-end="url(#marker-circle-333333)" />
    <rect x="160.51" y="55" width="81.71" height="22.4" rx="2" ry="2" fill="#f5f3ffbf" stroke="#f5f3ffbf" stroke-width="0.5" />
    <text x="201.37" y="66.2" text-anchor="middle" dominant-baseline="central" font-size="12px" font-family="'Intel One Mono', 'SF Mono', 'Cascadia Code', 'JetBrains Mono', 'Fira Code', 'Consolas', 'Menlo', monospace" fill="#333333">circle end</text>
    <path d="M400.57 21.54 L340 28.98 C279.44 36.42 158.3 51.31 97.74 67.06 C37.17 82.8 37.17 99.4 37.17 116 C37.17 132.6 37.17 149.2 46.35 163.07 C55.53 176.93 73.88 188.07 83.06 193.63 L90.18 197.96" fill="none" stroke="#333333" stroke-width="1.5" marker-end="url(#marker-cross-333333)" />
    <rect x="0" y="104.8" width="74.34" height="22.4" rx="2" ry="2" fill="#f5f3ffbf" stroke="#f5f3ffbf" stroke-width="0.5" />
    <text x="37.17" y="116" text-anchor="middle" dominant-baseline="central" font-size="12px" font-family="'Intel One Mono', 'SF Mono', 'Cascadia Code', 'JetBrains Mono', 'Fira Code', 'Consolas', 'Menlo', monospace" fill="#333333">cross end</text>
    <path d="M905.92 134.8 L905.92 137.97 C905.92 143.53 905.92 154.67 896.24 165.8 C886.55 176.93 867.18 188.07 857.49 193.63 L849.89 198" fill="none" stroke="#333333" stroke-width="1.5" marker-start="url(#arrow-point-333333)" marker-end="url(#arrow-point-333333)" />
    <rect x="854.01" y="154.6" width="103.83" height="22.4" rx="2" ry="2" fill="#f5f3ffbf" stroke="#f5f3ffbf" stroke-width="0.5" />
    <text x="905.92" y="165.8" text-anchor="middle" dominant-baseline="central" font-size="12px" font-family="'Intel One Mono', 'SF Mono', 'Cascadia Code', 'JetBrains Mono', 'Fira Code', 'Consolas', 'Menlo', monospace" fill="#333333">bidirectional</text>
    <path d="M548.41 133.83 L553.96 137.97 C561.43 143.53 576.38 154.67 576.38 165.8 C576.38 176.93 561.43 188.07 553.96 193.63 L548.41 197.77" fill="none" stroke="#333333" stroke-width="1.5" marker-start="url(#marker-circle-333333)" marker-end="url(#marker-circle-333333)" />
    <rect x="543.09" y="154.6" width="96.46" height="22.4" rx="2" ry="2" fill="#f5f3ffbf" stroke="#f5f3ffbf" stroke-width="0.5" />
    <text x="591.32" y="165.8" text-anchor="middle" dominant-baseline="central" font-size="12px" font-family="'Intel One Mono', 'SF Mono', 'Cascadia Code', 'JetBrains Mono', 'Fira Code', 'Consolas', 'Menlo', monospace" fill="#333333">bidir circle</text>
    <path d="M201.37 134.8 L201.37 137.97 C201.37 143.53 201.37 154.67 192.19 165.8 C183.02 176.93 164.66 188.07 155.49 193.63 L148.36 197.96" fill="none" stroke="#333333" stroke-width="1.5" marker-start="url(#marker-cross-333333)" marker-end="url(#marker-cross-333333)" />
    <rect x="156.83" y="154.6" width="89.09" height="22.4" rx="2" ry="2" fill="#f5f3ffbf" stroke="#f5f3ffbf" stroke-width="0.5" />
    <text x="201.37" y="165.8" text-anchor="middle" dominant-baseline="central" font-size="12px" font-family="'Intel One Mono', 'SF Mono', 'Cascadia Code', 'JetBrains Mono', 'Fira Code', 'Consolas', 'Menlo', monospace" fill="#333333">bidir cross</text>
    <path d="M819.27 232 L819.27 237.57 C819.27 243.13 819.27 254.27 819.27 265.4 C819.27 276.53 819.27 287.67 819.27 293.2" fill="none" stroke="#333333" stroke-width="3.5" marker-end="url(#arrow-point-333333)" />
    <rect x="774.73" y="254.2" width="89.09" height="22.4" rx="2" ry="2" fill="#f5f3ffbf" stroke="#f5f3ffbf" stroke-width="0.5" />
    <text x="819.27" y="265.4" text-anchor="middle" dominant-baseline="central" font-size="12px" font-family="'Intel One Mono', 'SF Mono', 'Cascadia Code', 'JetBrains Mono', 'Fira Code', 'Consolas', 'Menlo', monospace" fill="#333333">thick label</text>
    <path d="M493.99 132.4 L483.65 137.97 C473.3 143.53 452.61 154.67 434.79 165.8 C416.98 176.93 402.03 188.07 394.56 193.63 L389.01 197.77" fill="none" stroke="#333333" stroke-width="1.5" stroke-dasharray="3 3" marker-end="url(#arrow-point-333333)" />
    <rect x="383.69" y="154.6" width="96.46" height="22.4" rx="2" ry="2" fill="#f5f3ffbf" stroke="#f5f3ffbf" stroke-width="0.5" />
    <text x="431.92" y="165.8" text-anchor="middle" dominant-baseline="central" font-size="12px" font-family="'Intel One Mono', 'SF Mono', 'Cascadia Code', 'JetBrains Mono', 'Fira Code', 'Consolas', 'Menlo', monospace" fill="#333333">dotted label</text>
    <rect x="400.57" y="0" width="83.6" height="32.8" fill="#ececffb2" stroke="#9370db" stroke-width="1.5" />
    <text x="442.37" y="16.4" text-anchor="middle" dominant-baseline="central" font-size="14px" font-family="'Intel One Mono', 'SF Mono', 'Cascadia Code', 'JetBrains Mono', 'Fira Code', 'Consolas', 'Menlo', monospace" fill="#333333">Center</text>
    <rect x="864.12" y="99.6" width="83.6" height="32.8" fill="#ececffb2" stroke="#9370db" stroke-width="1.5" />
    <text x="905.92" y="116" text-anchor="middle" dominant-baseline="central" font-size="14px" font-family="'Intel One Mono', 'SF Mono', 'Cascadia Code', 'JetBrains Mono', 'Fira Code', 'Consolas', 'Menlo', monospace" fill="#333333">Normal</text>
    <rect x="781.77" y="199.2" width="75" height="32.8" fill="#ececffb2" stroke="#9370db" stroke-width="1.5" />
    <text x="819.27" y="215.6" text-anchor="middle" dominant-baseline="central" font-size="14px" font-family="'Intel One Mono', 'SF Mono', 'Cascadia Code', 'JetBrains Mono', 'Fira Code', 'Consolas', 'Menlo', monospace" fill="#333333">Thick</text>
    <rect x="482.67" y="99.6" width="83.6" height="32.8" fill="#ececffb2" stroke="#9370db" stroke-width="1.5" />
    <text x="524.47" y="116" text-anchor="middle" dominant-baseline="central" font-size="14px" font-family="'Intel One Mono', 'SF Mono', 'Cascadia Code', 'JetBrains Mono', 'Fira Code', 'Consolas', 'Menlo', monospace" fill="#333333">Dotted</text>
    <rect x="491.27" y="199.2" width="66.4" height="32.8" fill="#ececffb2" stroke="#9370db" stroke-width="1.5" />
    <text x="524.47" y="215.6" text-anchor="middle" dominant-baseline="central" font-size="14px" font-family="'Intel One Mono', 'SF Mono', 'Cascadia Code', 'JetBrains Mono', 'Fira Code', 'Consolas', 'Menlo', monospace" fill="#333333">Open</text>
    <rect x="159.57" y="99.6" width="83.6" height="32.8" fill="#ececffb2" stroke="#9370db" stroke-width="1.5" />
    <text x="201.37" y="116" text-anchor="middle" dominant-baseline="central" font-size="14px" font-family="'Intel One Mono', 'SF Mono', 'Cascadia Code', 'JetBrains Mono', 'Fira Code', 'Consolas', 'Menlo', monospace" fill="#333333">Circle</text>
    <rect x="81.77" y="199.2" width="75" height="32.8" fill="#ececffb2" stroke="#9370db" stroke-width="1.5" />
    <text x="119.27" y="215.6" text-anchor="middle" dominant-baseline="central" font-size="14px" font-family="'Intel One Mono', 'SF Mono', 'Cascadia Code', 'JetBrains Mono', 'Fira Code', 'Consolas', 'Menlo', monospace" fill="#333333">Cross</text>
    <rect x="747.37" y="298.8" width="143.8" height="32.8" fill="#ececffb2" stroke="#9370db" stroke-width="1.5" />
    <text x="819.27" y="315.2" text-anchor="middle" dominant-baseline="central" font-size="14px" font-family="'Intel One Mono', 'SF Mono', 'Cascadia Code', 'JetBrains Mono', 'Fira Code', 'Consolas', 'Menlo', monospace" fill="#333333">Labeled Thick</text>
    <rect x="288.87" y="199.2" width="152.4" height="32.8" fill="#ececffb2" stroke="#9370db" stroke-width="1.5" />
    <text x="365.07" y="215.6" text-anchor="middle" dominant-baseline="central" font-size="14px" font-family="'Intel One Mono', 'SF Mono', 'Cascadia Code', 'JetBrains Mono', 'Fira Code', 'Consolas', 'Menlo', monospace" fill="#333333">Labeled Dotted</text>
  </g>
</svg>
