<svg xmlns="http://www.w3.org/2000/svg" viewBox="0 0 420.6 437.6" width="420.6" height="437.6">
  <defs>
    <marker id="arrow-point-333333" viewBox="0 0 10 10" refX="8" refY="5" markerWidth="8" markerHeight="8" orient="auto-start-reverse">
      <path d="M10 5 L0 10 L4 5 L0 0 Z" fill="#333333" />
    </marker>
  </defs>
  <g transform="translate(20, 20)">
    <path d="M192.45 32.8 L192.45 36.97 C192.45 41.13 192.45 49.47 192.45 57.8 C192.45 66.13 192.45 74.47 192.45 78.63 L192.45 80.4" fill="none" stroke="#333333" stroke-width="1.5" marker-end="url(#arrow-point-333333)" />
    <path d="M235.09 115.6 L245.93 119.77 C256.76 123.93 278.43 132.27 289.27 140.6 C300.1 148.93 300.1 157.27 300.1 160" fill="none" stroke="#333333" stroke-width="3.5" marker-end="url(#arrow-point-333333)" />
    <path d="M149.81 115.6 L138.97 119.77 C128.14 123.93 106.47 132.27 95.63 140.6 C84.8 148.93 84.8 157.27 84.8 161.43 L84.8 163.2" fill="none" stroke="#333333" stroke-width="1.5" stroke-dasharray="3 3" marker-end="url(#arrow-point-333333)" />
    <path d="M309.29 198.4 L312.41 203.97 C315.53 209.53 321.76 220.67 320.64 231.8 C319.53 242.93 311.05 254.07 306.82 259.63 L304.03 263.29" fill="none" stroke="#333333" stroke-width="1.5" marker-end="url(#arrow-point-333333)" />
    <path d="M116.96 198.4 L127.87 203.97 C138.79 209.53 160.62 220.67 183.57 231.8 C206.52 242.93 230.58 254.07 242.62 259.63 L252.47 264.19" fill="none" stroke="#333333" stroke-width="1.5" stroke-dasharray="3 3" marker-end="url(#arrow-point-333333)" />
    <path d="M290.1 298 L290.1 303.57 C290.1 309.13 290.1 320.27 290.1 331.4 C290.1 342.53 290.1 353.67 290.1 359.2" fill="none" stroke="#333333" stroke-width="3.5" marker-end="url(#arrow-point-333333)" />
    <rect x="238.19" y="320.2" width="103.83" height="22.4" rx="2" ry="2" fill="#f5f3ffbf" stroke="#f5f3ffbf" stroke-width="0.5" />
    <text x="290.1" y="331.4" text-anchor="middle" dominant-baseline="central" font-size="12px" font-family="'Intel One Mono', 'SF Mono', 'Cascadia Code', 'JetBrains Mono', 'Fira Code', 'Consolas', 'Menlo', monospace" fill="#333333">critical path</text>
    <path d="M267.94 198.4 L257.03 203.97 C246.11 209.53 224.28 220.67 201.33 231.8 C178.38 242.93 154.32 254.07 142.28 259.63 L132.43 264.19" fill="none" stroke="#333333" stroke-width="1.5" stroke-dasharray="3 3" marker-end="url(#arrow-point-333333)" />
    <rect x="187.39" y="220.6" width="30.11" height="22.4" rx="2" ry="2" fill="#f5f3ffbf" stroke="#f5f3ffbf" stroke-width="0.5" />
    <text x="202.45" y="231.8" text-anchor="middle" dominant-baseline="central" font-size="12px" font-family="'Intel One Mono', 'SF Mono', 'Cascadia Code', 'JetBrains Mono', 'Fira Code', 'Consolas', 'Menlo', monospace" fill="#333333">log</text>
    <path d="M75.61 198.4 L72.49 203.97 C69.37 209.53 63.14 220.67 64.26 231.8 C65.37 242.93 73.85 254.07 78.08 259.63 L80.87 263.29" fill="none" stroke="#333333" stroke-width="1.5" stroke-dasharray="3 3" marker-end="url(#arrow-point-333333)" />
    <rect x="41.84" y="220.6" width="30.11" height="22.4" rx="2" ry="2" fill="#f5f3ffbf" stroke="#f5f3ffbf" stroke-width="0.5" />
    <text x="56.9" y="231.8" text-anchor="middle" dominant-baseline="central" font-size="12px" font-family="'Intel One Mono', 'SF Mono', 'Cascadia Code', 'JetBrains Mono', 'Fira Code', 'Consolas', 'Menlo', monospace" fill="#333333">log</text>
    <rect x="150.65" y="0" width="83.6" height="32.8" fill="#ececffb2" stroke="#9370db" stroke-width="1.5" />
    <text x="192.45" y="16.4" text-anchor="middle" dominant-baseline="central" font-size="14px" font-family="'Intel One Mono', 'SF Mono', 'Cascadia Code', 'JetBrains Mono', 'Fira Code', 'Consolas', 'Menlo', monospace" fill="#333333">Client</text>
    <rect x="146.35" y="82.8" width="92.2" height="32.8" fill="#ececffb2" stroke="#9370db" stroke-width="1.5" />
    <text x="192.45" y="99.2" text-anchor="middle" dominant-baseline="central" font-size="14px" font-family="'Intel One Mono', 'SF Mono', 'Cascadia Code', 'JetBrains Mono', 'Fira Code', 'Consolas', 'Menlo', monospace" fill="#333333">Gateway</text>
    <rect x="219.6" y="165.6" width="161" height="32.8" fill="#ececffb2" stroke="#9370db" stroke-width="1.5" />
    <text x="300.1" y="182" text-anchor="middle" dominant-baseline="central" font-size="14px" font-family="'Intel One Mono', 'SF Mono', 'Cascadia Code', 'JetBrains Mono', 'Fira Code', 'Consolas', 'Menlo', monospace" fill="#333333">Primary Service</text>
    <rect x="0" y="165.6" width="169.6" height="32.8" fill="#ececffb2" stroke="#9370db" stroke-width="1.5" />
    <text x="84.8" y="182" text-anchor="middle" dominant-baseline="central" font-size="14px" font-family="'Intel One Mono', 'SF Mono', 'Cascadia Code', 'JetBrains Mono', 'Fira Code', 'Consolas', 'Menlo', monospace" fill="#333333">Fallback Service</text>
    <rect x="239.7" y="265.2" width="100.8" height="32.8" fill="#ececffb2" stroke="#9370db" stroke-width="1.5" />
    <text x="290.1" y="281.6" text-anchor="middle" dominant-baseline="central" font-size="14px" font-family="'Intel One Mono', 'SF Mono', 'Cascadia Code', 'JetBrains Mono', 'Fira Code', 'Consolas', 'Menlo', monospace" fill="#333333">Database</text>
    <rect x="239.7" y="364.8" width="100.8" height="32.8" fill="#ececffb2" stroke="#9370db" stroke-width="1.5" />
    <text x="290.1" y="381.2" text-anchor="middle" dominant-baseline="central" font-size="14px" font-family="'Intel One Mono', 'SF Mono', 'Cascadia Code', 'JetBrains Mono', 'Fira Code', 'Consolas', 'Menlo', monospace" fill="#333333">Response</text>
    <rect x="48.7" y="265.2" width="92.2" height="32.8" fill="#ececffb2" stroke="#9370db" stroke-width="1.5" />
    <text x="94.8" y="281.6" text-anchor="middle" dominant-baseline="central" font-size="14px" font-family="'Intel One Mono', 'SF Mono', 'Cascadia Code', 'JetBrains Mono', 'Fira Code', 'Consolas', 'Menlo', monospace" fill="#333333">Monitor</text>
  </g>
</svg>
