<svg xmlns="http://www.w3.org/2000/svg" viewBox="0 0 414.4 437.6" width="414.4" height="437.6">
  <defs>
    <marker id="arrow-point" viewBox="0 0 10 10" refX="8" refY="5" markerWidth="8" markerHeight="8" orient="auto-start-reverse">
      <path d="M10 5 L0 10 L4 5 L0 0 Z" fill="#333333" />
    </marker>
  </defs>
  <g transform="translate(20, 20)">
    <path d="M189.3 32.8 L189.3 36.97 C189.3 41.13 189.3 49.47 189.3 57.8 C189.3 66.13 189.3 74.47 189.3 78.63 L189.3 80.4" fill="none" stroke="#333333" stroke-width="1.5" marker-end="url(#arrow-point)" />
    <path d="M231.33 115.6 L242.01 119.77 C252.69 123.93 274.04 132.27 284.72 140.6 C295.4 148.93 295.4 157.27 295.4 160" fill="none" stroke="#333333" stroke-width="3.5" marker-end="url(#arrow-point)" />
    <path d="M147.27 115.6 L136.59 119.77 C125.91 123.93 104.56 132.27 93.88 140.6 C83.2 148.93 83.2 157.27 83.2 161.43 L83.2 163.2" fill="none" stroke="#333333" stroke-width="1.5" stroke-dasharray="3 3" marker-end="url(#arrow-point)" />
    <path d="M304.49 198.4 L307.57 203.97 C310.66 209.53 316.83 220.67 315.71 231.8 C314.59 242.93 306.19 254.07 301.99 259.63 L299.23 263.28" fill="none" stroke="#333333" stroke-width="1.5" marker-end="url(#arrow-point)" />
    <path d="M114.85 198.4 L125.59 203.97 C136.33 209.53 157.82 220.67 180.42 231.8 C203.02 242.93 226.74 254.07 238.6 259.63 L248.29 264.18" fill="none" stroke="#333333" stroke-width="1.5" stroke-dasharray="3 3" marker-end="url(#arrow-point)" />
    <path d="M285.4 298 L285.4 303.57 C285.4 309.13 285.4 320.27 285.4 331.4 C285.4 342.53 285.4 353.67 285.4 359.2" fill="none" stroke="#333333" stroke-width="3.5" marker-end="url(#arrow-point)" />
    <rect x="234.6" y="320.2" width="101.6" height="22.4" rx="2" ry="2" fill="#f5f3ffbf" stroke="#f5f3ffbf" stroke-width="0.5" />
    <text x="285.4" y="331.4" text-anchor="middle" dominant-baseline="central" font-size="12px" font-family="'Intel One Mono', 'SF Mono', 'Cascadia Code', 'JetBrains Mono', 'Fira Code', 'Consolas', 'Menlo', monospace" fill="#333333">critical path</text>
    <path d="M263.75 198.4 L253.01 203.97 C242.27 209.53 220.78 220.67 198.18 231.8 C175.58 242.93 151.86 254.07 140 259.63 L130.31 264.18" fill="none" stroke="#333333" stroke-width="1.5" stroke-dasharray="3 3" marker-end="url(#arrow-point)" />
    <rect x="184.5" y="220.6" width="29.6" height="22.4" rx="2" ry="2" fill="#f5f3ffbf" stroke="#f5f3ffbf" stroke-width="0.5" />
    <text x="199.3" y="231.8" text-anchor="middle" dominant-baseline="central" font-size="12px" font-family="'Intel One Mono', 'SF Mono', 'Cascadia Code', 'JetBrains Mono', 'Fira Code', 'Consolas', 'Menlo', monospace" fill="#333333">log</text>
    <path d="M74.11 198.4 L71.03 203.97 C67.94 209.53 61.77 220.67 62.89 231.8 C64.01 242.93 72.41 254.07 76.61 259.63 L79.37 263.28" fill="none" stroke="#333333" stroke-width="1.5" stroke-dasharray="3 3" marker-end="url(#arrow-point)" />
    <rect x="40.8" y="220.6" width="29.6" height="22.4" rx="2" ry="2" fill="#f5f3ffbf" stroke="#f5f3ffbf" stroke-width="0.5" />
    <text x="55.6" y="231.8" text-anchor="middle" dominant-baseline="central" font-size="12px" font-family="'Intel One Mono', 'SF Mono', 'Cascadia Code', 'JetBrains Mono', 'Fira Code', 'Consolas', 'Menlo', monospace" fill="#333333">log</text>
    <rect x="148.1" y="0" width="82.4" height="32.8" fill="#ececffb2" stroke="#9370db" stroke-width="1.5" />
    <text x="189.3" y="16.4" text-anchor="middle" dominant-baseline="central" font-size="14px" font-family="'Intel One Mono', 'SF Mono', 'Cascadia Code', 'JetBrains Mono', 'Fira Code', 'Consolas', 'Menlo', monospace" fill="#333333">Client</text>
    <rect x="143.9" y="82.8" width="90.8" height="32.8" fill="#ececffb2" stroke="#9370db" stroke-width="1.5" />
    <text x="189.3" y="99.2" text-anchor="middle" dominant-baseline="central" font-size="14px" font-family="'Intel One Mono', 'SF Mono', 'Cascadia Code', 'JetBrains Mono', 'Fira Code', 'Consolas', 'Menlo', monospace" fill="#333333">Gateway</text>
    <rect x="216.4" y="165.6" width="158" height="32.8" fill="#ececffb2" stroke="#9370db" stroke-width="1.5" />
    <text x="295.4" y="182" text-anchor="middle" dominant-baseline="central" font-size="14px" font-family="'Intel One Mono', 'SF Mono', 'Cascadia Code', 'JetBrains Mono', 'Fira Code', 'Consolas', 'Menlo', monospace" fill="#333333">Primary Service</text>
    <rect x="0" y="165.6" width="166.4" height="32.8" fill="#ececffb2" stroke="#9370db" stroke-width="1.5" />
    <text x="83.2" y="182" text-anchor="middle" dominant-baseline="central" font-size="14px" font-family="'Intel One Mono', 'SF Mono', 'Cascadia Code', 'JetBrains Mono', 'Fira Code', 'Consolas', 'Menlo', monospace" fill="#333333">Fallback Service</text>
    <rect x="235.8" y="265.2" width="99.2" height="32.8" fill="#ececffb2" stroke="#9370db" stroke-width="1.5" />
    <text x="285.4" y="281.6" text-anchor="middle" dominant-baseline="central" font-size="14px" font-family="'Intel One Mono', 'SF Mono', 'Cascadia Code', 'JetBrains Mono', 'Fira Code', 'Consolas', 'Menlo', monospace" fill="#333333">Database</text>
    <rect x="235.8" y="364.8" width="99.2" height="32.8" fill="#ececffb2" stroke="#9370db" stroke-width="1.5" />
    <text x="285.4" y="381.2" text-anchor="middle" dominant-baseline="central" font-size="14px" font-family="'Intel One Mono', 'SF Mono', 'Cascadia Code', 'JetBrains Mono', 'Fira Code', 'Consolas', 'Menlo', monospace" fill="#333333">Response</text>
    <rect x="47.8" y="265.2" width="90.8" height="32.8" fill="#ececffb2" stroke="#9370db" stroke-width="1.5" />
    <text x="93.2" y="281.6" text-anchor="middle" dominant-baseline="central" font-size="14px" font-family="'Intel One Mono', 'SF Mono', 'Cascadia Code', 'JetBrains Mono', 'Fira Code', 'Consolas', 'Menlo', monospace" fill="#333333">Monitor</text>
  </g>
</svg>
