<svg xmlns="http://www.w3.org/2000/svg" viewBox="0 0 221.2 354.4" width="221.2" height="354.4">
  <defs>
    <marker id="arrow-point" viewBox="0 0 10 10" refX="10" refY="5" markerWidth="8" markerHeight="8" orient="auto-start-reverse">
      <path d="M10 5 L0 10 L4 5 L0 0 Z" fill="#333333" />
    </marker>
  </defs>
  <g transform="translate(20, 20)">
    <rect x="62" y="0" width="74" height="32.8" fill="#ececffb2" stroke="#9370db" stroke-width="1.5" />
    <text x="99" y="16.4" text-anchor="middle" dominant-baseline="central" font-size="14px" font-family="'Intel One Mono', 'SF Mono', 'Cascadia Code', 'JetBrains Mono', 'Fira Code', 'Consolas', 'Menlo', monospace" fill="#333333">Start</text>
    <polygon points="99,82.8 165,148.8 99,214.8 33,148.8" fill="#ececffb2" stroke="#9370db" stroke-width="1.5" />
    <text x="99" y="148.8" text-anchor="middle" dominant-baseline="central" font-size="14px" font-family="'Intel One Mono', 'SF Mono', 'Cascadia Code', 'JetBrains Mono', 'Fira Code', 'Consolas', 'Menlo', monospace" fill="#333333">Decision</text>
    <rect x="132.4" y="281.6" width="48.8" height="32.8" fill="#ececffb2" stroke="#9370db" stroke-width="1.5" />
    <text x="156.8" y="298" text-anchor="middle" dominant-baseline="central" font-size="14px" font-family="'Intel One Mono', 'SF Mono', 'Cascadia Code', 'JetBrains Mono', 'Fira Code', 'Consolas', 'Menlo', monospace" fill="#333333">OK</text>
    <rect x="0" y="281.6" width="82.4" height="32.8" fill="#ececffb2" stroke="#9370db" stroke-width="1.5" />
    <text x="41.2" y="298" text-anchor="middle" dominant-baseline="central" font-size="14px" font-family="'Intel One Mono', 'SF Mono', 'Cascadia Code', 'JetBrains Mono', 'Fira Code', 'Consolas', 'Menlo', monospace" fill="#333333">Not OK</text>
    <path d="M99 32.8 L99 36.97 C99 41.13 99 49.47 99 57.8 C99 66.13 99 74.47 99 78.63 L99 82.8" fill="none" stroke="#333333" stroke-width="1.5" marker-end="url(#arrow-point)" />
    <path d="M123.27 190.53 L128.86 200.14 C134.44 209.76 145.62 228.98 151.21 244.16 C156.8 259.33 156.8 270.47 156.8 276.03 L156.8 281.6" fill="none" stroke="#333333" stroke-width="1.5" marker-end="url(#arrow-point)" />
    <rect x="142" y="237" width="29.6" height="22.4" rx="2" ry="2" fill="#f5f3ffbf" stroke="#f5f3ffbf" stroke-width="0.5" />
    <text x="156.8" y="248.2" text-anchor="middle" dominant-baseline="central" font-size="12px" font-family="'Intel One Mono', 'SF Mono', 'Cascadia Code', 'JetBrains Mono', 'Fira Code', 'Consolas', 'Menlo', monospace" fill="#333333">Yes</text>
    <path d="M74.73 190.53 L69.14 200.14 C63.56 209.76 52.38 228.98 46.79 244.16 C41.2 259.33 41.2 270.47 41.2 276.03 L41.2 281.6" fill="none" stroke="#333333" stroke-width="1.5" marker-end="url(#arrow-point)" />
    <rect x="30" y="237" width="22.4" height="22.4" rx="2" ry="2" fill="#f5f3ffbf" stroke="#f5f3ffbf" stroke-width="0.5" />
    <text x="41.2" y="248.2" text-anchor="middle" dominant-baseline="central" font-size="12px" font-family="'Intel One Mono', 'SF Mono', 'Cascadia Code', 'JetBrains Mono', 'Fira Code', 'Consolas', 'Menlo', monospace" fill="#333333">No</text>
  </g>
</svg>
