<svg xmlns="http://www.w3.org/2000/svg" viewBox="0 0 265.6 437.6" width="265.6" height="437.6">
  <defs>
    <marker id="arrow-point" viewBox="0 0 10 10" refX="8" refY="5" markerWidth="8" markerHeight="8" orient="auto-start-reverse">
      <path d="M10 5 L0 10 L4 5 L0 0 Z" fill="#333333" />
    </marker>
  </defs>
  <g transform="translate(20, 20)">
    <path d="M111.98 32.8 L119.85 38.37 C127.72 43.93 143.46 55.07 151.33 66.2 C159.2 77.33 159.2 88.47 159.2 94.03 L159.2 96.45" fill="none" stroke="#333333" stroke-width="1.5" marker-end="url(#arrow-point)" />
    <rect x="130" y="55" width="58.4" height="22.4" rx="2" ry="2" fill="#f5f3ffbf" stroke="#f5f3ffbf" stroke-width="0.5" />
    <text x="159.2" y="66.2" text-anchor="middle" dominant-baseline="central" font-size="12px" font-family="'Intel One Mono', 'SF Mono', 'Cascadia Code', 'JetBrains Mono', 'Fira Code', 'Consolas', 'Menlo', monospace" fill="#333333">narrows</text>
    <path d="M159.2 132.4 L159.2 137.97 C159.2 143.53 159.2 154.67 159.2 165.8 C159.2 176.93 159.2 188.07 159.2 193.63 L159.2 196.05" fill="none" stroke="#333333" stroke-width="1.5" marker-end="url(#arrow-point)" />
    <rect x="130" y="154.6" width="58.4" height="22.4" rx="2" ry="2" fill="#f5f3ffbf" stroke="#f5f3ffbf" stroke-width="0.5" />
    <text x="159.2" y="165.8" text-anchor="middle" dominant-baseline="central" font-size="12px" font-family="'Intel One Mono', 'SF Mono', 'Cascadia Code', 'JetBrains Mono', 'Fira Code', 'Consolas', 'Menlo', monospace" fill="#333333">expands</text>
    <path d="M159.2 232 L159.2 236.17 C159.2 240.33 159.2 248.67 159.2 257 C159.2 265.33 159.2 273.67 159.2 277.83 L159.2 278.85" fill="none" stroke="#333333" stroke-width="1.5" marker-end="url(#arrow-point)" />
    <path d="M159.2 314.8 L159.2 318.97 C159.2 323.13 159.2 331.47 152.11 339.8 C145.03 348.13 130.86 356.47 123.77 360.63 L119.4 363.2" fill="none" stroke="#333333" stroke-width="1.5" marker-end="url(#arrow-point)" />
    <path d="M65.62 32.8 L57.75 38.37 C49.88 43.93 34.14 55.07 26.27 68.93 C18.4 82.8 18.4 99.4 18.4 116 C18.4 132.6 18.4 149.2 18.4 165.8 C18.4 182.4 18.4 199 18.4 214.2 C18.4 229.4 18.4 243.2 18.4 257 C18.4 270.8 18.4 284.6 18.4 298.4 C18.4 312.2 18.4 326 25.49 337.07 C32.57 348.13 46.74 356.47 53.83 360.63 L58.2 363.2" fill="none" stroke="#333333" stroke-width="1.5" marker-end="url(#arrow-point)" />
    <rect x="0" y="204.4" width="36.8" height="22.4" rx="2" ry="2" fill="#f5f3ffbf" stroke="#f5f3ffbf" stroke-width="0.5" />
    <text x="18.4" y="215.6" text-anchor="middle" dominant-baseline="central" font-size="12px" font-family="'Intel One Mono', 'SF Mono', 'Cascadia Code', 'JetBrains Mono', 'Fira Code', 'Consolas', 'Menlo', monospace" fill="#333333">skip</text>
    <polygon points="39.2,0 138.4,0 154.8,32.8 22.8,32.8" fill="#ececffb2" stroke="#9370db" stroke-width="1.5" />
    <text x="88.8" y="16.4" text-anchor="middle" dominant-baseline="central" font-size="14px" font-family="'Intel One Mono', 'SF Mono', 'Cascadia Code', 'JetBrains Mono', 'Fira Code', 'Consolas', 'Menlo', monospace" fill="#333333">Wide Top</text>
    <polygon points="80.6,99.6 237.8,99.6 221.4,132.4 97,132.4" fill="#ececffb2" stroke="#9370db" stroke-width="1.5" />
    <text x="159.2" y="116" text-anchor="middle" dominant-baseline="central" font-size="14px" font-family="'Intel One Mono', 'SF Mono', 'Cascadia Code', 'JetBrains Mono', 'Fira Code', 'Consolas', 'Menlo', monospace" fill="#333333">Wide Bottom</text>
    <polygon points="97,199.2 221.4,199.2 237.8,232 80.6,232" fill="#ececffb2" stroke="#9370db" stroke-width="1.5" />
    <text x="159.2" y="215.6" text-anchor="middle" dominant-baseline="central" font-size="14px" font-family="'Intel One Mono', 'SF Mono', 'Cascadia Code', 'JetBrains Mono', 'Fira Code', 'Consolas', 'Menlo', monospace" fill="#333333">Another Top</text>
    <rect x="92.8" y="282" width="132.8" height="32.8" fill="#ececffb2" stroke="#9370db" stroke-width="1.5" />
    <text x="159.2" y="298.4" text-anchor="middle" dominant-baseline="central" font-size="14px" font-family="'Intel One Mono', 'SF Mono', 'Cascadia Code', 'JetBrains Mono', 'Fira Code', 'Consolas', 'Menlo', monospace" fill="#333333">Regular Rect</text>
    <polygon points="14.4,364.8 163.2,364.8 146.8,397.6 30.8,397.6" fill="#ececffb2" stroke="#9370db" stroke-width="1.5" />
    <text x="88.8" y="381.2" text-anchor="middle" dominant-baseline="central" font-size="14px" font-family="'Intel One Mono', 'SF Mono', 'Cascadia Code', 'JetBrains Mono', 'Fira Code', 'Consolas', 'Menlo', monospace" fill="#333333">Final Trap</text>
  </g>
</svg>
