<svg xmlns="http://www.w3.org/2000/svg" viewBox="0 0 546.1 1201.2" width="546.1" height="1201.2">
  <defs>
    <marker id="arrow-point" viewBox="0 0 10 10" refX="10" refY="5" markerWidth="8" markerHeight="8" orient="auto-start-reverse">
      <path d="M10 5 L0 10 L4 5 L0 0 Z" fill="#333333" />
    </marker>
  </defs>
  <g transform="translate(20, 20)">
    <polygon points="220.2,0 311.4,91.2 220.2,182.4 129,91.2" fill="#ececffb2" stroke="#9370db" stroke-width="1.5" />
    <text x="220.2" y="91.2" text-anchor="middle" dominant-baseline="central" font-size="14px" font-family="'Intel One Mono', 'SF Mono', 'Cascadia Code', 'JetBrains Mono', 'Fira Code', 'Consolas', 'Menlo', monospace" fill="#333333">Validate Input</text>
    <polygon points="220.2,232.4 294.6,306.8 220.2,381.2 145.8,306.8" fill="#ececffb2" stroke="#9370db" stroke-width="1.5" />
    <text x="220.2" y="306.8" text-anchor="middle" dominant-baseline="central" font-size="14px" font-family="'Intel One Mono', 'SF Mono', 'Cascadia Code', 'JetBrains Mono', 'Fira Code', 'Consolas', 'Menlo', monospace" fill="#333333">Check Auth</text>
    <polygon points="277,448 355.6,526.6 277,605.2 198.4,526.6" fill="#ececffb2" stroke="#9370db" stroke-width="1.5" />
    <text x="277" y="526.6" text-anchor="middle" dominant-baseline="central" font-size="14px" font-family="'Intel One Mono', 'SF Mono', 'Cascadia Code', 'JetBrains Mono', 'Fira Code', 'Consolas', 'Menlo', monospace" fill="#333333">Rate Limit?</text>
    <rect x="45" y="1128.4" width="74" height="32.8" fill="#ececffb2" stroke="#9370db" stroke-width="1.5" />
    <text x="82" y="1144.8" text-anchor="middle" dominant-baseline="central" font-size="14px" font-family="'Intel One Mono', 'SF Mono', 'Cascadia Code', 'JetBrains Mono', 'Fira Code', 'Consolas', 'Menlo', monospace" fill="#333333">Error</text>
    <polygon points="338,672 412.4,746.4 338,820.8 263.6,746.4" fill="#ececffb2" stroke="#9370db" stroke-width="1.5" />
    <text x="338" y="746.4" text-anchor="middle" dominant-baseline="central" font-size="14px" font-family="'Intel One Mono', 'SF Mono', 'Cascadia Code', 'JetBrains Mono', 'Fira Code', 'Consolas', 'Menlo', monospace" fill="#333333">Has Cache?</text>
    <rect x="373.3" y="958.2" width="132.8" height="32.8" fill="#ececffb2" stroke="#9370db" stroke-width="1.5" />
    <text x="439.7" y="974.6" text-anchor="middle" dominant-baseline="central" font-size="14px" font-family="'Intel One Mono', 'SF Mono', 'Cascadia Code', 'JetBrains Mono', 'Fira Code', 'Consolas', 'Menlo', monospace" fill="#333333">Return Cache</text>
    <polygon points="236.3,887.6 323.3,974.6 236.3,1061.6 149.3,974.6" fill="#ececffb2" stroke="#9370db" stroke-width="1.5" />
    <text x="236.3" y="974.6" text-anchor="middle" dominant-baseline="central" font-size="14px" font-family="'Intel One Mono', 'SF Mono', 'Cascadia Code', 'JetBrains Mono', 'Fira Code', 'Consolas', 'Menlo', monospace" fill="#333333">DB Available?</text>
    <rect x="210.1" y="1128.4" width="99.2" height="32.8" fill="#ececffb2" stroke="#9370db" stroke-width="1.5" />
    <text x="259.7" y="1144.8" text-anchor="middle" dominant-baseline="central" font-size="14px" font-family="'Intel One Mono', 'SF Mono', 'Cascadia Code', 'JetBrains Mono', 'Fira Code', 'Consolas', 'Menlo', monospace" fill="#333333">Query DB</text>
    <path d="M220.2 182.4 L220.2 186.57 C220.2 190.73 220.2 199.07 220.2 207.4 C220.2 215.73 220.2 224.07 220.2 228.23 L220.2 232.4" fill="none" stroke="#333333" stroke-width="1.5" marker-end="url(#arrow-point)" />
    <path d="M245.87 355.53 L251.06 365.37 C256.25 375.22 266.62 394.91 271.81 410.32 C277 425.73 277 436.87 277 442.43 L277 448" fill="none" stroke="#333333" stroke-width="1.5" marker-end="url(#arrow-point)" />
    <rect x="258.6" y="403.4" width="36.8" height="22.4" rx="2" ry="2" fill="#f5f3ffbf" stroke="#f5f3ffbf" stroke-width="0.5" />
    <text x="277" y="414.6" text-anchor="middle" dominant-baseline="central" font-size="12px" font-family="'Intel One Mono', 'SF Mono', 'Cascadia Code', 'JetBrains Mono', 'Fira Code', 'Consolas', 'Menlo', monospace" fill="#333333">Pass</text>
    <path d="M171.71 332.71 L146.15 346.35 C120.6 360 69.5 387.3 43.95 419.62 C18.4 451.93 18.4 489.27 18.4 526.6 C18.4 563.93 18.4 601.27 18.4 637.9 C18.4 674.53 18.4 710.47 18.4 746.4 C18.4 782.33 18.4 818.27 18.4 856.3 C18.4 894.33 18.4 934.47 18.4 974.6 C18.4 1014.73 18.4 1054.87 25.51 1080.5 C32.62 1106.13 46.84 1117.27 53.95 1122.83 L61.06 1128.4" fill="none" stroke="#333333" stroke-width="1.5" marker-end="url(#arrow-point)" />
    <rect x="0" y="735.2" width="36.8" height="22.4" rx="2" ry="2" fill="#f5f3ffbf" stroke="#f5f3ffbf" stroke-width="0.5" />
    <text x="18.4" y="746.4" text-anchor="middle" dominant-baseline="central" font-size="12px" font-family="'Intel One Mono', 'SF Mono', 'Cascadia Code', 'JetBrains Mono', 'Fira Code', 'Consolas', 'Menlo', monospace" fill="#333333">Fail</text>
    <path d="M304.71 577.49 L310.26 587.67 C315.81 597.86 326.9 618.23 332.45 633.98 C338 649.73 338 660.87 338 666.43 L338 672" fill="none" stroke="#333333" stroke-width="1.5" marker-end="url(#arrow-point)" />
    <rect x="326.8" y="627.4" width="22.4" height="22.4" rx="2" ry="2" fill="#f5f3ffbf" stroke="#f5f3ffbf" stroke-width="0.5" />
    <text x="338" y="638.6" text-anchor="middle" dominant-baseline="central" font-size="12px" font-family="'Intel One Mono', 'SF Mono', 'Cascadia Code', 'JetBrains Mono', 'Fira Code', 'Consolas', 'Menlo', monospace" fill="#333333">OK</text>
    <path d="M229.62 557.82 L209.18 571.28 C188.74 584.74 147.87 611.67 127.44 643.1 C107 674.53 107 710.47 107 746.4 C107 782.33 107 818.27 107 856.3 C107 894.33 107 934.47 107 974.6 C107 1014.73 107 1054.87 104.21 1080.5 C101.41 1106.13 95.82 1117.27 93.03 1122.83 L90.23 1128.4" fill="none" stroke="#333333" stroke-width="1.5" marker-end="url(#arrow-point)" />
    <rect x="88.6" y="843" width="36.8" height="22.4" rx="2" ry="2" fill="#f5f3ffbf" stroke="#f5f3ffbf" stroke-width="0.5" />
    <text x="107" y="854.2" text-anchor="middle" dominant-baseline="central" font-size="12px" font-family="'Intel One Mono', 'SF Mono', 'Cascadia Code', 'JetBrains Mono', 'Fira Code', 'Consolas', 'Menlo', monospace" fill="#333333">Over</text>
    <path d="M374.12 784.68 L385.05 796.27 C395.98 807.86 417.84 831.03 428.77 859.95 C439.7 888.87 439.7 923.53 439.7 940.87 L439.7 958.2" fill="none" stroke="#333333" stroke-width="1.5" marker-end="url(#arrow-point)" />
    <rect x="424.9" y="843" width="29.6" height="22.4" rx="2" ry="2" fill="#f5f3ffbf" stroke="#f5f3ffbf" stroke-width="0.5" />
    <text x="439.7" y="854.2" text-anchor="middle" dominant-baseline="central" font-size="12px" font-family="'Intel One Mono', 'SF Mono', 'Cascadia Code', 'JetBrains Mono', 'Fira Code', 'Consolas', 'Menlo', monospace" fill="#333333">Hit</text>
    <path d="M301.88 784.68 L290.95 796.27 C280.02 807.86 258.16 831.03 247.23 848.18 C236.3 865.33 236.3 876.47 236.3 882.03 L236.3 887.6" fill="none" stroke="#333333" stroke-width="1.5" marker-end="url(#arrow-point)" />
    <rect x="217.9" y="843" width="36.8" height="22.4" rx="2" ry="2" fill="#f5f3ffbf" stroke="#f5f3ffbf" stroke-width="0.5" />
    <text x="236.3" y="854.2" text-anchor="middle" dominant-baseline="central" font-size="12px" font-family="'Intel One Mono', 'SF Mono', 'Cascadia Code', 'JetBrains Mono', 'Fira Code', 'Consolas', 'Menlo', monospace" fill="#333333">Miss</text>
    <path d="M250.46 1047.44 L252 1055.37 C253.54 1063.3 256.62 1079.15 258.16 1092.64 C259.7 1106.13 259.7 1117.27 259.7 1122.83 L259.7 1128.4" fill="none" stroke="#333333" stroke-width="1.5" marker-end="url(#arrow-point)" />
    <rect x="244.9" y="1083.8" width="29.6" height="22.4" rx="2" ry="2" fill="#f5f3ffbf" stroke="#f5f3ffbf" stroke-width="0.5" />
    <text x="259.7" y="1095" text-anchor="middle" dominant-baseline="central" font-size="12px" font-family="'Intel One Mono', 'SF Mono', 'Cascadia Code', 'JetBrains Mono', 'Fira Code', 'Consolas', 'Menlo', monospace" fill="#333333">Yes</text>
    <path d="M207.92 1033.22 L202.93 1043.51 C197.94 1053.81 187.97 1074.41 172.26 1090.27 C156.54 1106.13 135.08 1117.27 124.35 1122.83 L113.61 1128.4" fill="none" stroke="#333333" stroke-width="1.5" marker-end="url(#arrow-point)" />
    <rect x="166.8" y="1083.8" width="22.4" height="22.4" rx="2" ry="2" fill="#f5f3ffbf" stroke="#f5f3ffbf" stroke-width="0.5" />
    <text x="178" y="1095" text-anchor="middle" dominant-baseline="central" font-size="12px" font-family="'Intel One Mono', 'SF Mono', 'Cascadia Code', 'JetBrains Mono', 'Fira Code', 'Consolas', 'Menlo', monospace" fill="#333333">No</text>
  </g>
</svg>
