<svg xmlns="http://www.w3.org/2000/svg" viewBox="0 0 1349.2 107.8" width="1349.2" height="107.8">
  <defs>
    <marker id="arrow-point" viewBox="0 0 10 10" refX="8" refY="5" markerWidth="8" markerHeight="8" orient="auto-start-reverse">
      <path d="M10 5 L0 10 L4 5 L0 0 Z" fill="#333333" />
    </marker>
  </defs>
  <g transform="translate(20, 20)">
    <path d="M44.87 36.35 L49.69 38.86 C54.51 41.37 64.16 46.38 73.15 48.89 C82.13 51.4 90.47 51.4 94.63 51.4 L95.65 51.4" fill="none" stroke="#333333" stroke-width="1.5" marker-end="url(#arrow-point)" />
    <path d="M349.2 51.4 L353.37 51.4 C357.53 51.4 365.87 51.4 374.2 51.4 C382.53 51.4 390.87 51.4 395.03 51.4 L396.05 51.4" fill="none" stroke="#333333" stroke-width="1.5" marker-end="url(#arrow-point)" />
    <path d="M1052.8 51.4 L1056.97 51.4 C1061.13 51.4 1069.47 51.4 1077.8 51.4 C1086.13 51.4 1094.47 51.4 1098.63 51.4 L1099.65 51.4" fill="none" stroke="#333333" stroke-width="1.5" marker-end="url(#arrow-point)" />
    <path d="M1143.2 51.4 L1147.37 51.4 C1151.53 51.4 1159.87 51.4 1169.81 49.61 C1179.76 47.82 1191.32 44.24 1197.1 42.45 L1199.87 41.59" fill="none" stroke="#333333" stroke-width="1.5" marker-end="url(#arrow-point)" />
    <path d="M44.87 15.05 L49.69 12.54 C54.51 10.03 64.16 5.02 94.01 2.51 C123.87 0 173.93 0 224 0 C274.07 0 324.13 0 407.8 0 C491.47 0 608.73 0 726 0 C843.27 0 960.53 0 1026.7 0 C1092.87 0 1107.93 0 1123 0 C1138.07 0 1153.13 0 1166.45 1.79 C1179.76 3.58 1191.32 7.16 1197.1 8.95 L1199.87 9.81" fill="none" stroke="#333333" stroke-width="1.5" marker-end="url(#arrow-point)" />
    <rect x="0" y="9.3" width="48.8" height="32.8" rx="16.4" ry="16.4" fill="#ececffb2" stroke="#9370db" stroke-width="1.5" />
    <text x="24.4" y="25.7" text-anchor="middle" dominant-baseline="central" font-size="14px" font-family="'Intel One Mono', 'SF Mono', 'Cascadia Code', 'JetBrains Mono', 'Fira Code', 'Consolas', 'Menlo', monospace" fill="#333333">OK</text>
    <rect x="98.8" y="35" width="250.4" height="32.8" rx="16.4" ry="16.4" fill="#ececffb2" stroke="#9370db" stroke-width="1.5" />
    <text x="224" y="51.4" text-anchor="middle" dominant-baseline="central" font-size="14px" font-family="'Intel One Mono', 'SF Mono', 'Cascadia Code', 'JetBrains Mono', 'Fira Code', 'Consolas', 'Menlo', monospace" fill="#333333">A medium-length label here</text>
    <rect x="399.2" y="35" width="653.6" height="32.8" rx="16.4" ry="16.4" fill="#ececffb2" stroke="#9370db" stroke-width="1.5" />
    <text x="726" y="51.4" text-anchor="middle" dominant-baseline="central" font-size="14px" font-family="'Intel One Mono', 'SF Mono', 'Cascadia Code', 'JetBrains Mono', 'Fira Code', 'Consolas', 'Menlo', monospace" fill="#333333">This is a very long stadium label that tests text wrapping and node sizing</text>
    <rect x="1102.8" y="35" width="40.4" height="32.8" rx="16.4" ry="16.4" fill="#ececffb2" stroke="#9370db" stroke-width="1.5" />
    <text x="1123" y="51.4" text-anchor="middle" dominant-baseline="central" font-size="14px" font-family="'Intel One Mono', 'SF Mono', 'Cascadia Code', 'JetBrains Mono', 'Fira Code', 'Consolas', 'Menlo', monospace" fill="#333333">X</text>
    <rect x="1193.2" y="9.3" width="116" height="32.8" rx="16.4" ry="16.4" fill="#ececffb2" stroke="#9370db" stroke-width="1.5" />
    <text x="1251.2" y="25.7" text-anchor="middle" dominant-baseline="central" font-size="14px" font-family="'Intel One Mono', 'SF Mono', 'Cascadia Code', 'JetBrains Mono', 'Fira Code', 'Consolas', 'Menlo', monospace" fill="#333333">Multi Word</text>
  </g>
</svg>
