<svg xmlns="http://www.w3.org/2000/svg" viewBox="0 0 269.04 437.6" width="269.04" height="437.6">
  <defs>
    <marker id="arrow-point-333333" viewBox="0 0 10 10" refX="8" refY="5" markerWidth="8" markerHeight="8" orient="auto-start-reverse">
      <path d="M10 5 L0 10 L4 5 L0 0 Z" fill="#333333" />
    </marker>
  </defs>
  <g transform="translate(20, 20)">
    <path d="M113.59 32.8 L121.57 38.37 C129.54 43.93 145.49 55.07 153.47 66.2 C161.44 77.33 161.44 88.47 161.44 94.03 L161.44 97.2" fill="none" stroke="#333333" stroke-width="1.5" marker-end="url(#arrow-point-333333)" />
    <rect x="131.64" y="55" width="59.6" height="22.4" rx="2" ry="2" fill="#f5f3ffbf" stroke="#f5f3ffbf" stroke-width="0.5" />
    <text x="161.44" y="66.2" text-anchor="middle" dominant-baseline="central" font-size="12px" font-family="'Intel One Mono', 'SF Mono', 'Cascadia Code', 'JetBrains Mono', 'Fira Code', 'Consolas', 'Menlo', monospace" fill="#333333">narrows</text>
    <path d="M161.44 132.4 L161.44 137.97 C161.44 143.53 161.44 154.67 161.44 165.8 C161.44 176.93 161.44 188.07 161.44 193.63 L161.44 196.8" fill="none" stroke="#333333" stroke-width="1.5" marker-end="url(#arrow-point-333333)" />
    <rect x="131.64" y="154.6" width="59.6" height="22.4" rx="2" ry="2" fill="#f5f3ffbf" stroke="#f5f3ffbf" stroke-width="0.5" />
    <text x="161.44" y="165.8" text-anchor="middle" dominant-baseline="central" font-size="12px" font-family="'Intel One Mono', 'SF Mono', 'Cascadia Code', 'JetBrains Mono', 'Fira Code', 'Consolas', 'Menlo', monospace" fill="#333333">expands</text>
    <path d="M161.44 232 L161.44 236.17 C161.44 240.33 161.44 248.67 161.44 257 C161.44 265.33 161.44 273.67 161.44 277.83 L161.44 279.6" fill="none" stroke="#333333" stroke-width="1.5" marker-end="url(#arrow-point-333333)" />
    <path d="M161.44 314.8 L161.44 318.97 C161.44 323.13 161.44 331.47 154.26 339.8 C147.08 348.13 132.72 356.47 125.54 360.63 L120.43 363.6" fill="none" stroke="#333333" stroke-width="1.5" marker-end="url(#arrow-point-333333)" />
    <path d="M66.6 32.8 L58.62 38.37 C50.64 43.93 34.69 55.07 26.72 68.93 C18.74 82.8 18.74 99.4 18.74 116 C18.74 132.6 18.74 149.2 18.74 165.8 C18.74 182.4 18.74 199 18.74 214.2 C18.74 229.4 18.74 243.2 18.74 257 C18.74 270.8 18.74 284.6 18.74 298.4 C18.74 312.2 18.74 326 25.92 337.07 C33.1 348.13 47.47 356.47 54.65 360.63 L59.75 363.6" fill="none" stroke="#333333" stroke-width="1.5" marker-end="url(#arrow-point-333333)" />
    <rect x="0" y="204.4" width="37.49" height="22.4" rx="2" ry="2" fill="#f5f3ffbf" stroke="#f5f3ffbf" stroke-width="0.5" />
    <text x="18.74" y="215.6" text-anchor="middle" dominant-baseline="central" font-size="12px" font-family="'Intel One Mono', 'SF Mono', 'Cascadia Code', 'JetBrains Mono', 'Fira Code', 'Consolas', 'Menlo', monospace" fill="#333333">skip</text>
    <polygon points="39.69,0 140.49,0 156.89,32.8 23.29,32.8" fill="#ececffb2" stroke="#9370db" stroke-width="1.5" />
    <text x="90.09" y="16.4" text-anchor="middle" dominant-baseline="central" font-size="14px" font-family="'Intel One Mono', 'SF Mono', 'Cascadia Code', 'JetBrains Mono', 'Fira Code', 'Consolas', 'Menlo', monospace" fill="#333333">Wide Top</text>
    <polygon points="81.74,99.6 241.14,99.6 224.74,132.4 98.14,132.4" fill="#ececffb2" stroke="#9370db" stroke-width="1.5" />
    <text x="161.44" y="116" text-anchor="middle" dominant-baseline="central" font-size="14px" font-family="'Intel One Mono', 'SF Mono', 'Cascadia Code', 'JetBrains Mono', 'Fira Code', 'Consolas', 'Menlo', monospace" fill="#333333">Wide Bottom</text>
    <polygon points="98.14,199.2 224.74,199.2 241.14,232 81.74,232" fill="#ececffb2" stroke="#9370db" stroke-width="1.5" />
    <text x="161.44" y="215.6" text-anchor="middle" dominant-baseline="central" font-size="14px" font-family="'Intel One Mono', 'SF Mono', 'Cascadia Code', 'JetBrains Mono', 'Fira Code', 'Consolas', 'Menlo', monospace" fill="#333333">Another Top</text>
    <rect x="93.84" y="282" width="135.2" height="32.8" fill="#ececffb2" stroke="#9370db" stroke-width="1.5" />
    <text x="161.44" y="298.4" text-anchor="middle" dominant-baseline="central" font-size="14px" font-family="'Intel One Mono', 'SF Mono', 'Cascadia Code', 'JetBrains Mono', 'Fira Code', 'Consolas', 'Menlo', monospace" fill="#333333">Regular Rect</text>
    <polygon points="14.69,364.8 165.49,364.8 149.09,397.6 31.09,397.6" fill="#ececffb2" stroke="#9370db" stroke-width="1.5" />
    <text x="90.09" y="381.2" text-anchor="middle" dominant-baseline="central" font-size="14px" font-family="'Intel One Mono', 'SF Mono', 'Cascadia Code', 'JetBrains Mono', 'Fira Code', 'Consolas', 'Menlo', monospace" fill="#333333">Final Trap</text>
  </g>
</svg>
