<svg xmlns="http://www.w3.org/2000/svg" viewBox="0 0 503 988.4" width="503" height="988.4">
  <defs>
    <marker id="arrow-point-333333" viewBox="0 0 10 10" refX="8" refY="5" markerWidth="8" markerHeight="8" orient="auto-start-reverse">
      <path d="M10 5 L0 10 L4 5 L0 0 Z" fill="#333333" />
    </marker>
  </defs>
  <g transform="translate(20, 20)">
    <path d="M97.7 32.8 L97.7 36.97 C97.7 41.13 97.7 49.47 97.7 57.8 C97.7 66.13 97.7 74.47 97.7 78.63 L97.7 80.4" fill="none" stroke="#333333" stroke-width="1.5" marker-end="url(#arrow-point-333333)" />
    <path d="M97.7 115.6 L97.7 119.77 C97.7 123.93 97.7 132.27 97.7 140.6 C97.7 148.93 97.7 157.27 97.7 161.43 L97.7 163.2" fill="none" stroke="#333333" stroke-width="1.5" marker-end="url(#arrow-point-333333)" />
    <path d="M97.7 198.4 L97.7 202.57 C97.7 206.73 97.7 215.07 97.7 223.4 C97.7 231.73 97.7 240.07 97.7 244.23 L97.7 246" fill="none" stroke="#333333" stroke-width="1.5" marker-end="url(#arrow-point-333333)" />
    <path d="M97.7 383.6 L97.7 387.77 C97.7 391.93 97.7 400.27 97.7 408.6 C97.7 416.93 97.7 425.27 97.7 429.43 L97.7 431.2" fill="none" stroke="#333333" stroke-width="1.5" marker-end="url(#arrow-point-333333)" />
    <path d="M97.7 610.2 L97.7 614.37 C97.7 618.53 97.7 626.87 97.7 635.2 C97.7 643.53 97.7 651.87 97.7 656.03 L97.7 657.8" fill="none" stroke="#333333" stroke-width="1.5" marker-end="url(#arrow-point-333333)" />
    <path d="M97.7 693 L97.7 697.17 C97.7 701.33 97.7 709.67 97.7 732.38 C97.7 755.1 97.7 792.2 97.7 810.75 L97.7 826.9" fill="none" stroke="#333333" stroke-width="1.5" marker-end="url(#arrow-point-333333)" />
    <path d="M348.1 32.8 L348.1 36.97 C348.1 41.13 348.1 49.47 348.1 57.8 C348.1 66.13 348.1 74.47 348.1 78.63 L348.1 80.4" fill="none" stroke="#333333" stroke-width="1.5" marker-end="url(#arrow-point-333333)" />
    <path d="M348.1 115.6 L348.1 119.77 C348.1 123.93 348.1 132.27 348.1 140.6 C348.1 148.93 348.1 157.27 348.1 161.43 L348.1 163.2" fill="none" stroke="#333333" stroke-width="1.5" marker-end="url(#arrow-point-333333)" />
    <path d="M348.1 198.4 L348.1 202.57 C348.1 206.73 348.1 215.07 348.1 228.5 C348.1 241.93 348.1 260.47 348.1 269.73 L348.1 276.6" fill="none" stroke="#333333" stroke-width="1.5" marker-end="url(#arrow-point-333333)" />
    <path d="M348.1 353 L348.1 362.27 C348.1 371.53 348.1 390.07 348.1 415.48 C348.1 440.9 348.1 473.2 348.1 489.35 L348.1 503.1" fill="none" stroke="#333333" stroke-width="1.5" marker-end="url(#arrow-point-333333)" />
    <path d="M348.1 538.3 L348.1 554.45 C348.1 570.6 348.1 602.9 348.1 623.22 C348.1 643.53 348.1 651.87 348.1 656.03 L348.1 657.8" fill="none" stroke="#333333" stroke-width="1.5" marker-end="url(#arrow-point-333333)" />
    <path d="M348.1 693 L348.1 697.17 C348.1 701.33 348.1 709.67 348.1 718 C348.1 726.33 348.1 734.67 348.1 738.83 L348.1 740.6" fill="none" stroke="#333333" stroke-width="1.5" marker-end="url(#arrow-point-333333)" />
    <rect x="17.2" y="0" width="161" height="32.8" fill="#ececffb2" stroke="#9370db" stroke-width="1.5" />
    <text x="97.7" y="16.4" text-anchor="middle" dominant-baseline="central" font-size="14px" font-family="'Intel One Mono', 'SF Mono', 'Cascadia Code', 'JetBrains Mono', 'Fira Code', 'Consolas', 'Menlo', monospace" fill="#333333">Rectangle Label</text>
    <rect x="4.3" y="82.8" width="186.8" height="32.8" rx="5" ry="5" fill="#ececffb2" stroke="#9370db" stroke-width="1.5" />
    <text x="97.7" y="99.2" text-anchor="middle" dominant-baseline="central" font-size="14px" font-family="'Intel One Mono', 'SF Mono', 'Cascadia Code', 'JetBrains Mono', 'Fira Code', 'Consolas', 'Menlo', monospace" fill="#333333">Rounded Rect Label</text>
    <rect x="25.8" y="165.6" width="143.8" height="32.8" rx="16.4" ry="16.4" fill="#ececffb2" stroke="#9370db" stroke-width="1.5" />
    <text x="97.7" y="182" text-anchor="middle" dominant-baseline="central" font-size="14px" font-family="'Intel One Mono', 'SF Mono', 'Cascadia Code', 'JetBrains Mono', 'Fira Code', 'Consolas', 'Menlo', monospace" fill="#333333">Stadium Label</text>
    <circle cx="97.7" cy="316" r="67.6" fill="#ececffb2" stroke="#9370db" stroke-width="1.5" />
    <text x="97.7" y="316" text-anchor="middle" dominant-baseline="central" font-size="14px" font-family="'Intel One Mono', 'SF Mono', 'Cascadia Code', 'JetBrains Mono', 'Fira Code', 'Consolas', 'Menlo', monospace" fill="#333333">Circle Label</text>
    <polygon points="97.7,433.6 186,521.9 97.7,610.2 9.4,521.9" fill="#ececffb2" stroke="#9370db" stroke-width="1.5" />
    <text x="97.7" y="521.9" text-anchor="middle" dominant-baseline="central" font-size="14px" font-family="'Intel One Mono', 'SF Mono', 'Cascadia Code', 'JetBrains Mono', 'Fira Code', 'Consolas', 'Menlo', monospace" fill="#333333">Diamond Label</text>
    <polygon points="34,660.2 161.4,660.2 169.6,676.6 161.4,693 34,693 25.8,676.6" fill="#ececffb2" stroke="#9370db" stroke-width="1.5" />
    <text x="97.7" y="676.6" text-anchor="middle" dominant-baseline="central" font-size="14px" font-family="'Intel One Mono', 'SF Mono', 'Cascadia Code', 'JetBrains Mono', 'Fira Code', 'Consolas', 'Menlo', monospace" fill="#333333">Hexagon Label</text>
    <polygon points="0,829.3 195.4,829.3 211.8,862.1 -16.4,862.1" fill="#ececffb2" stroke="#9370db" stroke-width="1.5" />
    <text x="97.7" y="845.7" text-anchor="middle" dominant-baseline="central" font-size="14px" font-family="'Intel One Mono', 'SF Mono', 'Cascadia Code', 'JetBrains Mono', 'Fira Code', 'Consolas', 'Menlo', monospace" fill="#333333">Parallelogram Label</text>
    <polygon points="216.8,0 479.4,0 463,32.8 233.2,32.8" fill="#ececffb2" stroke="#9370db" stroke-width="1.5" />
    <text x="348.1" y="16.4" text-anchor="middle" dominant-baseline="central" font-size="14px" font-family="'Intel One Mono', 'SF Mono', 'Cascadia Code', 'JetBrains Mono', 'Fira Code', 'Consolas', 'Menlo', monospace" fill="#333333">Parallelogram Alt Label</text>
    <polygon points="267.6,82.8 428.6,82.8 445,115.6 251.2,115.6" fill="#ececffb2" stroke="#9370db" stroke-width="1.5" />
    <text x="348.1" y="99.2" text-anchor="middle" dominant-baseline="central" font-size="14px" font-family="'Intel One Mono', 'SF Mono', 'Cascadia Code', 'JetBrains Mono', 'Fira Code', 'Consolas', 'Menlo', monospace" fill="#333333">Trapezoid Label</text>
    <polygon points="234,165.6 462.2,165.6 445.8,198.4 250.4,198.4" fill="#ececffb2" stroke="#9370db" stroke-width="1.5" />
    <text x="348.1" y="182" text-anchor="middle" dominant-baseline="central" font-size="14px" font-family="'Intel One Mono', 'SF Mono', 'Cascadia Code', 'JetBrains Mono', 'Fira Code', 'Consolas', 'Menlo', monospace" fill="#333333">Trapezoid Alt Label</text>
    <path d="M271.9 292.73 L271.9 339.27 A76.2 13.73 0 0 0 424.3 339.27 L424.3 292.73 A76.2 13.73 0 0 1 271.9 292.73" fill="#ececffb2" stroke="#9370db" stroke-width="1.5" />
    <path d="M271.9 292.73 A76.2 13.73 0 0 1 424.3 292.73 A76.2 13.73 0 0 1 271.9 292.73" fill="#ececffb2" stroke="#9370db" stroke-width="1.5" />
    <text x="348.1" y="322.87" text-anchor="middle" dominant-baseline="central" font-size="14px" font-family="'Intel One Mono', 'SF Mono', 'Cascadia Code', 'JetBrains Mono', 'Fira Code', 'Consolas', 'Menlo', monospace" fill="#333333">Cylinder Label</text>
    <polygon points="263.3,505.5 432.9,505.5 432.9,538.3 263.3,538.3 271.5,521.9" fill="#ececffb2" stroke="#9370db" stroke-width="1.5" />
    <text x="348.1" y="521.9" text-anchor="middle" dominant-baseline="central" font-size="14px" font-family="'Intel One Mono', 'SF Mono', 'Cascadia Code', 'JetBrains Mono', 'Fira Code', 'Consolas', 'Menlo', monospace" fill="#333333">Asymmetric Label</text>
    <rect x="255.3" y="660.2" width="185.6" height="32.8" fill="#ececffb2" stroke="#9370db" stroke-width="1.5" />
    <path d="M263.3 660.2 L263.3 693" fill="none" stroke="#9370db" stroke-width="1.5" />
    <path d="M432.9 660.2 L432.9 693" fill="none" stroke="#9370db" stroke-width="1.5" />
    <text x="348.1" y="676.6" text-anchor="middle" dominant-baseline="central" font-size="14px" font-family="'Intel One Mono', 'SF Mono', 'Cascadia Code', 'JetBrains Mono', 'Fira Code', 'Consolas', 'Menlo', monospace" fill="#333333">Subroutine Label</text>
    <circle cx="348.1" cy="845.7" r="102.7" fill="#ececffb2" stroke="#9370db" stroke-width="1.5" />
    <circle cx="348.1" cy="845.7" r="97.7" fill="#ececffb2" stroke="#9370db" stroke-width="1.5" />
    <text x="348.1" y="845.7" text-anchor="middle" dominant-baseline="central" font-size="14px" font-family="'Intel One Mono', 'SF Mono', 'Cascadia Code', 'JetBrains Mono', 'Fira Code', 'Consolas', 'Menlo', monospace" fill="#333333">Double Circle Label</text>
  </g>
</svg>
