<svg xmlns="http://www.w3.org/2000/svg" viewBox="0 0 288.2 504" width="288.2" height="504">
  <defs>
    <marker id="arrow-point-333333" viewBox="0 0 10 10" refX="8" refY="5" markerWidth="8" markerHeight="8" orient="auto-start-reverse">
      <path d="M10 5 L0 10 L4 5 L0 0 Z" fill="#333333" />
    </marker>
  </defs>
  <g transform="translate(20, 20)">
    <rect x="0" y="298.4" width="248.2" height="165.6" rx="5" ry="5" fill="#ecf2dc99" stroke="#a8ae8e" stroke-width="1" />
    <text x="8" y="310.4" text-anchor="start" dominant-baseline="central" font-size="13px" font-family="'Intel One Mono', 'SF Mono', 'Cascadia Code', 'JetBrains Mono', 'Fira Code', 'Consolas', 'Menlo', monospace" fill="#333333" font-weight="bold">Test Phase</text>
    <rect x="43" y="0" width="162.2" height="248.4" rx="5" ry="5" fill="#ecf2dc99" stroke="#a8ae8e" stroke-width="1" />
    <text x="51" y="12" text-anchor="start" dominant-baseline="central" font-size="13px" font-family="'Intel One Mono', 'SF Mono', 'Cascadia Code', 'JetBrains Mono', 'Fira Code', 'Consolas', 'Menlo', monospace" fill="#333333" font-weight="bold">Build Phase</text>
    <path d="M124.1 57.8 L124.1 61.97 C124.1 66.13 124.1 74.47 124.1 82.8 C124.1 91.13 124.1 99.47 124.1 103.63 L124.1 105.4" fill="none" stroke="#333333" stroke-width="1.5" marker-end="url(#arrow-point-333333)" />
    <path d="M124.1 140.6 L124.1 144.77 C124.1 148.93 124.1 157.27 124.1 165.6 C124.1 173.93 124.1 182.27 124.1 186.43 L124.1 188.2" fill="none" stroke="#333333" stroke-width="1.5" marker-end="url(#arrow-point-333333)" />
    <path d="M124.1 356.2 L124.1 360.37 C124.1 364.53 124.1 372.87 124.1 381.2 C124.1 389.53 124.1 397.87 124.1 402.03 L124.1 403.8" fill="none" stroke="#333333" stroke-width="1.5" marker-end="url(#arrow-point-333333)" />
    <path d="M124.1 223.4 L124.1 227.57 C124.1 231.73 124.1 240.07 124.1 248.4 C124.1 256.73 124.1 265.07 124.1 273.4 C124.1 281.73 124.1 290.07 124.1 298.4 C124.1 306.73 124.1 315.07 124.1 319.23 L124.1 321" fill="none" stroke="#333333" stroke-width="1.5" marker-end="url(#arrow-point-333333)" />
    <rect x="82.3" y="25" width="83.6" height="32.8" fill="#ececffb2" stroke="#9370db" stroke-width="1.5" />
    <text x="124.1" y="41.4" text-anchor="middle" dominant-baseline="central" font-size="14px" font-family="'Intel One Mono', 'SF Mono', 'Cascadia Code', 'JetBrains Mono', 'Fira Code', 'Consolas', 'Menlo', monospace" fill="#333333">Source</text>
    <rect x="78" y="107.8" width="92.2" height="32.8" fill="#ececffb2" stroke="#9370db" stroke-width="1.5" />
    <text x="124.1" y="124.2" text-anchor="middle" dominant-baseline="central" font-size="14px" font-family="'Intel One Mono', 'SF Mono', 'Cascadia Code', 'JetBrains Mono', 'Fira Code', 'Consolas', 'Menlo', monospace" fill="#333333">Compile</text>
    <rect x="90.9" y="190.6" width="66.4" height="32.8" fill="#ececffb2" stroke="#9370db" stroke-width="1.5" />
    <text x="124.1" y="207" text-anchor="middle" dominant-baseline="central" font-size="14px" font-family="'Intel One Mono', 'SF Mono', 'Cascadia Code', 'JetBrains Mono', 'Fira Code', 'Consolas', 'Menlo', monospace" fill="#333333">Link</text>
    <rect x="65.1" y="323.4" width="118" height="32.8" fill="#ececffb2" stroke="#9370db" stroke-width="1.5" />
    <text x="124.1" y="339.8" text-anchor="middle" dominant-baseline="central" font-size="14px" font-family="'Intel One Mono', 'SF Mono', 'Cascadia Code', 'JetBrains Mono', 'Fira Code', 'Consolas', 'Menlo', monospace" fill="#333333">Unit Tests</text>
    <rect x="35" y="406.2" width="178.2" height="32.8" fill="#ececffb2" stroke="#9370db" stroke-width="1.5" />
    <text x="124.1" y="422.6" text-anchor="middle" dominant-baseline="central" font-size="14px" font-family="'Intel One Mono', 'SF Mono', 'Cascadia Code', 'JetBrains Mono', 'Fira Code', 'Consolas', 'Menlo', monospace" fill="#333333">Integration Tests</text>
  </g>
</svg>
