<svg xmlns="http://www.w3.org/2000/svg" viewBox="0 0 170.8 238.4" width="170.8" height="238.4">
  <defs>
    <marker id="arrow-point-333333" viewBox="0 0 10 10" refX="8" refY="5" markerWidth="8" markerHeight="8" orient="auto-start-reverse">
      <path d="M10 5 L0 10 L4 5 L0 0 Z" fill="#333333" />
    </marker>
  </defs>
  <g transform="translate(20, 20)">
    <path d="M83.31 32.8 L87.85 36.97 C92.4 41.13 101.5 49.47 106.05 57.8 C110.6 66.13 110.6 74.47 110.6 78.63 L110.6 80.4" fill="none" stroke="#333333" stroke-width="1.5" marker-end="url(#arrow-point-333333)" />
    <path d="M47.49 32.8 L42.95 36.97 C38.4 41.13 29.3 49.47 24.75 57.8 C20.2 66.13 20.2 74.47 20.2 78.63 L20.2 80.4" fill="none" stroke="#333333" stroke-width="1.5" marker-end="url(#arrow-point-333333)" />
    <path d="M110.6 115.6 L110.6 119.77 C110.6 123.93 110.6 132.27 106.05 140.6 C101.5 148.93 92.4 157.27 87.85 161.43 L85.08 163.98" fill="none" stroke="#333333" stroke-width="1.5" marker-end="url(#arrow-point-333333)" />
    <path d="M20.2 115.6 L20.2 119.77 C20.2 123.93 20.2 132.27 24.75 140.6 C29.3 148.93 38.4 157.27 42.95 161.43 L45.72 163.98" fill="none" stroke="#333333" stroke-width="1.5" marker-end="url(#arrow-point-333333)" />
    <rect x="45.2" y="0" width="40.4" height="32.8" fill="#ececffb2" stroke="#9370db" stroke-width="1.5" />
    <text x="65.4" y="16.4" text-anchor="middle" dominant-baseline="central" font-size="14px" font-family="'Intel One Mono', 'SF Mono', 'Cascadia Code', 'JetBrains Mono', 'Fira Code', 'Consolas', 'Menlo', monospace" fill="#333333">A</text>
    <rect x="90.4" y="82.8" width="40.4" height="32.8" fill="#ececffb2" stroke="#9370db" stroke-width="1.5" />
    <text x="110.6" y="99.2" text-anchor="middle" dominant-baseline="central" font-size="14px" font-family="'Intel One Mono', 'SF Mono', 'Cascadia Code', 'JetBrains Mono', 'Fira Code', 'Consolas', 'Menlo', monospace" fill="#333333">B</text>
    <rect x="0" y="82.8" width="40.4" height="32.8" fill="#ececffb2" stroke="#9370db" stroke-width="1.5" />
    <text x="20.2" y="99.2" text-anchor="middle" dominant-baseline="central" font-size="14px" font-family="'Intel One Mono', 'SF Mono', 'Cascadia Code', 'JetBrains Mono', 'Fira Code', 'Consolas', 'Menlo', monospace" fill="#333333">C</text>
    <rect x="45.2" y="165.6" width="40.4" height="32.8" fill="#ececffb2" stroke="#9370db" stroke-width="1.5" />
    <text x="65.4" y="182" text-anchor="middle" dominant-baseline="central" font-size="14px" font-family="'Intel One Mono', 'SF Mono', 'Cascadia Code', 'JetBrains Mono', 'Fira Code', 'Consolas', 'Menlo', monospace" fill="#333333">D</text>
  </g>
</svg>
