<svg xmlns="http://www.w3.org/2000/svg" viewBox="0 0 308 833.6" width="308" height="833.6">
  <defs>
    <marker id="arrow-point-333333" viewBox="0 0 10 10" refX="8" refY="5" markerWidth="8" markerHeight="8" orient="auto-start-reverse">
      <path d="M10 5 L0 10 L4 5 L0 0 Z" fill="#333333" />
    </marker>
  </defs>
  <g transform="translate(20, 20)">
    <rect x="0" y="66" width="268" height="661.6" rx="5" ry="5" fill="#ffffffcc" stroke="#9370db" stroke-width="1.5" />
    <text x="134" y="78" text-anchor="middle" dominant-baseline="central" font-size="14px" font-family="'Intel One Mono', 'SF Mono', 'Cascadia Code', 'JetBrains Mono', 'Fira Code', 'Consolas', 'Menlo', monospace" fill="#333333">Outer</text>
    <path d="M0 90 L268 90" fill="none" stroke="#9370db" stroke-width="1" />
    <rect x="20" y="157" width="228" height="479.6" rx="5" ry="5" fill="#ffffffcc" stroke="#9370db" stroke-width="1.5" />
    <text x="134" y="169" text-anchor="middle" dominant-baseline="central" font-size="14px" font-family="'Intel One Mono', 'SF Mono', 'Cascadia Code', 'JetBrains Mono', 'Fira Code', 'Consolas', 'Menlo', monospace" fill="#333333">Middle</text>
    <path d="M20 181 L248 181" fill="none" stroke="#9370db" stroke-width="1" />
    <rect x="40" y="248" width="188" height="297.6" rx="5" ry="5" fill="#ffffffcc" stroke="#9370db" stroke-width="1.5" />
    <text x="134" y="260" text-anchor="middle" dominant-baseline="central" font-size="14px" font-family="'Intel One Mono', 'SF Mono', 'Cascadia Code', 'JetBrains Mono', 'Fira Code', 'Consolas', 'Menlo', monospace" fill="#333333">Inner</text>
    <path d="M40 272 L228 272" fill="none" stroke="#9370db" stroke-width="1" />
    <path d="M134 289 L134 293.17 C134 297.33 134 305.67 134 314 C134 322.33 134 330.67 134 334.83 L134 336.6" fill="none" stroke="#333333" stroke-width="1.5" marker-end="url(#arrow-point-333333)" />
    <path d="M148.66 371.8 L152.38 375.97 C156.1 380.13 163.55 388.47 163.55 396.8 C163.55 405.13 156.1 413.47 152.38 417.63 L150.26 420.01" fill="none" stroke="#333333" stroke-width="1.5" marker-end="url(#arrow-point-333333)" />
    <path d="M134 454.6 L134 458.77 C134 462.93 134 471.27 134 479.6 C134 487.93 134 496.27 134 500.43 L134 502.2" fill="none" stroke="#333333" stroke-width="1.5" marker-end="url(#arrow-point-333333)" />
    <path d="M134 198 L134 202.17 C134 206.33 134 214.67 134 223 C134 231.33 134 239.67 134 245.6" fill="none" stroke="#333333" stroke-width="1.5" marker-end="url(#arrow-point-333333)" />
    <path d="M134 545.6 C134 553.93 134 562.27 134 570.6 C134 578.93 134 587.27 134 591.43 L134 593.2" fill="none" stroke="#333333" stroke-width="1.5" marker-end="url(#arrow-point-333333)" />
    <path d="M134 107 L134 111.17 C134 115.33 134 123.67 134 132 C134 140.33 134 148.67 134 154.6" fill="none" stroke="#333333" stroke-width="1.5" marker-end="url(#arrow-point-333333)" />
    <path d="M134 636.6 C134 644.93 134 653.27 134 661.6 C134 669.93 134 678.27 134 682.43 L134 684.2" fill="none" stroke="#333333" stroke-width="1.5" marker-end="url(#arrow-point-333333)" />
    <path d="M134 16 L134 20.17 C134 24.33 134 32.67 134 41 C134 49.33 134 57.67 134 63.6" fill="none" stroke="#333333" stroke-width="1.5" marker-end="url(#arrow-point-333333)" />
    <path d="M134 727.6 C134 735.93 134 744.27 134 752.6 C134 760.93 134 769.27 134 773.43 L134 775.2" fill="none" stroke="#333333" stroke-width="1.5" marker-end="url(#arrow-point-333333)" />
    <path d="M119.34 421.8 L115.62 417.63 C111.9 413.47 104.45 405.13 104.45 396.8 C104.45 388.47 111.9 380.13 115.62 375.97 L117.74 373.59" fill="none" stroke="#333333" stroke-width="1.5" marker-end="url(#arrow-point-333333)" />
    <rect x="100.8" y="339" width="66.4" height="32.8" rx="5" ry="5" fill="#ececffb2" stroke="#9370db" stroke-width="1.5" />
    <text x="134" y="355.4" text-anchor="middle" dominant-baseline="central" font-size="14px" font-family="'Intel One Mono', 'SF Mono', 'Cascadia Code', 'JetBrains Mono', 'Fira Code', 'Consolas', 'Menlo', monospace" fill="#333333">Core</text>
    <circle cx="134" cy="512.6" r="8" fill="none" stroke="#9370db" stroke-width="1.5" />
    <circle cx="134" cy="512.6" r="4" fill="#9370db" />
    <circle cx="134" cy="281" r="8" fill="#333333" stroke="#333333" />
    <circle cx="134" cy="603.6" r="8" fill="none" stroke="#9370db" stroke-width="1.5" />
    <circle cx="134" cy="603.6" r="4" fill="#9370db" />
    <circle cx="134" cy="190" r="8" fill="#333333" stroke="#333333" />
    <circle cx="134" cy="694.6" r="8" fill="none" stroke="#9370db" stroke-width="1.5" />
    <circle cx="134" cy="694.6" r="4" fill="#9370db" />
    <circle cx="134" cy="99" r="8" fill="#333333" stroke="#333333" />
    <rect x="75" y="421.8" width="118" height="32.8" rx="5" ry="5" fill="#ececffb2" stroke="#9370db" stroke-width="1.5" />
    <text x="134" y="438.2" text-anchor="middle" dominant-baseline="central" font-size="14px" font-family="'Intel One Mono', 'SF Mono', 'Cascadia Code', 'JetBrains Mono', 'Fira Code', 'Consolas', 'Menlo', monospace" fill="#333333">Processing</text>
    <circle cx="134" cy="785.6" r="8" fill="none" stroke="#9370db" stroke-width="1.5" />
    <circle cx="134" cy="785.6" r="4" fill="#9370db" />
    <circle cx="134" cy="8" r="8" fill="#333333" stroke="#333333" />
  </g>
</svg>
