<svg xmlns="http://www.w3.org/2000/svg" viewBox="0 0 872.45 1582.4" width="872.45" height="1582.4">
  <defs>
    <marker id="arrow-point-333333" viewBox="0 0 10 10" refX="8" refY="5" markerWidth="8" markerHeight="8" orient="auto-start-reverse">
      <path d="M10 5 L0 10 L4 5 L0 0 Z" fill="#333333" />
    </marker>
  </defs>
  <g transform="translate(20, 20)">
    <path d="M654.8 16 L654.8 20.17 C654.8 24.33 654.8 32.67 654.8 41 C654.8 49.33 654.8 57.67 654.8 61.83 L654.8 63.6" fill="none" stroke="#333333" stroke-width="1.5" marker-end="url(#arrow-point-333333)" />
    <path d="M654.8 98.8 L654.8 104.37 C654.8 109.93 654.8 121.07 654.8 132.2 C654.8 143.33 654.8 154.47 654.8 160.03 L654.8 163.2" fill="none" stroke="#333333" stroke-width="1.5" marker-end="url(#arrow-point-333333)" />
    <rect x="621.31" y="121" width="66.97" height="22.4" rx="2" ry="2" fill="#f5f3ffbf" stroke="#f5f3ffbf" stroke-width="0.5" />
    <text x="654.8" y="132.2" text-anchor="middle" dominant-baseline="central" font-size="12px" font-family="'Intel One Mono', 'SF Mono', 'Cascadia Code', 'JetBrains Mono', 'Fira Code', 'Consolas', 'Menlo', monospace" fill="#333333">checkout</text>
    <path d="M683.96 198.4 L693.86 203.97 C703.76 209.53 723.55 220.67 733.45 231.8 C743.35 242.93 743.35 254.07 743.35 259.63 L743.35 262.8" fill="none" stroke="#333333" stroke-width="1.5" marker-end="url(#arrow-point-333333)" />
    <rect x="709.56" y="212.45" width="30.11" height="22.4" rx="2" ry="2" fill="#f5f3ffbf" stroke="#f5f3ffbf" stroke-width="0.5" />
    <text x="724.61" y="223.65" text-anchor="middle" dominant-baseline="central" font-size="12px" font-family="'Intel One Mono', 'SF Mono', 'Cascadia Code', 'JetBrains Mono', 'Fira Code', 'Consolas', 'Menlo', monospace" fill="#333333">pay</text>
    <path d="M751.14 298 L753.78 303.57 C756.43 309.13 761.71 320.27 751.81 331.4 C741.92 342.53 716.83 353.67 704.29 359.23 L693.94 363.83" fill="none" stroke="#333333" stroke-width="1.5" marker-end="url(#arrow-point-333333)" />
    <rect x="705.46" y="330.46" width="66.97" height="22.4" rx="2" ry="2" fill="#f5f3ffbf" stroke="#f5f3ffbf" stroke-width="0.5" />
    <text x="738.95" y="341.66" text-anchor="middle" dominant-baseline="central" font-size="12px" font-family="'Intel One Mono', 'SF Mono', 'Cascadia Code', 'JetBrains Mono', 'Fira Code', 'Consolas', 'Menlo', monospace" fill="#333333">declined</text>
    <path d="M683.07 298 L662.61 303.57 C642.15 309.13 601.22 320.27 568.22 331.4 C535.22 342.53 510.13 353.67 497.59 359.23 L487.24 363.83" fill="none" stroke="#333333" stroke-width="1.5" marker-end="url(#arrow-point-333333)" />
    <rect x="548.97" y="315.55" width="66.97" height="22.4" rx="2" ry="2" fill="#f5f3ffbf" stroke="#f5f3ffbf" stroke-width="0.5" />
    <text x="582.46" y="326.75" text-anchor="middle" dominant-baseline="central" font-size="12px" font-family="'Intel One Mono', 'SF Mono', 'Cascadia Code', 'JetBrains Mono', 'Fira Code', 'Consolas', 'Menlo', monospace" fill="#333333">approved</text>
    <path d="M448.1 397.6 L448.1 401.77 C448.1 405.93 448.1 414.27 448.1 422.6 C448.1 430.93 448.1 439.27 448.1 443.43 L448.1 445.2" fill="none" stroke="#333333" stroke-width="1.5" marker-end="url(#arrow-point-333333)" />
    <path d="M485.05 480.4 L497.59 485.97 C510.13 491.53 535.22 502.67 547.76 513.8 C560.3 524.93 560.3 536.07 560.3 541.63 L560.3 544.8" fill="none" stroke="#333333" stroke-width="1.5" marker-end="url(#arrow-point-333333)" />
    <rect x="492.99" y="492.79" width="81.71" height="22.4" rx="2" ry="2" fill="#f5f3ffbf" stroke="#f5f3ffbf" stroke-width="0.5" />
    <text x="533.85" y="503.99" text-anchor="middle" dominant-baseline="central" font-size="12px" font-family="'Intel One Mono', 'SF Mono', 'Cascadia Code', 'JetBrains Mono', 'Fira Code', 'Consolas', 'Menlo', monospace" fill="#333333">suspicious</text>
    <path d="M395.92 480.4 L378.21 485.97 C360.5 491.53 325.07 502.67 307.36 516.53 C289.65 530.4 289.65 547 289.65 563.6 C289.65 580.2 289.65 596.8 289.65 613.4 C289.65 630 289.65 646.6 289.65 663.2 C289.65 679.8 289.65 696.4 290.77 710.27 C291.89 724.13 294.12 735.27 295.24 740.83 L295.88 744.05" fill="none" stroke="#333333" stroke-width="1.5" marker-end="url(#arrow-point-333333)" />
    <rect x="259.85" y="569.73" width="59.6" height="22.4" rx="2" ry="2" fill="#f5f3ffbf" stroke="#f5f3ffbf" stroke-width="0.5" />
    <text x="289.65" y="580.93" text-anchor="middle" dominant-baseline="central" font-size="12px" font-family="'Intel One Mono', 'SF Mono', 'Cascadia Code', 'JetBrains Mono', 'Fira Code', 'Consolas', 'Menlo', monospace" fill="#333333">cleared</text>
    <path d="M560.3 580 L560.3 585.57 C560.3 591.13 560.3 602.27 560.3 613.4 C560.3 624.53 560.3 635.67 560.3 641.23 L560.3 644.4" fill="none" stroke="#333333" stroke-width="1.5" marker-end="url(#arrow-point-333333)" />
    <path d="M561.55 679.6 L561.98 685.17 C562.4 690.73 563.25 701.87 563.68 715.73 C564.1 729.6 564.1 746.2 564.1 762.8 C564.1 779.4 564.1 796 564.1 812.6 C564.1 829.2 564.1 845.8 564.1 862.4 C564.1 879 564.1 895.6 564.1 912.2 C564.1 928.8 564.1 945.4 564.1 962 C564.1 978.6 564.1 995.2 564.1 1011.8 C564.1 1028.4 564.1 1045 564.1 1061.6 C564.1 1078.2 564.1 1094.8 564.1 1111.4 C564.1 1128 564.1 1144.6 564.1 1161.2 C564.1 1177.8 564.1 1194.4 564.1 1211 C564.1 1227.6 564.1 1244.2 564.1 1260.8 C564.1 1277.4 564.1 1294 564.1 1310.6 C564.1 1327.2 564.1 1343.8 564.1 1360.4 C564.1 1377 564.1 1393.6 564.1 1407.47 C564.1 1421.33 564.1 1432.47 564.1 1438.03 L564.1 1441.2" fill="none" stroke="#333333" stroke-width="1.5" marker-end="url(#arrow-point-333333)" />
    <rect x="537.99" y="1050.37" width="52.23" height="22.4" rx="2" ry="2" fill="#f5f3ffbf" stroke="#f5f3ffbf" stroke-width="0.5" />
    <text x="564.1" y="1061.57" text-anchor="middle" dominant-baseline="central" font-size="12px" font-family="'Intel One Mono', 'SF Mono', 'Cascadia Code', 'JetBrains Mono', 'Fira Code', 'Consolas', 'Menlo', monospace" fill="#333333">reject</text>
    <path d="M526.18 679.6 L514.6 685.17 C503.02 690.73 479.86 701.87 450.73 713 C421.59 724.13 386.48 735.27 368.92 740.83 L353.66 745.67" fill="none" stroke="#333333" stroke-width="1.5" marker-end="url(#arrow-point-333333)" />
    <rect x="410.49" y="705.7" width="59.6" height="22.4" rx="2" ry="2" fill="#f5f3ffbf" stroke="#f5f3ffbf" stroke-width="0.5" />
    <text x="440.29" y="716.9" text-anchor="middle" dominant-baseline="central" font-size="12px" font-family="'Intel One Mono', 'SF Mono', 'Cascadia Code', 'JetBrains Mono', 'Fira Code', 'Consolas', 'Menlo', monospace" fill="#333333">approve</text>
    <path d="M345.71 779.2 L361.34 784.77 C376.97 790.33 408.24 801.47 423.44 812.6 C438.65 823.73 437.8 834.87 437.38 840.43 L437.13 843.61" fill="none" stroke="#333333" stroke-width="1.5" marker-end="url(#arrow-point-333333)" />
    <rect x="358.66" y="790.09" width="89.09" height="22.4" rx="2" ry="2" fill="#f5f3ffbf" stroke="#f5f3ffbf" stroke-width="0.5" />
    <text x="403.2" y="801.29" text-anchor="middle" dominant-baseline="central" font-size="12px" font-family="'Intel One Mono', 'SF Mono', 'Cascadia Code', 'JetBrains Mono', 'Fira Code', 'Consolas', 'Menlo', monospace" fill="#333333">unavailable</text>
    <path d="M299.65 779.2 L299.65 784.77 C299.65 790.33 299.65 801.47 295.6 812.6 C291.55 823.73 283.44 834.87 279.39 840.43 L276.75 844.06" fill="none" stroke="#333333" stroke-width="1.5" marker-end="url(#arrow-point-333333)" />
    <rect x="257.45" y="803.89" width="74.34" height="22.4" rx="2" ry="2" fill="#f5f3ffbf" stroke="#f5f3ffbf" stroke-width="0.5" />
    <text x="294.62" y="815.09" text-anchor="middle" dominant-baseline="central" font-size="12px" font-family="'Intel One Mono', 'SF Mono', 'Cascadia Code', 'JetBrains Mono', 'Fira Code', 'Consolas', 'Menlo', monospace" fill="#333333">available</text>
    <path d="M263.4 878.8 L263.4 884.37 C263.4 889.93 263.4 901.07 263.4 912.2 C263.4 923.33 263.4 934.47 263.4 940.03 L263.4 943.2" fill="none" stroke="#333333" stroke-width="1.5" marker-end="url(#arrow-point-333333)" />
    <rect x="237.29" y="901" width="52.23" height="22.4" rx="2" ry="2" fill="#f5f3ffbf" stroke="#f5f3ffbf" stroke-width="0.5" />
    <text x="263.4" y="912.2" text-anchor="middle" dominant-baseline="central" font-size="12px" font-family="'Intel One Mono', 'SF Mono', 'Cascadia Code', 'JetBrains Mono', 'Fira Code', 'Consolas', 'Menlo', monospace" fill="#333333">picked</text>
    <path d="M263.4 978.4 L263.4 983.97 C263.4 989.53 263.4 1000.67 263.4 1011.8 C263.4 1022.93 263.4 1034.07 263.4 1039.63 L263.4 1042.8" fill="none" stroke="#333333" stroke-width="1.5" marker-end="url(#arrow-point-333333)" />
    <rect x="237.29" y="1000.6" width="52.23" height="22.4" rx="2" ry="2" fill="#f5f3ffbf" stroke="#f5f3ffbf" stroke-width="0.5" />
    <text x="263.4" y="1011.8" text-anchor="middle" dominant-baseline="central" font-size="12px" font-family="'Intel One Mono', 'SF Mono', 'Cascadia Code', 'JetBrains Mono', 'Fira Code', 'Consolas', 'Menlo', monospace" fill="#333333">packed</text>
    <path d="M263.4 1078 L263.4 1083.57 C263.4 1089.13 263.4 1100.27 263.4 1111.4 C263.4 1122.53 263.4 1133.67 263.4 1139.23 L263.4 1142.4" fill="none" stroke="#333333" stroke-width="1.5" marker-end="url(#arrow-point-333333)" />
    <rect x="233.6" y="1100.2" width="59.6" height="22.4" rx="2" ry="2" fill="#f5f3ffbf" stroke="#f5f3ffbf" stroke-width="0.5" />
    <text x="263.4" y="1111.4" text-anchor="middle" dominant-baseline="central" font-size="12px" font-family="'Intel One Mono', 'SF Mono', 'Cascadia Code', 'JetBrains Mono', 'Fira Code', 'Consolas', 'Menlo', monospace" fill="#333333">labeled</text>
    <path d="M263.4 1177.6 L263.4 1183.17 C263.4 1188.73 263.4 1199.87 263.4 1211 C263.4 1222.13 263.4 1233.27 263.4 1238.83 L263.4 1242" fill="none" stroke="#333333" stroke-width="1.5" marker-end="url(#arrow-point-333333)" />
    <rect x="222.54" y="1199.8" width="81.71" height="22.4" rx="2" ry="2" fill="#f5f3ffbf" stroke="#f5f3ffbf" stroke-width="0.5" />
    <text x="263.4" y="1211" text-anchor="middle" dominant-baseline="central" font-size="12px" font-family="'Intel One Mono', 'SF Mono', 'Cascadia Code', 'JetBrains Mono', 'Fira Code', 'Consolas', 'Menlo', monospace" fill="#333333">dispatched</text>
    <path d="M269.61 1277.2 L271.71 1282.77 C273.82 1288.33 278.04 1299.47 280.14 1310.6 C282.25 1321.73 282.25 1332.87 282.25 1338.43 L282.25 1341.6" fill="none" stroke="#333333" stroke-width="1.5" marker-end="url(#arrow-point-333333)" />
    <rect x="242.82" y="1298.64" width="74.34" height="22.4" rx="2" ry="2" fill="#f5f3ffbf" stroke="#f5f3ffbf" stroke-width="0.5" />
    <text x="279.99" y="1309.84" text-anchor="middle" dominant-baseline="central" font-size="12px" font-family="'Intel One Mono', 'SF Mono', 'Cascadia Code', 'JetBrains Mono', 'Fira Code', 'Consolas', 'Menlo', monospace" fill="#333333">local hub</text>
    <path d="M299.93 1376.8 L305.94 1382.37 C311.94 1387.93 323.94 1399.07 329.95 1410.2 C335.95 1421.33 335.95 1432.47 335.95 1438.03 L335.95 1441.2" fill="none" stroke="#333333" stroke-width="1.5" marker-end="url(#arrow-point-333333)" />
    <rect x="293.66" y="1394.42" width="66.97" height="22.4" rx="2" ry="2" fill="#f5f3ffbf" stroke="#f5f3ffbf" stroke-width="0.5" />
    <text x="327.15" y="1405.62" text-anchor="middle" dominant-baseline="central" font-size="12px" font-family="'Intel One Mono', 'SF Mono', 'Cascadia Code', 'JetBrains Mono', 'Fira Code', 'Consolas', 'Menlo', monospace" fill="#333333">received</text>
    <path d="M251.43 1376.8 L240.96 1382.37 C230.5 1387.93 209.58 1399.07 186.54 1410.2 C163.51 1421.33 138.37 1432.47 125.8 1438.03 L115.43 1442.63" fill="none" stroke="#333333" stroke-width="1.5" marker-end="url(#arrow-point-333333)" />
    <rect x="145.95" y="1400.64" width="74.34" height="22.4" rx="2" ry="2" fill="#f5f3ffbf" stroke="#f5f3ffbf" stroke-width="0.5" />
    <text x="183.12" y="1411.84" text-anchor="middle" dominant-baseline="central" font-size="12px" font-family="'Intel One Mono', 'SF Mono', 'Cascadia Code', 'JetBrains Mono', 'Fira Code', 'Consolas', 'Menlo', monospace" fill="#333333">no access</text>
    <path d="M335.95 1476.4 L335.95 1480.57 C335.95 1484.73 335.95 1493.07 372.02 1502.54 C408.1 1512.01 480.24 1522.62 516.31 1527.93 L550.01 1532.89" fill="none" stroke="#333333" stroke-width="1.5" marker-end="url(#arrow-point-333333)" />
    <path d="M564.1 1476.4 L564.1 1480.57 C564.1 1484.73 564.1 1493.07 563.62 1501.41 C563.14 1509.75 562.18 1518.1 561.7 1522.28 L561.49 1524.07" fill="none" stroke="#333333" stroke-width="1.5" marker-end="url(#arrow-point-333333)" />
    <path d="M617.09 364.8 L604.29 359.23 C591.5 353.67 565.9 342.53 553.1 328.67 C540.3 314.8 540.3 298.2 540.3 281.6 C540.3 265 540.3 248.4 553.1 234.53 C565.9 220.67 591.5 209.53 604.29 203.97 L614.89 199.36" fill="none" stroke="#333333" stroke-width="1.5" marker-end="url(#arrow-point-333333)" />
    <rect x="517.87" y="270.4" width="44.86" height="22.4" rx="2" ry="2" fill="#f5f3ffbf" stroke="#f5f3ffbf" stroke-width="0.5" />
    <text x="540.3" y="281.6" text-anchor="middle" dominant-baseline="central" font-size="12px" font-family="'Intel One Mono', 'SF Mono', 'Cascadia Code', 'JetBrains Mono', 'Fira Code', 'Consolas', 'Menlo', monospace" fill="#333333">retry</text>
    <path d="M359.5 846.81 L331.62 841.11 C303.75 835.41 248 824 232.13 812.74 C216.26 801.47 240.27 790.33 252.28 784.77 L262.1 780.21" fill="none" stroke="#333333" stroke-width="1.5" marker-end="url(#arrow-point-333333)" />
    <rect x="230.11" y="815.1" width="74.34" height="22.4" rx="2" ry="2" fill="#f5f3ffbf" stroke="#f5f3ffbf" stroke-width="0.5" />
    <text x="267.29" y="826.3" text-anchor="middle" dominant-baseline="central" font-size="12px" font-family="'Intel One Mono', 'SF Mono', 'Cascadia Code', 'JetBrains Mono', 'Fira Code', 'Consolas', 'Menlo', monospace" fill="#333333">restocked</text>
    <path d="M69.61 1443.6 L67.38 1438.03 C65.14 1432.47 60.67 1421.33 58.44 1407.47 C56.2 1393.6 56.2 1377 56.2 1360.4 C56.2 1343.8 56.2 1327.2 81.62 1312.79 C107.03 1298.38 157.87 1286.16 183.28 1280.06 L206.37 1274.51" fill="none" stroke="#333333" stroke-width="1.5" marker-end="url(#arrow-point-333333)" />
    <rect x="36.72" y="1304.06" width="81.71" height="22.4" rx="2" ry="2" fill="#f5f3ffbf" stroke="#f5f3ffbf" stroke-width="0.5" />
    <text x="77.57" y="1315.26" text-anchor="middle" dominant-baseline="central" font-size="12px" font-family="'Intel One Mono', 'SF Mono', 'Cascadia Code', 'JetBrains Mono', 'Fira Code', 'Consolas', 'Menlo', monospace" fill="#333333">reschedule</text>
    <rect x="359.5" y="846" width="152.4" height="32.8" rx="5" ry="5" fill="#ececffb2" stroke="#9370db" stroke-width="1.5" />
    <text x="435.7" y="862.4" text-anchor="middle" dominant-baseline="central" font-size="14px" font-family="'Intel One Mono', 'SF Mono', 'Cascadia Code', 'JetBrains Mono', 'Fira Code', 'Consolas', 'Menlo', monospace" fill="#333333">BackorderQueue</text>
    <rect x="509.4" y="1443.6" width="109.4" height="32.8" rx="5" ry="5" fill="#ececffb2" stroke="#9370db" stroke-width="1.5" />
    <text x="564.1" y="1460" text-anchor="middle" dominant-baseline="central" font-size="14px" font-family="'Intel One Mono', 'SF Mono', 'Cascadia Code', 'JetBrains Mono', 'Fira Code', 'Consolas', 'Menlo', monospace" fill="#333333">Cancelled</text>
    <rect x="281.25" y="1443.6" width="109.4" height="32.8" rx="5" ry="5" fill="#ececffb2" stroke="#9370db" stroke-width="1.5" />
    <text x="335.95" y="1460" text-anchor="middle" dominant-baseline="central" font-size="14px" font-family="'Intel One Mono', 'SF Mono', 'Cascadia Code', 'JetBrains Mono', 'Fira Code', 'Consolas', 'Menlo', monospace" fill="#333333">Delivered</text>
    <rect x="0" y="1443.6" width="152.4" height="32.8" rx="5" ry="5" fill="#ececffb2" stroke="#9370db" stroke-width="1.5" />
    <text x="76.2" y="1460" text-anchor="middle" dominant-baseline="central" font-size="14px" font-family="'Intel One Mono', 'SF Mono', 'Cascadia Code', 'JetBrains Mono', 'Fira Code', 'Consolas', 'Menlo', monospace" fill="#333333">DeliveryFailed</text>
    <rect x="389.1" y="447.6" width="118" height="32.8" rx="5" ry="5" fill="#ececffb2" stroke="#9370db" stroke-width="1.5" />
    <text x="448.1" y="464" text-anchor="middle" dominant-baseline="central" font-size="14px" font-family="'Intel One Mono', 'SF Mono', 'Cascadia Code', 'JetBrains Mono', 'Fira Code', 'Consolas', 'Menlo', monospace" fill="#333333">FraudCheck</text>
    <rect x="492.7" y="547.2" width="135.2" height="32.8" rx="5" ry="5" fill="#ececffb2" stroke="#9370db" stroke-width="1.5" />
    <text x="560.3" y="563.6" text-anchor="middle" dominant-baseline="central" font-size="14px" font-family="'Intel One Mono', 'SF Mono', 'Cascadia Code', 'JetBrains Mono', 'Fira Code', 'Consolas', 'Menlo', monospace" fill="#333333">FraudFlagged</text>
    <rect x="208.7" y="1244.4" width="109.4" height="32.8" rx="5" ry="5" fill="#ececffb2" stroke="#9370db" stroke-width="1.5" />
    <text x="263.4" y="1260.8" text-anchor="middle" dominant-baseline="central" font-size="14px" font-family="'Intel One Mono', 'SF Mono', 'Cascadia Code', 'JetBrains Mono', 'Fira Code', 'Consolas', 'Menlo', monospace" fill="#333333">InTransit</text>
    <rect x="223.45" y="746.4" width="152.4" height="32.8" rx="5" ry="5" fill="#ececffb2" stroke="#9370db" stroke-width="1.5" />
    <text x="299.65" y="762.8" text-anchor="middle" dominant-baseline="central" font-size="14px" font-family="'Intel One Mono', 'SF Mono', 'Cascadia Code', 'JetBrains Mono', 'Fira Code', 'Consolas', 'Menlo', monospace" fill="#333333">InventoryCheck</text>
    <rect x="191.5" y="1045.2" width="143.8" height="32.8" rx="5" ry="5" fill="#ececffb2" stroke="#9370db" stroke-width="1.5" />
    <text x="263.4" y="1061.6" text-anchor="middle" dominant-baseline="central" font-size="14px" font-family="'Intel One Mono', 'SF Mono', 'Cascadia Code', 'JetBrains Mono', 'Fira Code', 'Consolas', 'Menlo', monospace" fill="#333333">LabelPrinting</text>
    <rect x="492.7" y="646.8" width="135.2" height="32.8" rx="5" ry="5" fill="#ececffb2" stroke="#9370db" stroke-width="1.5" />
    <text x="560.3" y="663.2" text-anchor="middle" dominant-baseline="central" font-size="14px" font-family="'Intel One Mono', 'SF Mono', 'Cascadia Code', 'JetBrains Mono', 'Fira Code', 'Consolas', 'Menlo', monospace" fill="#333333">ManualReview</text>
    <rect x="591.5" y="66" width="126.6" height="32.8" rx="5" ry="5" fill="#ececffb2" stroke="#9370db" stroke-width="1.5" />
    <text x="654.8" y="82.4" text-anchor="middle" dominant-baseline="central" font-size="14px" font-family="'Intel One Mono', 'SF Mono', 'Cascadia Code', 'JetBrains Mono', 'Fira Code', 'Consolas', 'Menlo', monospace" fill="#333333">OrderPlaced</text>
    <rect x="206.05" y="1344" width="152.4" height="32.8" rx="5" ry="5" fill="#ececffb2" stroke="#9370db" stroke-width="1.5" />
    <text x="282.25" y="1360.4" text-anchor="middle" dominant-baseline="central" font-size="14px" font-family="'Intel One Mono', 'SF Mono', 'Cascadia Code', 'JetBrains Mono', 'Fira Code', 'Consolas', 'Menlo', monospace" fill="#333333">OutForDelivery</text>
    <rect x="217.3" y="945.6" width="92.2" height="32.8" rx="5" ry="5" fill="#ececffb2" stroke="#9370db" stroke-width="1.5" />
    <text x="263.4" y="962" text-anchor="middle" dominant-baseline="central" font-size="14px" font-family="'Intel One Mono', 'SF Mono', 'Cascadia Code', 'JetBrains Mono', 'Fira Code', 'Consolas', 'Menlo', monospace" fill="#333333">Packing</text>
    <rect x="363.3" y="364.8" width="169.6" height="32.8" rx="5" ry="5" fill="#ececffb2" stroke="#9370db" stroke-width="1.5" />
    <text x="448.1" y="381.2" text-anchor="middle" dominant-baseline="central" font-size="14px" font-family="'Intel One Mono', 'SF Mono', 'Cascadia Code', 'JetBrains Mono', 'Fira Code', 'Consolas', 'Menlo', monospace" fill="#333333">PaymentConfirmed</text>
    <rect x="582.9" y="364.8" width="143.8" height="32.8" rx="5" ry="5" fill="#ececffb2" stroke="#9370db" stroke-width="1.5" />
    <text x="654.8" y="381.2" text-anchor="middle" dominant-baseline="central" font-size="14px" font-family="'Intel One Mono', 'SF Mono', 'Cascadia Code', 'JetBrains Mono', 'Fira Code', 'Consolas', 'Menlo', monospace" fill="#333333">PaymentFailed</text>
    <rect x="578.6" y="165.6" width="152.4" height="32.8" rx="5" ry="5" fill="#ececffb2" stroke="#9370db" stroke-width="1.5" />
    <text x="654.8" y="182" text-anchor="middle" dominant-baseline="central" font-size="14px" font-family="'Intel One Mono', 'SF Mono', 'Cascadia Code', 'JetBrains Mono', 'Fira Code', 'Consolas', 'Menlo', monospace" fill="#333333">PaymentPending</text>
    <rect x="654.25" y="265.2" width="178.2" height="32.8" rx="5" ry="5" fill="#ececffb2" stroke="#9370db" stroke-width="1.5" />
    <text x="743.35" y="281.6" text-anchor="middle" dominant-baseline="central" font-size="14px" font-family="'Intel One Mono', 'SF Mono', 'Cascadia Code', 'JetBrains Mono', 'Fira Code', 'Consolas', 'Menlo', monospace" fill="#333333">PaymentProcessing</text>
    <rect x="217.3" y="846" width="92.2" height="32.8" rx="5" ry="5" fill="#ececffb2" stroke="#9370db" stroke-width="1.5" />
    <text x="263.4" y="862.4" text-anchor="middle" dominant-baseline="central" font-size="14px" font-family="'Intel One Mono', 'SF Mono', 'Cascadia Code', 'JetBrains Mono', 'Fira Code', 'Consolas', 'Menlo', monospace" fill="#333333">Picking</text>
    <rect x="200.1" y="1144.8" width="126.6" height="32.8" rx="5" ry="5" fill="#ececffb2" stroke="#9370db" stroke-width="1.5" />
    <text x="263.4" y="1161.2" text-anchor="middle" dominant-baseline="central" font-size="14px" font-family="'Intel One Mono', 'SF Mono', 'Cascadia Code', 'JetBrains Mono', 'Fira Code', 'Consolas', 'Menlo', monospace" fill="#333333">ReadyToShip</text>
    <circle cx="560.3" cy="1534.4" r="8" fill="none" stroke="#9370db" stroke-width="1.5" />
    <circle cx="560.3" cy="1534.4" r="4" fill="#9370db" />
    <circle cx="654.8" cy="8" r="8" fill="#333333" stroke="#333333" />
  </g>
</svg>
