<svg xmlns="http://www.w3.org/2000/svg" viewBox="0 0 616 224" width="616" height="224">
  <g transform="translate(20, 20)">
    <rect x="24" y="24" width="120" height="60" rx="3" ry="3" fill="#e9eef4" stroke="#4e79a7" stroke-width="1.5" />
    <text x="84" y="54" text-anchor="middle" dominant-baseline="central" font-size="14px" font-family="'Intel One Mono', 'SF Mono', 'Cascadia Code', 'JetBrains Mono', 'Fira Code', 'Consolas', 'Menlo', monospace" fill="#333333">Rectangle</text>
    <circle cx="220" cy="54" r="30" fill="#fdf1e5" stroke="#f28e2c" stroke-width="1.5" />
    <text x="220" y="54" text-anchor="middle" dominant-baseline="central" font-size="14px" font-family="'Intel One Mono', 'SF Mono', 'Cascadia Code', 'JetBrains Mono', 'Fira Code', 'Consolas', 'Menlo', monospace" fill="#333333">Circle</text>
    <polygon points="311,24 401,24 416,54 401,84 311,84 296,54" fill="#fbeaeb" stroke="#e15759" stroke-width="1.5" />
    <text x="356" y="54" text-anchor="middle" dominant-baseline="central" font-size="14px" font-family="'Intel One Mono', 'SF Mono', 'Cascadia Code', 'JetBrains Mono', 'Fira Code', 'Consolas', 'Menlo', monospace" fill="#333333">Hexagon</text>
    <rect x="432" y="24" width="120" height="60" rx="3" ry="3" fill="#eef6f5" stroke="#76b7b2" stroke-width="1.5" />
    <text x="492" y="54" text-anchor="middle" dominant-baseline="central" font-size="14px" font-family="'Intel One Mono', 'SF Mono', 'Cascadia Code', 'JetBrains Mono', 'Fira Code', 'Consolas', 'Menlo', monospace" fill="#333333">d&gt;&quot;Flag&quot;]</text>
    <rect x="24" y="100" width="120" height="60" rx="3" ry="3" fill="#ebf3e9" stroke="#59a14f" stroke-width="1.5" />
    <text x="84" y="130" text-anchor="middle" dominant-baseline="central" font-size="14px" font-family="'Intel One Mono', 'SF Mono', 'Cascadia Code', 'JetBrains Mono', 'Fira Code', 'Consolas', 'Menlo', monospace" fill="#333333">Stadium&quot;])</text>
    <rect x="160" y="100" width="120" height="60" rx="3" ry="3" fill="#fcf8e9" stroke="#edc949" stroke-width="1.5" />
    <rect x="432" y="100" width="120" height="60" rx="3" ry="3" fill="#fff3f4" stroke="#ff9da7" stroke-width="1.5" />
    <text x="492" y="130" text-anchor="middle" dominant-baseline="central" font-size="14px" font-family="'Intel One Mono', 'SF Mono', 'Cascadia Code', 'JetBrains Mono', 'Fira Code', 'Consolas', 'Menlo', monospace" fill="#333333">(&quot;Cylinder&quot;)</text>
  </g>
</svg>
