<svg xmlns="http://www.w3.org/2000/svg" viewBox="0 0 832.55 404" width="832.55" height="404">
  <defs>
    <marker id="arrow-point-333333" viewBox="0 0 10 10" refX="8" refY="5" markerWidth="8" markerHeight="8" orient="auto-start-reverse">
      <path d="M10 5 L0 10 L4 5 L0 0 Z" fill="#333333" />
    </marker>
  </defs>
  <g transform="translate(20, 20)">
    <path d="M733.16 165.6 L736.81 161.43 C740.46 157.27 747.75 148.93 751.4 140.6 C755.05 132.27 755.05 123.93 755.05 119.77 L755.05 118" fill="none" stroke="#333333" stroke-width="1.5" marker-end="url(#arrow-point-333333)" />
    <path d="M704.44 165.6 L700.79 161.43 C697.14 157.27 689.85 148.93 686.2 137.87 C682.55 126.8 682.55 113 682.55 99.2 C682.55 85.4 682.55 71.6 646.15 58.71 C609.75 45.82 536.95 33.84 500.55 27.85 L466.52 22.25" fill="none" stroke="#333333" stroke-width="1.5" marker-end="url(#arrow-point-333333)" />
    <path d="M755.05 82.8 L755.05 78.63 C755.05 74.47 755.05 66.13 706.57 55.77 C658.08 45.41 561.12 33.03 512.63 26.83 L466.53 20.95" fill="none" stroke="#333333" stroke-width="1.5" marker-end="url(#arrow-point-333333)" />
    <path d="M680.94 248.4 L687.25 244.23 C693.56 240.07 706.18 231.73 712.49 223.4 C718.8 215.07 718.8 206.73 718.8 202.57 L718.8 200.8" fill="none" stroke="#333333" stroke-width="1.5" marker-end="url(#arrow-point-333333)" />
    <path d="M648.26 248.4 L646.26 244.23 C644.27 240.07 640.29 231.73 638.29 220.67 C636.3 209.6 636.3 195.8 636.3 182 C636.3 168.2 636.3 154.4 649.84 142.78 C663.38 131.16 690.47 121.72 704.01 116.99 L715.28 113.06" fill="none" stroke="#333333" stroke-width="1.5" marker-end="url(#arrow-point-333333)" />
    <path d="M640.33 248.4 L636.33 244.23 C632.32 240.07 624.31 231.73 620.31 220.67 C616.3 209.6 616.3 195.8 616.3 182 C616.3 168.2 616.3 154.4 616.3 140.6 C616.3 126.8 616.3 113 616.3 99.2 C616.3 85.4 616.3 71.6 590.94 59.04 C565.58 46.47 514.87 35.14 489.51 29.48 L466.49 24.34" fill="none" stroke="#333333" stroke-width="1.5" marker-end="url(#arrow-point-333333)" />
    <path d="M551.65 82.8 L551.65 78.63 C551.65 74.47 551.65 66.13 537.07 56.96 C522.48 47.8 493.32 37.79 478.73 32.79 L466.42 28.57" fill="none" stroke="#333333" stroke-width="1.5" marker-end="url(#arrow-point-333333)" />
    <path d="M430.95 82.8 L430.95 78.63 C430.95 74.47 430.95 66.13 430.95 57.8 C430.95 49.47 430.95 41.13 430.95 36.97 L430.95 35.2" fill="none" stroke="#333333" stroke-width="1.5" marker-end="url(#arrow-point-333333)" />
    <path d="M238.65 82.8 L238.65 78.63 C238.65 74.47 238.65 66.13 265.17 56.26 C291.68 46.38 344.72 34.97 371.23 29.26 L395.4 24.05" fill="none" stroke="#333333" stroke-width="1.5" marker-end="url(#arrow-point-333333)" />
    <path d="M305.01 165.6 L309.39 161.43 C313.76 157.27 322.5 148.93 326.88 137.87 C331.25 126.8 331.25 113 331.25 99.2 C331.25 85.4 331.25 71.6 342.33 60.1 C353.42 48.6 375.58 39.39 386.67 34.79 L395.53 31.11" fill="none" stroke="#333333" stroke-width="1.5" marker-end="url(#arrow-point-333333)" />
    <path d="M268.33 165.6 L263.38 161.43 C258.44 157.27 248.54 148.93 243.6 140.6 C238.65 132.27 238.65 123.93 238.65 119.77 L238.65 118" fill="none" stroke="#333333" stroke-width="1.5" marker-end="url(#arrow-point-333333)" />
    <path d="M122.66 165.6 L127.76 161.43 C132.86 157.27 143.05 148.93 148.15 137.87 C153.25 126.8 153.25 113 153.25 99.2 C153.25 85.4 153.25 71.6 194 58.62 C234.75 45.65 316.25 33.5 357 27.42 L395.38 21.7" fill="none" stroke="#333333" stroke-width="1.5" marker-end="url(#arrow-point-333333)" />
    <path d="M86.54 165.6 L82.46 161.43 C78.37 157.27 70.21 148.93 87.16 139.84 C104.12 130.74 146.18 120.88 167.22 115.95 L185.91 111.56" fill="none" stroke="#333333" stroke-width="1.5" marker-end="url(#arrow-point-333333)" />
    <path d="M482.1 335.49 L511.1 330.61 C540.1 325.73 598.1 315.96 627.1 306.92 C656.1 297.87 656.1 289.53 656.1 285.37 L656.1 283.6" fill="none" stroke="#333333" stroke-width="1.5" marker-end="url(#arrow-point-333333)" />
    <path d="M466.23 331.2 L480.47 327.03 C494.71 322.87 523.18 314.53 537.41 303.47 C551.65 292.4 551.65 278.6 551.65 264.8 C551.65 251 551.65 237.2 551.65 223.4 C551.65 209.6 551.65 195.8 551.65 182 C551.65 168.2 551.65 154.4 551.65 143.33 C551.65 132.27 551.65 123.93 551.65 119.77 L551.65 118" fill="none" stroke="#333333" stroke-width="1.5" marker-end="url(#arrow-point-333333)" />
    <path d="M418.42 331.2 L420.51 327.03 C422.6 322.87 426.77 314.53 428.86 303.47 C430.95 292.4 430.95 278.6 430.95 264.8 C430.95 251 430.95 237.2 430.95 223.4 C430.95 209.6 430.95 195.8 430.95 182 C430.95 168.2 430.95 154.4 430.95 143.33 C430.95 132.27 430.95 123.93 430.95 119.77 L430.95 118" fill="none" stroke="#333333" stroke-width="1.5" marker-end="url(#arrow-point-333333)" />
    <path d="M410.5 331.2 L410.57 327.03 C410.65 322.87 410.8 314.53 410.87 303.47 C410.95 292.4 410.95 278.6 410.95 264.8 C410.95 251 410.95 237.2 410.95 223.4 C410.95 209.6 410.95 195.8 410.95 182 C410.95 168.2 410.95 154.4 390.63 142.62 C370.32 130.84 329.68 121.07 309.37 116.19 L291.38 111.87" fill="none" stroke="#333333" stroke-width="1.5" marker-end="url(#arrow-point-333333)" />
    <path d="M361.71 331.2 L349.39 327.03 C337.08 322.87 312.44 314.53 300.12 303.47 C287.8 292.4 287.8 278.6 287.8 264.8 C287.8 251 287.8 237.2 287.8 226.13 C287.8 215.07 287.8 206.73 287.8 202.57 L287.8 200.8" fill="none" stroke="#333333" stroke-width="1.5" marker-end="url(#arrow-point-333333)" />
    <path d="M338.3 337.92 L299.02 332.64 C259.73 327.35 181.17 316.77 141.88 304.59 C102.6 292.4 102.6 278.6 102.6 264.8 C102.6 251 102.6 237.2 102.6 226.13 C102.6 215.07 102.6 206.73 102.6 202.57 L102.6 200.8" fill="none" stroke="#333333" stroke-width="1.5" marker-end="url(#arrow-point-333333)" />
    <path d="M338.3 340.34 L281.92 334.65 C225.53 328.96 112.77 317.58 56.38 304.99 C0 292.4 0 278.6 0 264.8 C0 251 0 237.2 0 223.4 C0 209.6 0 195.8 0 182 C0 168.2 0 154.4 0 140.6 C0 126.8 0 113 0 99.2 C0 85.4 0 71.6 66.29 58.33 C132.58 45.06 265.17 32.33 331.46 25.96 L395.36 19.82" fill="none" stroke="#333333" stroke-width="1.5" marker-end="url(#arrow-point-333333)" />
    <rect x="397.75" y="-0" width="66.4" height="32.8" fill="#ececffb2" stroke="#9370db" stroke-width="1.5" />
    <text x="430.95" y="16.4" text-anchor="middle" dominant-baseline="central" font-size="14px" font-family="'Intel One Mono', 'SF Mono', 'Cascadia Code', 'JetBrains Mono', 'Fira Code', 'Consolas', 'Menlo', monospace" fill="#333333">core</text>
    <rect x="717.55" y="82.8" width="75" height="32.8" fill="#ececffb2" stroke="#9370db" stroke-width="1.5" />
    <text x="755.05" y="99.2" text-anchor="middle" dominant-baseline="central" font-size="14px" font-family="'Intel One Mono', 'SF Mono', 'Cascadia Code', 'JetBrains Mono', 'Fira Code', 'Consolas', 'Menlo', monospace" fill="#333333">graph</text>
    <rect x="681.3" y="165.6" width="75" height="32.8" fill="#ececffb2" stroke="#9370db" stroke-width="1.5" />
    <text x="718.8" y="182" text-anchor="middle" dominant-baseline="central" font-size="14px" font-family="'Intel One Mono', 'SF Mono', 'Cascadia Code', 'JetBrains Mono', 'Fira Code', 'Consolas', 'Menlo', monospace" fill="#333333">dagre</text>
    <rect x="605.7" y="248.4" width="100.8" height="32.8" fill="#ececffb2" stroke="#9370db" stroke-width="1.5" />
    <text x="656.1" y="264.8" text-anchor="middle" dominant-baseline="central" font-size="14px" font-family="'Intel One Mono', 'SF Mono', 'Cascadia Code', 'JetBrains Mono', 'Fira Code', 'Consolas', 'Menlo', monospace" fill="#333333">diagrams</text>
    <rect x="522.75" y="82.8" width="57.8" height="32.8" fill="#ececffb2" stroke="#9370db" stroke-width="1.5" />
    <text x="551.65" y="99.2" text-anchor="middle" dominant-baseline="central" font-size="14px" font-family="'Intel One Mono', 'SF Mono', 'Cascadia Code', 'JetBrains Mono', 'Fira Code', 'Consolas', 'Menlo', monospace" fill="#333333">svg</text>
    <rect x="389.15" y="82.8" width="83.6" height="32.8" fill="#ececffb2" stroke="#9370db" stroke-width="1.5" />
    <text x="430.95" y="99.2" text-anchor="middle" dominant-baseline="central" font-size="14px" font-family="'Intel One Mono', 'SF Mono', 'Cascadia Code', 'JetBrains Mono', 'Fira Code', 'Consolas', 'Menlo', monospace" fill="#333333">raster</text>
    <rect x="188.25" y="82.8" width="100.8" height="32.8" fill="#ececffb2" stroke="#9370db" stroke-width="1.5" />
    <text x="238.65" y="99.2" text-anchor="middle" dominant-baseline="central" font-size="14px" font-family="'Intel One Mono', 'SF Mono', 'Cascadia Code', 'JetBrains Mono', 'Fira Code', 'Consolas', 'Menlo', monospace" fill="#333333">viewport</text>
    <rect x="220.2" y="165.6" width="135.2" height="32.8" fill="#ececffb2" stroke="#9370db" stroke-width="1.5" />
    <text x="287.8" y="182" text-anchor="middle" dominant-baseline="central" font-size="14px" font-family="'Intel One Mono', 'SF Mono', 'Cascadia Code', 'JetBrains Mono', 'Fira Code', 'Consolas', 'Menlo', monospace" fill="#333333">wgpu-backend</text>
    <rect x="35" y="165.6" width="135.2" height="32.8" fill="#ececffb2" stroke="#9370db" stroke-width="1.5" />
    <text x="102.6" y="182" text-anchor="middle" dominant-baseline="central" font-size="14px" font-family="'Intel One Mono', 'SF Mono', 'Cascadia Code', 'JetBrains Mono', 'Fira Code', 'Consolas', 'Menlo', monospace" fill="#333333">gpui-backend</text>
    <rect x="338.3" y="331.2" width="143.8" height="32.8" fill="#ececffb2" stroke="#9370db" stroke-width="1.5" />
    <text x="410.2" y="347.6" text-anchor="middle" dominant-baseline="central" font-size="14px" font-family="'Intel One Mono', 'SF Mono', 'Cascadia Code', 'JetBrains Mono', 'Fira Code', 'Consolas', 'Menlo', monospace" fill="#333333">rusty-mermaid</text>
  </g>
</svg>
