<svg xmlns="http://www.w3.org/2000/svg" viewBox="0 0 998 72.8" width="998" height="72.8">
  <defs>
    <marker id="arrow-point-333333" viewBox="0 0 10 10" refX="8" refY="5" markerWidth="8" markerHeight="8" orient="auto-start-reverse">
      <path d="M10 5 L0 10 L4 5 L0 0 Z" fill="#333333" />
    </marker>
  </defs>
  <g transform="translate(20, 20)">
    <path d="M135.2 16.4 L139.37 16.4 C143.53 16.4 151.87 16.4 160.2 16.4 C168.53 16.4 176.87 16.4 181.03 16.4 L182.8 16.4" fill="none" stroke="#333333" stroke-width="1.5" marker-end="url(#arrow-point-333333)" />
    <path d="M286 16.4 L290.17 16.4 C294.33 16.4 302.67 16.4 311 16.4 C319.33 16.4 327.67 16.4 331.83 16.4 L333.6 16.4" fill="none" stroke="#333333" stroke-width="1.5" marker-end="url(#arrow-point-333333)" />
    <path d="M428.2 16.4 L432.37 16.4 C436.53 16.4 444.87 16.4 453.2 16.4 C461.53 16.4 469.87 16.4 474.03 16.4 L475.8 16.4" fill="none" stroke="#333333" stroke-width="1.5" marker-end="url(#arrow-point-333333)" />
    <path d="M579 16.4 L583.17 16.4 C587.33 16.4 595.67 16.4 604 16.4 C612.33 16.4 620.67 16.4 624.83 16.4 L626.6 16.4" fill="none" stroke="#333333" stroke-width="1.5" marker-end="url(#arrow-point-333333)" />
    <path d="M807.2 16.4 L811.37 16.4 C815.53 16.4 823.87 16.4 832.2 16.4 C840.53 16.4 848.87 16.4 853.03 16.4 L854.8 16.4" fill="none" stroke="#333333" stroke-width="1.5" marker-end="url(#arrow-point-333333)" />
    <rect x="0" y="0" width="135.2" height="32.8" fill="#ececffb2" stroke="#9370db" stroke-width="1.5" />
    <text x="67.6" y="16.4" text-anchor="middle" dominant-baseline="central" font-size="14px" font-family="'Intel One Mono', 'SF Mono', 'Cascadia Code', 'JetBrains Mono', 'Fira Code', 'Consolas', 'Menlo', monospace" fill="#333333">mermaid text</text>
    <rect x="185.2" y="0" width="100.8" height="32.8" fill="#ececffb2" stroke="#9370db" stroke-width="1.5" />
    <text x="235.6" y="16.4" text-anchor="middle" dominant-baseline="central" font-size="14px" font-family="'Intel One Mono', 'SF Mono', 'Cascadia Code', 'JetBrains Mono', 'Fira Code', 'Consolas', 'Menlo', monospace" fill="#333333">detect()</text>
    <rect x="336" y="0" width="92.2" height="32.8" fill="#ececffb2" stroke="#9370db" stroke-width="1.5" />
    <text x="382.1" y="16.4" text-anchor="middle" dominant-baseline="central" font-size="14px" font-family="'Intel One Mono', 'SF Mono', 'Cascadia Code', 'JetBrains Mono', 'Fira Code', 'Consolas', 'Menlo', monospace" fill="#333333">parse()</text>
    <rect x="478.2" y="0" width="100.8" height="32.8" fill="#ececffb2" stroke="#9370db" stroke-width="1.5" />
    <text x="528.6" y="16.4" text-anchor="middle" dominant-baseline="central" font-size="14px" font-family="'Intel One Mono', 'SF Mono', 'Cascadia Code', 'JetBrains Mono', 'Fira Code', 'Consolas', 'Menlo', monospace" fill="#333333">layout()</text>
    <rect x="629" y="0" width="178.2" height="32.8" fill="#ececffb2" stroke="#9370db" stroke-width="1.5" />
    <text x="718.1" y="16.4" text-anchor="middle" dominant-baseline="central" font-size="14px" font-family="'Intel One Mono', 'SF Mono', 'Cascadia Code', 'JetBrains Mono', 'Fira Code', 'Consolas', 'Menlo', monospace" fill="#333333">to_scene_themed()</text>
    <rect x="857.2" y="0" width="100.8" height="32.8" fill="#ececffb2" stroke="#9370db" stroke-width="1.5" />
    <text x="907.6" y="16.4" text-anchor="middle" dominant-baseline="central" font-size="14px" font-family="'Intel One Mono', 'SF Mono', 'Cascadia Code', 'JetBrains Mono', 'Fira Code', 'Consolas', 'Menlo', monospace" fill="#333333">render()</text>
  </g>
</svg>
