<svg xmlns="http://www.w3.org/2000/svg" viewBox="0 0 712 404" width="712" height="404">
  <defs>
    <marker id="arrow-point-333333" viewBox="0 0 10 10" refX="8" refY="5" markerWidth="8" markerHeight="8" orient="auto-start-reverse">
      <path d="M10 5 L0 10 L4 5 L0 0 Z" fill="#333333" />
    </marker>
  </defs>
  <g transform="translate(20, 20)">
    <path d="M612.61 165.6 L616.26 161.43 C619.91 157.27 627.2 148.93 630.85 140.6 C634.5 132.27 634.5 123.93 634.5 119.77 L634.5 118" fill="none" stroke="#333333" stroke-width="1.5" marker-end="url(#arrow-point-333333)" />
    <path d="M583.89 165.6 L580.24 161.43 C576.59 157.27 569.3 148.93 565.65 137.87 C562 126.8 562 113 562 99.2 C562 85.4 562 71.6 537.32 59.06 C512.65 46.53 463.3 35.26 438.62 29.62 L416.29 24.52" fill="none" stroke="#333333" stroke-width="1.5" marker-end="url(#arrow-point-333333)" />
    <path d="M634.5 82.8 L634.5 78.63 C634.5 74.47 634.5 66.13 597.74 55.97 C560.98 45.81 487.47 33.81 450.71 27.81 L416.32 22.2" fill="none" stroke="#333333" stroke-width="1.5" marker-end="url(#arrow-point-333333)" />
    <path d="M576.36 248.4 L580.01 244.23 C583.66 240.07 590.95 231.73 594.6 223.4 C598.25 215.07 598.25 206.73 598.25 202.57 L598.25 200.8" fill="none" stroke="#333333" stroke-width="1.5" marker-end="url(#arrow-point-333333)" />
    <path d="M543.68 248.4 L539.02 244.23 C534.37 240.07 525.06 231.73 520.4 220.67 C515.75 209.6 515.75 195.8 515.75 182 C515.75 168.2 515.75 154.4 515.75 140.6 C515.75 126.8 515.75 113 515.75 99.2 C515.75 85.4 515.75 71.6 498.78 59.5 C481.82 47.39 447.88 36.99 430.92 31.78 L416.24 27.28" fill="none" stroke="#333333" stroke-width="1.5" marker-end="url(#arrow-point-333333)" />
    <path d="M441.1 82.8 L441.1 78.63 C441.1 74.47 441.1 66.13 435.03 57.8 C428.95 49.47 416.8 41.13 410.73 36.97 L406.64 34.16" fill="none" stroke="#333333" stroke-width="1.5" marker-end="url(#arrow-point-333333)" />
    <path d="M320.4 82.8 L320.4 78.63 C320.4 74.47 320.4 66.13 326.47 57.8 C332.55 49.47 344.7 41.13 350.77 36.97 L354.86 34.16" fill="none" stroke="#333333" stroke-width="1.5" marker-end="url(#arrow-point-333333)" />
    <path d="M50.4 82.8 L50.4 78.63 C50.4 74.47 50.4 66.13 99.92 55.76 C149.45 45.39 248.5 32.97 298.02 26.77 L345.17 20.86" fill="none" stroke="#333333" stroke-width="1.5" marker-end="url(#arrow-point-333333)" />
    <path d="M136.29 165.6 L141.14 161.43 C146 157.27 155.7 148.93 160.55 137.87 C165.4 126.8 165.4 113 165.4 99.2 C165.4 85.4 165.4 71.6 195.76 58.86 C226.12 46.13 286.83 34.46 317.19 28.62 L345.19 23.24" fill="none" stroke="#333333" stroke-width="1.5" marker-end="url(#arrow-point-333333)" />
    <path d="M100.29 165.6 L95.99 161.43 C91.69 157.27 83.1 148.93 76.37 140.6 C69.65 132.27 64.8 123.93 62.37 119.77 L61.15 117.67" fill="none" stroke="#333333" stroke-width="1.5" marker-end="url(#arrow-point-333333)" />
    <path d="M237.56 165.6 L238.57 161.43 C239.57 157.27 241.59 148.93 242.59 137.87 C243.6 126.8 243.6 113 243.6 99.2 C243.6 85.4 243.6 71.6 260.92 59.47 C278.25 47.34 312.9 36.88 330.22 31.65 L345.25 27.12" fill="none" stroke="#333333" stroke-width="1.5" marker-end="url(#arrow-point-333333)" />
    <path d="M214.51 165.6 L209.66 161.43 C204.8 157.27 195.1 148.93 176.15 140.44 C157.2 131.95 129 123.3 114.9 118.98 L103.09 115.36" fill="none" stroke="#333333" stroke-width="1.5" marker-end="url(#arrow-point-333333)" />
    <path d="M452.55 331.2 L470.79 327.03 C489.03 322.87 525.52 314.53 543.76 306.2 C562 297.87 562 289.53 562 285.37 L562 283.6" fill="none" stroke="#333333" stroke-width="1.5" marker-end="url(#arrow-point-333333)" />
    <path d="M404.66 331.2 L410.73 327.03 C416.8 322.87 428.95 314.53 435.03 303.47 C441.1 292.4 441.1 278.6 441.1 264.8 C441.1 251 441.1 237.2 441.1 223.4 C441.1 209.6 441.1 195.8 441.1 182 C441.1 168.2 441.1 154.4 441.1 143.33 C441.1 132.27 441.1 123.93 441.1 119.77 L441.1 118" fill="none" stroke="#333333" stroke-width="1.5" marker-end="url(#arrow-point-333333)" />
    <path d="M356.84 331.2 L350.77 327.03 C344.7 322.87 332.55 314.53 326.47 303.47 C320.4 292.4 320.4 278.6 320.4 264.8 C320.4 251 320.4 237.2 320.4 223.4 C320.4 209.6 320.4 195.8 320.4 182 C320.4 168.2 320.4 154.4 320.4 143.33 C320.4 132.27 320.4 123.93 320.4 119.77 L320.4 118" fill="none" stroke="#333333" stroke-width="1.5" marker-end="url(#arrow-point-333333)" />
    <path d="M308.85 339.1 L262.44 333.62 C216.03 328.14 123.22 317.17 76.81 304.78 C30.4 292.4 30.4 278.6 30.4 264.8 C30.4 251 30.4 237.2 30.4 223.4 C30.4 209.6 30.4 195.8 30.4 182 C30.4 168.2 30.4 154.4 32.41 143.33 C34.43 132.27 38.45 123.93 40.46 119.77 L41.43 117.76" fill="none" stroke="#333333" stroke-width="1.5" marker-end="url(#arrow-point-333333)" />
    <rect x="347.55" y="-0" width="66.4" height="32.8" fill="#ececffb2" stroke="#9370db" stroke-width="1.5" />
    <text x="380.75" y="16.4" text-anchor="middle" dominant-baseline="central" font-size="14px" font-family="'Intel One Mono', 'SF Mono', 'Cascadia Code', 'JetBrains Mono', 'Fira Code', 'Consolas', 'Menlo', monospace" fill="#333333">core</text>
    <rect x="597" y="82.8" width="75" height="32.8" fill="#ececffb2" stroke="#9370db" stroke-width="1.5" />
    <text x="634.5" y="99.2" text-anchor="middle" dominant-baseline="central" font-size="14px" font-family="'Intel One Mono', 'SF Mono', 'Cascadia Code', 'JetBrains Mono', 'Fira Code', 'Consolas', 'Menlo', monospace" fill="#333333">graph</text>
    <rect x="560.75" y="165.6" width="75" height="32.8" fill="#ececffb2" stroke="#9370db" stroke-width="1.5" />
    <text x="598.25" y="182" text-anchor="middle" dominant-baseline="central" font-size="14px" font-family="'Intel One Mono', 'SF Mono', 'Cascadia Code', 'JetBrains Mono', 'Fira Code', 'Consolas', 'Menlo', monospace" fill="#333333">dagre</text>
    <rect x="511.6" y="248.4" width="100.8" height="32.8" fill="#ececffb2" stroke="#9370db" stroke-width="1.5" />
    <text x="562" y="264.8" text-anchor="middle" dominant-baseline="central" font-size="14px" font-family="'Intel One Mono', 'SF Mono', 'Cascadia Code', 'JetBrains Mono', 'Fira Code', 'Consolas', 'Menlo', monospace" fill="#333333">diagrams</text>
    <rect x="412.2" y="82.8" width="57.8" height="32.8" fill="#ececffb2" stroke="#9370db" stroke-width="1.5" />
    <text x="441.1" y="99.2" text-anchor="middle" dominant-baseline="central" font-size="14px" font-family="'Intel One Mono', 'SF Mono', 'Cascadia Code', 'JetBrains Mono', 'Fira Code', 'Consolas', 'Menlo', monospace" fill="#333333">svg</text>
    <rect x="278.6" y="82.8" width="83.6" height="32.8" fill="#ececffb2" stroke="#9370db" stroke-width="1.5" />
    <text x="320.4" y="99.2" text-anchor="middle" dominant-baseline="central" font-size="14px" font-family="'Intel One Mono', 'SF Mono', 'Cascadia Code', 'JetBrains Mono', 'Fira Code', 'Consolas', 'Menlo', monospace" fill="#333333">raster</text>
    <rect x="-0" y="82.8" width="100.8" height="32.8" fill="#ececffb2" stroke="#9370db" stroke-width="1.5" />
    <text x="50.4" y="99.2" text-anchor="middle" dominant-baseline="central" font-size="14px" font-family="'Intel One Mono', 'SF Mono', 'Cascadia Code', 'JetBrains Mono', 'Fira Code', 'Consolas', 'Menlo', monospace" fill="#333333">viewport</text>
    <rect x="84" y="165.6" width="66.4" height="32.8" fill="#ececffb2" stroke="#9370db" stroke-width="1.5" />
    <text x="117.2" y="182" text-anchor="middle" dominant-baseline="central" font-size="14px" font-family="'Intel One Mono', 'SF Mono', 'Cascadia Code', 'JetBrains Mono', 'Fira Code', 'Consolas', 'Menlo', monospace" fill="#333333">wgpu</text>
    <rect x="200.4" y="165.6" width="66.4" height="32.8" fill="#ececffb2" stroke="#9370db" stroke-width="1.5" />
    <text x="233.6" y="182" text-anchor="middle" dominant-baseline="central" font-size="14px" font-family="'Intel One Mono', 'SF Mono', 'Cascadia Code', 'JetBrains Mono', 'Fira Code', 'Consolas', 'Menlo', monospace" fill="#333333">gpui</text>
    <rect x="308.85" y="331.2" width="143.8" height="32.8" fill="#ececffb2" stroke="#9370db" stroke-width="1.5" />
    <text x="380.75" y="347.6" text-anchor="middle" dominant-baseline="central" font-size="14px" font-family="'Intel One Mono', 'SF Mono', 'Cascadia Code', 'JetBrains Mono', 'Fira Code', 'Consolas', 'Menlo', monospace" fill="#333333">rusty-mermaid</text>
  </g>
</svg>
