<svg xmlns="http://www.w3.org/2000/svg" viewBox="0 0 933.8 72.8" width="933.8" height="72.8"><!-- v2 -->
  <defs>
    <marker id="arrow-point-333333" viewBox="0 0 10 10" refX="8" refY="5" markerWidth="8" markerHeight="8" orient="auto-start-reverse">
      <path d="M10 5 L0 10 L4 5 L0 0 Z" fill="#333333" />
    </marker>
  </defs>
  <g transform="translate(20, 20)">
    <path d="M135.2 16.4 L139.37 16.4 C143.53 16.4 151.87 16.4 160.2 16.4 C168.53 16.4 176.87 16.4 181.03 16.4 L182.8 16.4" fill="none" stroke="#333333" stroke-width="1.5" marker-end="url(#arrow-point-333333)" />
    <path d="M260.2 16.4 L264.37 16.4 C268.53 16.4 276.87 16.4 285.2 16.4 C293.53 16.4 301.87 16.4 306.03 16.4 L307.8 16.4" fill="none" stroke="#333333" stroke-width="1.5" marker-end="url(#arrow-point-333333)" />
    <path d="M359.4 16.4 L363.57 16.4 C367.73 16.4 376.07 16.4 384.4 16.4 C392.73 16.4 401.07 16.4 405.23 16.4 L407 16.4" fill="none" stroke="#333333" stroke-width="1.5" marker-end="url(#arrow-point-333333)" />
    <path d="M493 16.4 L497.17 16.4 C501.33 16.4 509.67 16.4 518 16.4 C526.33 16.4 534.67 16.4 538.83 16.4 L540.6 16.4" fill="none" stroke="#333333" stroke-width="1.5" marker-end="url(#arrow-point-333333)" />
    <path d="M618 16.4 L622.17 16.4 C626.33 16.4 634.67 16.4 643 16.4 C651.33 16.4 659.67 16.4 663.83 16.4 L665.6 16.4" fill="none" stroke="#333333" stroke-width="1.5" marker-end="url(#arrow-point-333333)" />
    <path d="M760.2 16.4 L764.37 16.4 C768.53 16.4 776.87 16.4 785.2 16.4 C793.53 16.4 801.87 16.4 806.03 16.4 L807.8 16.4" fill="none" stroke="#333333" stroke-width="1.5" marker-end="url(#arrow-point-333333)" />
    <rect x="0" y="0" width="135.2" height="32.8" fill="#ececffb2" stroke="#9370db" stroke-width="1.5" />
    <text x="67.6" y="16.4" text-anchor="middle" dominant-baseline="central" font-size="14px" font-family="'Intel One Mono', 'SF Mono', 'Cascadia Code', 'JetBrains Mono', 'Fira Code', 'Consolas', 'Menlo', monospace" fill="#333333">mermaid text</text>
    <rect x="185.2" y="0" width="75" height="32.8" fill="#ececffb2" stroke="#9370db" stroke-width="1.5" />
    <text x="222.7" y="16.4" text-anchor="middle" dominant-baseline="central" font-size="14px" font-family="'Intel One Mono', 'SF Mono', 'Cascadia Code', 'JetBrains Mono', 'Fira Code', 'Consolas', 'Menlo', monospace" fill="#333333">parse</text>
    <rect x="310.2" y="0" width="49.2" height="32.8" fill="#ececffb2" stroke="#9370db" stroke-width="1.5" />
    <text x="334.8" y="16.4" text-anchor="middle" dominant-baseline="central" font-size="14px" font-family="'Intel One Mono', 'SF Mono', 'Cascadia Code', 'JetBrains Mono', 'Fira Code', 'Consolas', 'Menlo', monospace" fill="#333333">IR</text>
    <rect x="409.4" y="0" width="83.6" height="32.8" fill="#ececffb2" stroke="#9370db" stroke-width="1.5" />
    <text x="451.2" y="16.4" text-anchor="middle" dominant-baseline="central" font-size="14px" font-family="'Intel One Mono', 'SF Mono', 'Cascadia Code', 'JetBrains Mono', 'Fira Code', 'Consolas', 'Menlo', monospace" fill="#333333">layout</text>
    <rect x="543" y="0" width="75" height="32.8" fill="#ececffb2" stroke="#9370db" stroke-width="1.5" />
    <text x="580.5" y="16.4" text-anchor="middle" dominant-baseline="central" font-size="14px" font-family="'Intel One Mono', 'SF Mono', 'Cascadia Code', 'JetBrains Mono', 'Fira Code', 'Consolas', 'Menlo', monospace" fill="#333333">Scene</text>
    <rect x="668" y="0" width="92.2" height="32.8" fill="#ececffb2" stroke="#9370db" stroke-width="1.5" />
    <text x="714.1" y="16.4" text-anchor="middle" dominant-baseline="central" font-size="14px" font-family="'Intel One Mono', 'SF Mono', 'Cascadia Code', 'JetBrains Mono', 'Fira Code', 'Consolas', 'Menlo', monospace" fill="#333333">backend</text>
    <rect x="810.2" y="0" width="83.6" height="32.8" fill="#ececffb2" stroke="#9370db" stroke-width="1.5" />
    <text x="852" y="16.4" text-anchor="middle" dominant-baseline="central" font-size="14px" font-family="'Intel One Mono', 'SF Mono', 'Cascadia Code', 'JetBrains Mono', 'Fira Code', 'Consolas', 'Menlo', monospace" fill="#333333">output</text>
  </g>
</svg>
